<?xml version="1.0" standalone="no"?>
<!DOCTYPE svg PUBLIC "-//W3C//DTD SVG 20010904//EN"
 "http://www.w3.org/TR/2001/REC-SVG-20010904/DTD/svg10.dtd">
<svg version="1.0" xmlns="http://www.w3.org/2000/svg"
 width="319.000000pt" height="235.000000pt" viewBox="0 0 319.000000 235.000000"
 preserveAspectRatio="xMidYMid meet">
<metadata>
Created by potrace 1.15, written by Peter Selinger 2001-2017
</metadata>
<g transform="translate(0.000000,235.000000) scale(0.100000,-0.100000)"
fill="#000000" stroke="none">
<path d="M1774 2262 c-67 -24 -139 -70 -194 -126 l-44 -46 -101 0 c-119 0
-207 -19 -287 -62 -68 -36 -155 -126 -200 -206 -27 -47 -39 -58 -87 -79 -97
-42 -122 -57 -173 -107 -63 -62 -108 -153 -108 -219 0 -54 -6 -58 -103 -77
-146 -29 -281 -134 -345 -269 -33 -69 -37 -86 -40 -177 -8 -192 60 -327 212
-426 88 -57 171 -80 296 -83 58 -1 110 -3 116 -4 6 0 46 -28 90 -61 151 -116
275 -160 446 -160 126 0 192 16 319 76 109 52 109 52 210 -7 77 -45 129 -58
219 -59 120 0 210 36 333 135 44 36 80 56 105 60 127 20 163 29 218 55 86 42
159 117 203 209 35 73 36 80 36 186 0 102 -2 114 -29 165 -15 30 -35 63 -44
73 -8 9 -13 18 -11 20 2 1 30 19 61 40 67 43 119 108 149 187 17 45 20 72 17
150 -3 84 -7 104 -36 162 -57 116 -163 192 -307 223 -75 15 -85 22 -125 81
-37 53 -106 97 -195 123 -65 19 -75 26 -133 90 -49 55 -79 78 -139 108 -72 35
-84 38 -177 41 -77 2 -113 -2 -152 -16z"/>
</g>
</svg>
