<?xml version="1.0" standalone="no"?>
<!DOCTYPE svg PUBLIC "-//W3C//DTD SVG 20010904//EN"
 "http://www.w3.org/TR/2001/REC-SVG-20010904/DTD/svg10.dtd">
<svg version="1.0" xmlns="http://www.w3.org/2000/svg"
 width="315.000000pt" height="243.000000pt" viewBox="0 0 315.000000 243.000000"
 preserveAspectRatio="xMidYMid meet">
<metadata>
Created by potrace 1.15, written by Peter Selinger 2001-2017
</metadata>
<g transform="translate(0.000000,243.000000) scale(0.100000,-0.100000)"
fill="#000000" stroke="none">
<path d="M2197 2342 c-14 -15 -17 -41 -17 -144 0 -108 2 -127 18 -141 25 -23
78 -21 102 3 18 18 20 33 20 138 0 140 -9 162 -69 162 -24 0 -44 -7 -54 -18z"/>
<path d="M1790 2250 c-11 -11 -20 -32 -20 -46 0 -24 82 -175 118 -216 35 -41
122 -8 122 45 0 26 -102 205 -127 225 -25 18 -70 15 -93 -8z"/>
<path d="M2591 2241 c-35 -35 -121 -191 -121 -220 0 -63 85 -87 126 -35 36 44
114 187 114 207 0 26 -45 67 -75 67 -14 0 -34 -9 -44 -19z"/>
<path d="M1500 1970 c-27 -27 -26 -71 3 -97 39 -35 193 -113 224 -113 38 0 63
27 63 68 0 36 -24 57 -141 121 -85 46 -119 51 -149 21z"/>
<path d="M2109 1976 c-152 -43 -281 -165 -319 -306 -7 -25 -14 -51 -16 -58 -2
-7 -31 15 -67 52 -44 44 -89 76 -143 102 l-78 39 -125 0 c-122 0 -128 -1 -195
-33 -86 -41 -142 -86 -200 -161 -45 -59 -64 -71 -146 -92 -94 -24 -175 -83
-227 -165 -30 -47 -48 -57 -136 -74 -146 -29 -281 -134 -345 -269 -33 -69 -37
-86 -40 -177 -8 -192 60 -327 212 -426 88 -57 171 -80 296 -83 58 -1 110 -3
116 -4 6 0 46 -28 90 -61 151 -116 275 -160 446 -160 126 0 192 16 319 76 109
52 109 52 210 -7 77 -45 129 -58 219 -59 120 0 210 36 333 135 44 36 80 56
105 60 127 20 163 29 218 55 86 42 159 117 203 209 35 73 36 80 36 186 0 104
-2 113 -32 170 -60 114 -160 203 -273 240 l-48 16 48 48 c109 110 154 275 114
426 -39 154 -167 278 -328 321 -63 17 -185 17 -247 0z"/>
<path d="M2795 1934 c-55 -31 -103 -61 -107 -68 -14 -21 -8 -73 10 -89 29 -27
69 -20 151 24 115 63 141 85 141 120 0 37 -32 69 -68 69 -15 0 -72 -25 -127
-56z"/>
<path d="M2782 1594 c-19 -13 -22 -24 -20 -57 4 -58 26 -67 163 -67 135 0 159
10 163 64 6 68 -11 76 -157 76 -100 0 -131 -3 -149 -16z"/>
<path d="M2697 1302 c-22 -24 -22 -75 1 -94 29 -26 181 -108 210 -114 54 -11
103 57 74 103 -4 7 -52 37 -106 67 -105 60 -151 70 -179 38z"/>
</g>
</svg>
