<svg id="svg" version="1.1" width="400" height="400" xmlns="http://www.w3.org/2000/svg" xmlns:xlink="http://www.w3.org/1999/xlink" style="display: block;"><g id="svgg"><path id="path0" d="M185.800 23.600 C 185.658 23.829,183.596 24.000,180.976 24.000 C 178.192 24.000,176.400 24.157,176.400 24.400 C 176.400 24.620,175.365 24.808,174.100 24.818 C 171.021 24.841,164.513 25.747,159.800 26.808 C 158.700 27.055,157.035 27.353,156.100 27.469 C 155.165 27.586,154.400 27.842,154.400 28.040 C 154.400 28.238,153.680 28.400,152.800 28.400 C 151.920 28.400,151.200 28.580,151.200 28.800 C 151.200 29.020,150.581 29.200,149.824 29.200 C 149.067 29.200,148.336 29.380,148.200 29.600 C 148.064 29.820,147.423 30.000,146.776 30.000 C 146.129 30.000,145.600 30.180,145.600 30.400 C 145.600 30.620,144.970 30.800,144.200 30.800 C 143.430 30.800,142.800 30.980,142.800 31.200 C 142.800 31.420,142.260 31.600,141.600 31.600 C 140.940 31.600,140.400 31.780,140.400 32.000 C 140.400 32.220,139.860 32.400,139.200 32.400 C 138.540 32.400,138.000 32.580,138.000 32.800 C 138.000 33.020,137.638 33.200,137.195 33.200 C 136.752 33.200,136.032 33.380,135.595 33.600 C 135.158 33.820,134.442 34.180,134.005 34.400 C 133.568 34.620,132.848 34.800,132.405 34.800 C 131.962 34.800,131.600 34.980,131.600 35.200 C 131.600 35.420,131.251 35.600,130.824 35.600 C 130.397 35.600,129.936 35.780,129.800 36.000 C 129.664 36.220,129.113 36.400,128.576 36.400 C 128.039 36.400,127.600 36.580,127.600 36.800 C 127.600 37.020,127.240 37.200,126.800 37.200 C 126.360 37.200,126.000 37.380,126.000 37.600 C 126.000 37.820,125.550 38.000,125.000 38.000 C 124.450 38.000,124.000 38.180,124.000 38.400 C 124.000 38.620,123.640 38.800,123.200 38.800 C 122.760 38.800,122.400 38.980,122.400 39.200 C 122.400 39.420,122.040 39.600,121.600 39.600 C 121.160 39.600,120.800 39.780,120.800 40.000 C 120.800 40.220,120.440 40.400,120.000 40.400 C 119.560 40.400,119.200 40.580,119.200 40.800 C 119.200 41.020,118.928 41.200,118.595 41.200 C 118.262 41.200,117.677 41.367,117.295 41.572 C 116.913 41.776,115.160 42.623,113.400 43.454 C 111.640 44.284,110.110 45.062,110.000 45.183 C 109.890 45.303,109.305 45.656,108.700 45.968 C 108.095 46.280,107.600 46.685,107.600 46.868 C 107.600 47.050,107.240 47.200,106.800 47.200 C 106.360 47.200,106.000 47.380,106.000 47.600 C 106.000 47.820,105.722 48.000,105.383 48.000 C 105.044 48.000,104.380 48.360,103.908 48.800 C 103.436 49.240,102.813 49.600,102.525 49.600 C 102.236 49.600,102.000 49.780,102.000 50.000 C 102.000 50.220,101.764 50.400,101.475 50.400 C 101.187 50.400,100.564 50.760,100.092 51.200 C 99.620 51.640,98.996 52.000,98.705 52.000 C 98.414 52.000,97.917 52.360,97.600 52.800 C 97.283 53.240,96.743 53.600,96.400 53.600 C 96.057 53.600,95.517 53.960,95.200 54.400 C 94.883 54.840,94.485 55.200,94.316 55.200 C 94.022 55.200,92.896 56.045,91.784 57.100 C 91.494 57.375,91.064 57.600,90.829 57.600 C 90.593 57.600,90.400 57.758,90.400 57.951 C 90.400 58.145,89.886 58.516,89.257 58.776 C 88.628 59.037,87.458 59.869,86.656 60.625 C 85.854 61.381,85.037 62.000,84.840 62.000 C 84.642 62.000,83.562 62.900,82.439 64.000 C 81.315 65.100,80.256 66.000,80.085 66.000 C 79.709 66.000,76.008 69.495,75.187 70.625 C 74.864 71.069,73.791 72.056,72.802 72.817 C 71.813 73.578,70.283 74.979,69.402 75.931 C 68.521 76.883,66.224 79.276,64.297 81.249 C 62.371 83.222,60.482 85.323,60.100 85.918 C 59.201 87.320,59.057 87.504,57.398 89.378 C 56.629 90.246,56.000 91.086,56.000 91.244 C 56.000 91.402,55.415 92.148,54.700 92.902 C 52.771 94.937,51.216 96.945,51.207 97.412 C 51.203 97.638,50.840 98.083,50.400 98.400 C 49.960 98.717,49.600 99.162,49.599 99.388 C 49.599 99.615,49.059 100.430,48.400 101.200 C 47.741 101.970,47.201 102.825,47.201 103.100 C 47.200 103.375,47.020 103.600,46.800 103.600 C 46.580 103.600,46.400 103.836,46.400 104.125 C 46.400 104.413,46.040 105.036,45.600 105.508 C 45.160 105.980,44.800 106.471,44.800 106.599 C 44.800 106.727,44.170 107.767,43.400 108.910 C 42.630 110.054,42.000 111.217,42.000 111.495 C 42.000 111.773,41.820 112.000,41.600 112.000 C 41.380 112.000,41.200 112.360,41.200 112.800 C 41.200 113.240,41.020 113.600,40.800 113.600 C 40.580 113.600,40.400 113.878,40.400 114.217 C 40.400 114.556,40.040 115.220,39.600 115.692 C 39.160 116.164,38.800 116.787,38.800 117.075 C 38.800 117.364,38.620 117.600,38.400 117.600 C 38.180 117.600,38.000 117.960,38.000 118.400 C 38.000 118.840,37.820 119.200,37.600 119.200 C 37.380 119.200,37.200 119.560,37.200 120.000 C 37.200 120.440,37.020 120.800,36.800 120.800 C 36.580 120.800,36.400 121.160,36.400 121.600 C 36.400 122.040,36.220 122.400,36.000 122.400 C 35.780 122.400,35.600 122.760,35.600 123.200 C 35.600 123.640,35.420 124.000,35.200 124.000 C 34.980 124.000,34.800 124.360,34.800 124.800 C 34.800 125.240,34.620 125.600,34.400 125.600 C 34.180 125.600,34.000 125.949,34.000 126.376 C 34.000 126.803,33.820 127.264,33.600 127.400 C 33.380 127.536,33.200 127.997,33.200 128.424 C 33.200 128.851,33.020 129.200,32.800 129.200 C 32.580 129.200,32.400 129.560,32.400 130.000 C 32.400 130.440,32.220 130.800,32.000 130.800 C 31.780 130.800,31.600 131.160,31.600 131.600 C 31.600 132.040,31.420 132.400,31.200 132.400 C 30.980 132.400,30.800 132.839,30.800 133.376 C 30.800 133.913,30.620 134.464,30.400 134.600 C 30.180 134.736,30.000 135.197,30.000 135.624 C 30.000 136.051,29.820 136.400,29.600 136.400 C 29.380 136.400,29.200 136.940,29.200 137.600 C 29.200 138.260,29.020 138.800,28.800 138.800 C 28.580 138.800,28.400 139.149,28.400 139.576 C 28.400 140.003,28.220 140.464,28.000 140.600 C 27.780 140.736,27.600 141.287,27.600 141.824 C 27.600 142.361,27.420 142.800,27.200 142.800 C 26.980 142.800,26.795 143.115,26.790 143.500 C 26.784 143.885,26.334 145.544,25.790 147.186 C 25.245 148.828,24.800 150.663,24.800 151.262 C 24.800 151.862,24.620 152.464,24.400 152.600 C 24.180 152.736,24.000 153.377,24.000 154.024 C 24.000 154.671,23.820 155.200,23.600 155.200 C 23.380 155.200,23.200 155.920,23.200 156.800 C 23.200 157.680,23.020 158.400,22.800 158.400 C 22.580 158.400,22.400 159.019,22.400 159.776 C 22.400 160.533,22.220 161.264,22.000 161.400 C 21.780 161.536,21.600 162.357,21.600 163.224 C 21.600 164.091,21.420 164.800,21.200 164.800 C 20.980 164.800,20.800 165.689,20.800 166.776 C 20.800 167.863,20.620 168.864,20.400 169.000 C 20.180 169.136,20.000 170.137,20.000 171.224 C 20.000 172.311,19.820 173.200,19.600 173.200 C 19.375 173.200,19.200 174.325,19.200 175.776 C 19.200 177.193,19.020 178.464,18.800 178.600 C 18.580 178.736,18.400 180.266,18.400 182.000 C 18.400 183.734,18.220 185.264,18.000 185.400 C 17.757 185.550,17.600 188.463,17.600 192.800 C 17.600 197.137,17.443 200.050,17.200 200.200 C 16.679 200.522,16.679 205.078,17.200 205.400 C 17.443 205.550,17.600 208.530,17.600 213.000 C 17.600 217.470,17.757 220.450,18.000 220.600 C 18.220 220.736,18.400 222.266,18.400 224.000 C 18.400 225.734,18.580 227.264,18.800 227.400 C 19.020 227.536,19.200 228.807,19.200 230.224 C 19.200 231.675,19.375 232.800,19.600 232.800 C 19.820 232.800,20.000 233.790,20.000 235.000 C 20.000 236.210,20.180 237.200,20.400 237.200 C 20.620 237.200,20.800 238.010,20.800 239.000 C 20.800 239.990,20.980 240.800,21.200 240.800 C 21.420 240.800,21.600 241.599,21.600 242.576 C 21.600 243.553,21.780 244.464,22.000 244.600 C 22.220 244.736,22.400 245.557,22.400 246.424 C 22.400 247.291,22.580 248.000,22.800 248.000 C 23.020 248.000,23.200 248.529,23.200 249.176 C 23.200 249.823,23.380 250.464,23.600 250.600 C 23.820 250.736,24.000 251.467,24.000 252.224 C 24.000 252.981,24.180 253.600,24.400 253.600 C 24.620 253.600,24.800 254.100,24.800 254.711 C 24.800 255.851,26.507 261.651,27.208 262.895 C 27.424 263.277,27.600 263.952,27.600 264.395 C 27.600 264.838,27.780 265.200,28.000 265.200 C 28.220 265.200,28.400 265.562,28.400 266.005 C 28.400 266.448,28.559 267.123,28.753 267.505 C 28.948 267.887,29.308 268.695,29.553 269.300 C 29.799 269.905,30.201 270.895,30.447 271.500 C 30.692 272.105,31.052 272.913,31.247 273.295 C 31.441 273.677,31.600 274.262,31.600 274.595 C 31.600 274.928,31.780 275.200,32.000 275.200 C 32.220 275.200,32.400 275.560,32.400 276.000 C 32.400 276.440,32.580 276.800,32.800 276.800 C 33.020 276.800,33.200 277.160,33.200 277.600 C 33.200 278.040,33.380 278.400,33.600 278.400 C 33.820 278.400,33.999 278.625,33.997 278.900 C 33.993 279.533,37.288 286.154,37.696 286.333 C 37.863 286.407,38.000 286.812,38.000 287.233 C 38.000 287.655,38.180 288.000,38.400 288.000 C 38.620 288.000,38.800 288.360,38.800 288.800 C 38.800 289.240,38.980 289.600,39.200 289.600 C 39.420 289.600,39.600 289.870,39.600 290.200 C 39.600 290.530,39.780 290.800,40.000 290.800 C 40.220 290.800,40.400 291.160,40.400 291.600 C 40.400 292.040,40.547 292.400,40.726 292.400 C 40.906 292.400,41.569 293.480,42.200 294.800 C 42.831 296.120,43.494 297.200,43.674 297.200 C 43.853 297.200,44.000 297.560,44.000 298.000 C 44.000 298.440,44.158 298.800,44.351 298.800 C 44.545 298.800,44.927 299.340,45.200 300.000 C 45.473 300.660,45.855 301.200,46.049 301.200 C 46.242 301.200,46.400 301.436,46.400 301.725 C 46.400 302.013,46.760 302.636,47.200 303.108 C 47.640 303.580,48.000 304.127,48.000 304.324 C 48.000 304.521,48.540 305.246,49.200 305.937 C 49.860 306.628,50.400 307.335,50.400 307.508 C 50.400 307.681,50.760 308.083,51.200 308.400 C 51.640 308.717,52.000 309.225,52.000 309.528 C 52.000 309.831,52.540 310.583,53.200 311.200 C 53.860 311.817,54.400 312.519,54.400 312.760 C 54.400 313.002,55.120 313.941,56.000 314.848 C 56.880 315.755,57.600 316.668,57.600 316.877 C 57.600 317.086,57.825 317.486,58.100 317.766 C 58.375 318.046,59.500 319.314,60.600 320.585 C 63.190 323.578,76.422 336.810,79.415 339.400 C 80.686 340.500,81.954 341.625,82.234 341.900 C 82.514 342.175,82.914 342.400,83.123 342.400 C 83.332 342.400,84.245 343.120,85.152 344.000 C 86.059 344.880,86.998 345.600,87.240 345.600 C 87.481 345.600,88.183 346.140,88.800 346.800 C 89.417 347.460,90.169 348.000,90.472 348.000 C 90.775 348.000,91.283 348.360,91.600 348.800 C 91.917 349.240,92.319 349.600,92.492 349.600 C 92.665 349.600,93.372 350.140,94.063 350.800 C 94.754 351.460,95.479 352.000,95.676 352.000 C 95.873 352.000,96.420 352.360,96.892 352.800 C 97.364 353.240,97.987 353.600,98.275 353.600 C 98.564 353.600,98.800 353.780,98.800 354.000 C 98.800 354.220,99.036 354.400,99.325 354.400 C 99.613 354.400,100.236 354.760,100.708 355.200 C 101.180 355.640,101.844 356.000,102.183 356.000 C 102.522 356.000,102.800 356.148,102.800 356.330 C 102.800 356.511,103.880 357.158,105.200 357.768 C 106.520 358.377,107.600 359.039,107.600 359.238 C 107.600 359.437,107.960 359.600,108.400 359.600 C 108.840 359.600,109.200 359.780,109.200 360.000 C 109.200 360.220,109.470 360.400,109.800 360.400 C 110.130 360.400,110.400 360.580,110.400 360.800 C 110.400 361.020,110.760 361.200,111.200 361.200 C 111.640 361.200,112.000 361.380,112.000 361.600 C 112.000 361.820,112.360 362.000,112.800 362.000 C 113.240 362.000,113.600 362.180,113.600 362.400 C 113.600 362.620,113.945 362.800,114.367 362.800 C 114.788 362.800,115.193 362.935,115.267 363.100 C 115.459 363.532,118.772 365.200,119.438 365.200 C 119.747 365.200,120.000 365.380,120.000 365.600 C 120.000 365.820,120.360 366.000,120.800 366.000 C 121.240 366.000,121.600 366.180,121.600 366.400 C 121.600 366.620,121.960 366.800,122.400 366.800 C 122.840 366.800,123.200 366.980,123.200 367.200 C 123.200 367.420,123.560 367.600,124.000 367.600 C 124.440 367.600,124.800 367.780,124.800 368.000 C 124.800 368.220,125.072 368.400,125.405 368.400 C 125.738 368.400,126.368 368.580,126.805 368.800 C 127.242 369.020,127.958 369.380,128.395 369.600 C 128.832 369.820,129.552 370.000,129.995 370.000 C 130.438 370.000,130.800 370.180,130.800 370.400 C 130.800 370.620,131.149 370.800,131.576 370.800 C 132.003 370.800,132.464 370.980,132.600 371.200 C 132.736 371.420,133.287 371.600,133.824 371.600 C 134.361 371.600,134.800 371.780,134.800 372.000 C 134.800 372.220,135.340 372.400,136.000 372.400 C 136.660 372.400,137.200 372.580,137.200 372.800 C 137.200 373.020,137.614 373.200,138.120 373.200 C 138.626 373.200,139.211 373.353,139.420 373.541 C 139.913 373.982,144.394 375.200,145.526 375.200 C 146.007 375.200,146.400 375.380,146.400 375.600 C 146.400 375.820,147.019 376.000,147.776 376.000 C 148.533 376.000,149.264 376.180,149.400 376.400 C 149.536 376.620,150.177 376.800,150.824 376.800 C 151.471 376.800,152.000 376.980,152.000 377.200 C 152.000 377.420,152.799 377.600,153.776 377.600 C 154.753 377.600,155.664 377.780,155.800 378.000 C 155.936 378.220,156.757 378.400,157.624 378.400 C 158.491 378.400,159.200 378.580,159.200 378.800 C 159.200 379.020,160.010 379.200,161.000 379.200 C 161.990 379.200,162.800 379.380,162.800 379.600 C 162.800 379.820,163.779 380.000,164.976 380.000 C 166.173 380.000,167.264 380.180,167.400 380.400 C 167.536 380.620,168.796 380.800,170.200 380.800 C 171.604 380.800,172.864 380.980,173.000 381.200 C 173.136 381.420,174.677 381.600,176.424 381.600 C 178.275 381.600,179.600 381.767,179.600 382.000 C 179.600 382.253,182.392 382.400,187.176 382.400 C 191.796 382.400,194.849 382.556,195.000 382.800 C 195.136 383.020,196.036 383.200,197.000 383.200 C 197.964 383.200,198.864 383.020,199.000 382.800 C 199.151 382.556,202.204 382.400,206.824 382.400 C 211.608 382.400,214.400 382.253,214.400 382.000 C 214.400 381.765,215.800 381.600,217.800 381.600 C 219.800 381.600,221.200 381.435,221.200 381.200 C 221.200 380.971,222.400 380.800,224.000 380.800 C 225.600 380.800,226.800 380.629,226.800 380.400 C 226.800 380.180,227.700 380.000,228.800 380.000 C 229.900 380.000,230.800 379.820,230.800 379.600 C 230.800 379.380,231.689 379.200,232.776 379.200 C 233.863 379.200,234.864 379.020,235.000 378.800 C 235.136 378.580,235.946 378.400,236.800 378.400 C 237.654 378.400,238.464 378.220,238.600 378.000 C 238.736 377.780,239.467 377.600,240.224 377.600 C 240.981 377.600,241.600 377.420,241.600 377.200 C 241.600 376.980,242.320 376.800,243.200 376.800 C 244.080 376.800,244.800 376.620,244.800 376.400 C 244.800 376.180,245.340 376.000,246.000 376.000 C 246.660 376.000,247.200 375.820,247.200 375.600 C 247.200 375.380,247.790 375.200,248.511 375.200 C 249.807 375.200,255.550 373.550,256.895 372.792 C 257.277 372.576,257.941 372.400,258.371 372.400 C 258.801 372.400,259.264 372.220,259.400 372.000 C 259.536 371.780,259.997 371.600,260.424 371.600 C 260.851 371.600,261.200 371.420,261.200 371.200 C 261.200 370.980,261.639 370.800,262.176 370.800 C 262.713 370.800,263.264 370.620,263.400 370.400 C 263.536 370.180,263.997 370.000,264.424 370.000 C 264.851 370.000,265.200 369.820,265.200 369.600 C 265.200 369.380,265.740 369.200,266.400 369.200 C 267.060 369.200,267.600 369.020,267.600 368.800 C 267.600 368.580,267.960 368.400,268.400 368.400 C 268.840 368.400,269.200 368.220,269.200 368.000 C 269.200 367.780,269.560 367.600,270.000 367.600 C 270.440 367.600,270.800 367.420,270.800 367.200 C 270.800 366.980,271.160 366.800,271.600 366.800 C 272.040 366.800,272.400 366.620,272.400 366.400 C 272.400 366.180,272.850 366.000,273.400 366.000 C 273.950 366.000,274.400 365.820,274.400 365.600 C 274.400 365.380,274.760 365.200,275.200 365.200 C 275.640 365.200,276.000 365.020,276.000 364.800 C 276.000 364.580,276.360 364.400,276.800 364.400 C 277.240 364.400,277.600 364.220,277.600 364.000 C 277.600 363.780,277.960 363.600,278.400 363.600 C 278.840 363.600,279.200 363.420,279.200 363.200 C 279.200 362.980,279.545 362.800,279.967 362.800 C 280.388 362.800,280.793 362.665,280.867 362.500 C 281.034 362.124,283.164 360.825,284.100 360.529 C 284.485 360.407,284.800 360.148,284.800 359.953 C 284.800 359.759,285.145 359.600,285.567 359.600 C 285.988 359.600,286.393 359.459,286.467 359.287 C 286.540 359.115,287.630 358.459,288.889 357.828 C 290.147 357.197,291.535 356.348,291.972 355.940 C 292.409 355.533,292.962 355.200,293.200 355.200 C 293.438 355.200,294.020 354.840,294.492 354.400 C 294.964 353.960,295.587 353.600,295.875 353.600 C 296.164 353.600,296.400 353.432,296.400 353.227 C 296.400 353.022,296.738 352.747,297.151 352.616 C 297.564 352.484,298.419 351.933,299.051 351.389 C 299.683 350.846,300.385 350.401,300.612 350.400 C 300.838 350.400,301.283 350.040,301.600 349.600 C 301.917 349.160,302.380 348.800,302.629 348.800 C 302.878 348.800,303.646 348.260,304.337 347.600 C 305.028 346.940,305.698 346.400,305.828 346.400 C 305.957 346.400,306.797 345.680,307.695 344.800 C 308.593 343.920,309.487 343.200,309.682 343.200 C 309.877 343.200,310.470 342.795,310.999 342.300 C 312.207 341.170,312.663 340.804,314.381 339.582 C 315.141 339.042,317.339 337.025,319.266 335.100 C 321.193 333.175,322.874 331.600,323.003 331.600 C 323.371 331.600,324.925 329.933,325.987 328.400 C 326.520 327.630,327.660 326.370,328.520 325.600 C 331.591 322.850,332.244 322.182,333.210 320.800 C 333.749 320.030,334.957 318.630,335.895 317.689 C 336.833 316.749,337.600 315.823,337.600 315.632 C 337.600 315.441,338.140 314.707,338.800 314.000 C 339.460 313.293,340.000 312.582,340.000 312.419 C 340.000 312.158,340.463 311.531,341.993 309.717 C 342.217 309.451,342.400 309.048,342.400 308.820 C 342.400 308.593,342.940 307.891,343.600 307.260 C 344.260 306.629,344.800 305.948,344.800 305.745 C 344.800 305.542,345.160 305.117,345.600 304.800 C 346.040 304.483,346.400 303.986,346.400 303.695 C 346.400 303.404,346.760 302.780,347.200 302.308 C 347.640 301.836,348.000 301.213,348.000 300.925 C 348.000 300.636,348.180 300.400,348.400 300.400 C 348.620 300.400,348.800 300.164,348.800 299.875 C 348.800 299.587,349.115 299.002,349.500 298.575 C 349.885 298.149,350.455 297.305,350.768 296.700 C 351.080 296.095,351.485 295.600,351.668 295.600 C 351.850 295.600,352.000 295.240,352.000 294.800 C 352.000 294.360,352.180 294.000,352.400 294.000 C 352.620 294.000,352.800 293.640,352.800 293.200 C 352.800 292.760,352.980 292.400,353.200 292.400 C 353.420 292.400,353.600 292.164,353.600 291.875 C 353.600 291.587,353.920 291.002,354.311 290.575 C 354.702 290.149,355.704 288.360,356.539 286.600 C 357.374 284.840,358.224 283.087,358.428 282.705 C 358.633 282.323,358.800 281.738,358.800 281.405 C 358.800 281.072,358.980 280.800,359.200 280.800 C 359.420 280.800,359.600 280.440,359.600 280.000 C 359.600 279.560,359.780 279.200,360.000 279.200 C 360.220 279.200,360.400 278.840,360.400 278.400 C 360.400 277.960,360.580 277.600,360.800 277.600 C 361.020 277.600,361.200 277.251,361.200 276.824 C 361.200 276.397,361.380 275.936,361.600 275.800 C 361.820 275.664,362.000 275.203,362.000 274.776 C 362.000 274.349,362.180 274.000,362.400 274.000 C 362.620 274.000,362.800 273.651,362.800 273.224 C 362.800 272.797,362.980 272.336,363.200 272.200 C 363.420 272.064,363.600 271.513,363.600 270.976 C 363.600 270.439,363.780 270.000,364.000 270.000 C 364.220 270.000,364.400 269.640,364.400 269.200 C 364.400 268.760,364.580 268.400,364.800 268.400 C 365.020 268.400,365.200 267.860,365.200 267.200 C 365.200 266.540,365.380 266.000,365.600 266.000 C 365.820 266.000,366.000 265.561,366.000 265.024 C 366.000 264.487,366.144 263.958,366.321 263.849 C 366.497 263.740,366.893 262.728,367.200 261.600 C 367.507 260.472,367.903 259.460,368.079 259.351 C 368.256 259.242,368.400 258.724,368.400 258.200 C 368.400 257.676,368.580 257.136,368.800 257.000 C 369.020 256.864,369.200 256.223,369.200 255.576 C 369.200 254.929,369.360 254.400,369.556 254.400 C 369.752 254.400,370.022 253.770,370.156 253.000 C 370.290 252.230,370.510 250.970,370.644 250.200 C 370.778 249.430,371.048 248.800,371.244 248.800 C 371.440 248.800,371.600 248.091,371.600 247.224 C 371.600 246.357,371.761 245.548,371.958 245.426 C 372.155 245.305,372.413 244.529,372.532 243.703 C 372.651 242.876,372.951 241.300,373.198 240.200 C 373.634 238.259,373.871 236.860,374.752 231.000 C 374.984 229.460,375.180 227.176,375.187 225.924 C 375.194 224.672,375.380 223.536,375.600 223.400 C 375.829 223.259,376.000 221.204,376.000 218.600 C 376.000 215.996,376.171 213.941,376.400 213.800 C 376.651 213.645,376.800 209.529,376.800 202.776 C 376.800 195.859,376.657 192.000,376.400 192.000 C 376.157 192.000,376.000 190.208,376.000 187.424 C 376.000 184.804,375.829 182.742,375.600 182.600 C 375.380 182.464,375.187 181.148,375.171 179.676 C 375.155 178.204,374.977 176.010,374.777 174.800 C 374.576 173.590,374.293 171.560,374.149 170.289 C 374.005 169.017,373.732 167.882,373.543 167.765 C 373.355 167.648,373.200 166.764,373.200 165.800 C 373.200 164.836,373.020 163.936,372.800 163.800 C 372.580 163.664,372.400 162.944,372.400 162.200 C 372.400 161.456,372.239 160.748,372.042 160.626 C 371.845 160.505,371.582 159.729,371.458 158.903 C 370.917 155.322,370.691 154.400,370.356 154.400 C 370.160 154.400,370.000 153.871,370.000 153.224 C 370.000 152.577,369.820 151.936,369.600 151.800 C 369.380 151.664,369.200 150.933,369.200 150.176 C 369.200 149.419,369.020 148.800,368.800 148.800 C 368.580 148.800,368.400 148.260,368.400 147.600 C 368.400 146.940,368.220 146.400,368.000 146.400 C 367.780 146.400,367.600 145.961,367.600 145.424 C 367.600 144.887,367.420 144.336,367.200 144.200 C 366.980 144.064,366.800 143.513,366.800 142.976 C 366.800 142.439,366.620 142.000,366.400 142.000 C 366.180 142.000,366.000 141.460,366.000 140.800 C 366.000 140.140,365.820 139.600,365.600 139.600 C 365.380 139.600,365.200 139.240,365.200 138.800 C 365.200 138.360,365.020 138.000,364.800 138.000 C 364.580 138.000,364.400 137.460,364.400 136.800 C 364.400 136.140,364.220 135.600,364.000 135.600 C 363.780 135.600,363.600 135.240,363.600 134.800 C 363.600 134.360,363.420 134.000,363.200 134.000 C 362.980 134.000,362.800 133.561,362.800 133.024 C 362.800 132.487,362.620 131.936,362.400 131.800 C 362.180 131.664,362.000 131.203,362.000 130.776 C 362.000 130.349,361.820 130.000,361.600 130.000 C 361.380 130.000,361.200 129.640,361.200 129.200 C 361.200 128.760,361.020 128.400,360.800 128.400 C 360.580 128.400,360.400 128.040,360.400 127.600 C 360.400 127.160,360.220 126.800,360.000 126.800 C 359.780 126.800,359.600 126.536,359.600 126.214 C 359.600 125.892,359.150 124.822,358.600 123.837 C 358.050 122.852,357.600 121.766,357.600 121.423 C 357.600 121.080,357.420 120.800,357.200 120.800 C 356.980 120.800,356.800 120.440,356.800 120.000 C 356.800 119.560,356.620 119.200,356.400 119.200 C 356.180 119.200,356.000 118.840,356.000 118.400 C 356.000 117.960,355.820 117.600,355.600 117.600 C 355.380 117.600,355.200 117.240,355.200 116.800 C 355.200 116.360,355.041 116.000,354.847 116.000 C 354.652 116.000,354.393 115.685,354.271 115.300 C 354.054 114.613,352.795 112.394,352.399 112.000 C 352.289 111.890,351.930 111.260,351.602 110.600 C 351.274 109.940,350.689 109.109,350.303 108.753 C 349.916 108.397,349.600 107.895,349.600 107.636 C 349.600 107.378,349.240 106.780,348.800 106.308 C 348.360 105.836,348.000 105.213,348.000 104.925 C 348.000 104.636,347.820 104.400,347.600 104.400 C 347.380 104.400,347.200 104.164,347.200 103.875 C 347.200 103.587,346.840 102.964,346.400 102.492 C 345.960 102.020,345.600 101.446,345.600 101.217 C 345.600 100.988,345.420 100.800,345.200 100.800 C 344.980 100.800,344.800 100.570,344.800 100.288 C 344.800 100.007,344.440 99.517,344.000 99.200 C 343.560 98.883,343.200 98.343,343.200 98.000 C 343.200 97.657,342.840 97.117,342.400 96.800 C 341.960 96.483,341.600 96.035,341.600 95.804 C 341.600 95.413,339.534 92.697,337.485 90.396 C 336.993 89.843,336.148 88.763,335.608 87.996 C 335.068 87.228,333.990 85.970,333.213 85.200 C 332.436 84.430,331.287 83.114,330.661 82.275 C 329.120 80.214,319.346 70.436,317.600 69.209 C 316.830 68.668,315.570 67.584,314.800 66.800 C 314.030 66.016,312.772 64.932,312.004 64.392 C 311.237 63.852,310.157 63.007,309.604 62.515 C 307.303 60.466,304.587 58.400,304.196 58.400 C 303.965 58.400,303.517 58.040,303.200 57.600 C 302.883 57.160,302.391 56.800,302.108 56.800 C 301.825 56.800,301.028 56.260,300.337 55.600 C 299.646 54.940,298.878 54.400,298.629 54.400 C 298.380 54.400,297.917 54.040,297.600 53.600 C 297.283 53.160,296.786 52.800,296.495 52.800 C 296.204 52.800,295.580 52.440,295.108 52.000 C 294.636 51.560,294.013 51.200,293.725 51.200 C 293.436 51.200,293.200 51.020,293.200 50.800 C 293.200 50.580,292.880 50.400,292.488 50.400 C 292.097 50.400,291.517 50.040,291.200 49.600 C 290.883 49.160,290.393 48.800,290.112 48.800 C 289.830 48.800,289.600 48.620,289.600 48.400 C 289.600 48.180,289.240 48.000,288.800 48.000 C 288.360 48.000,288.000 47.848,288.000 47.663 C 288.000 47.477,287.145 46.892,286.100 46.363 C 285.055 45.833,284.140 45.265,284.067 45.100 C 283.993 44.935,283.588 44.800,283.167 44.800 C 282.745 44.800,282.400 44.620,282.400 44.400 C 282.400 44.180,282.040 44.000,281.600 44.000 C 281.160 44.000,280.800 43.820,280.800 43.600 C 280.800 43.380,280.440 43.200,280.000 43.200 C 279.560 43.200,279.200 43.034,279.200 42.832 C 279.200 42.629,278.660 42.345,278.000 42.200 C 277.340 42.055,276.800 41.771,276.800 41.568 C 276.800 41.366,276.440 41.200,276.000 41.200 C 275.560 41.200,275.200 41.020,275.200 40.800 C 275.200 40.580,274.750 40.400,274.200 40.400 C 273.650 40.400,273.200 40.220,273.200 40.000 C 273.200 39.780,272.840 39.600,272.400 39.600 C 271.960 39.600,271.600 39.420,271.600 39.200 C 271.600 38.980,271.240 38.800,270.800 38.800 C 270.360 38.800,270.000 38.620,270.000 38.400 C 270.000 38.180,269.640 38.000,269.200 38.000 C 268.760 38.000,268.400 37.820,268.400 37.600 C 268.400 37.380,267.860 37.200,267.200 37.200 C 266.540 37.200,266.000 37.020,266.000 36.800 C 266.000 36.580,265.640 36.400,265.200 36.400 C 264.760 36.400,264.400 36.220,264.400 36.000 C 264.400 35.780,263.860 35.600,263.200 35.600 C 262.540 35.600,262.000 35.420,262.000 35.200 C 262.000 34.980,261.640 34.800,261.200 34.800 C 260.760 34.800,260.400 34.620,260.400 34.400 C 260.400 34.180,259.860 34.000,259.200 34.000 C 258.540 34.000,258.000 33.820,258.000 33.600 C 258.000 33.380,257.561 33.200,257.024 33.200 C 256.487 33.200,255.936 33.020,255.800 32.800 C 255.664 32.580,255.113 32.400,254.576 32.400 C 254.039 32.400,253.600 32.220,253.600 32.000 C 253.600 31.780,253.060 31.600,252.400 31.600 C 251.740 31.600,251.200 31.420,251.200 31.200 C 251.200 30.980,250.671 30.800,250.024 30.800 C 249.377 30.800,248.736 30.620,248.600 30.400 C 248.464 30.180,247.733 30.000,246.976 30.000 C 246.219 30.000,245.600 29.840,245.600 29.644 C 245.600 29.309,244.678 29.083,241.097 28.542 C 240.271 28.418,239.495 28.155,239.374 27.958 C 239.252 27.761,238.544 27.600,237.800 27.600 C 237.056 27.600,236.336 27.420,236.200 27.200 C 236.064 26.980,235.164 26.800,234.200 26.800 C 233.236 26.800,232.336 26.620,232.200 26.400 C 232.064 26.180,231.255 26.000,230.402 26.000 C 229.550 26.000,228.379 25.820,227.801 25.600 C 227.223 25.381,224.691 25.083,222.175 24.939 C 219.659 24.796,217.600 24.526,217.600 24.339 C 217.600 24.153,215.440 24.000,212.800 24.000 C 209.867 24.000,208.000 23.844,208.000 23.600 C 208.000 23.343,204.075 23.200,197.024 23.200 C 190.137 23.200,185.955 23.349,185.800 23.600 M318.600 71.200 C 319.459 72.080,320.072 72.800,319.962 72.800 C 319.852 72.800,319.059 72.080,318.200 71.200 C 317.341 70.320,316.728 69.600,316.838 69.600 C 316.948 69.600,317.741 70.320,318.600 71.200 M329.000 81.600 C 329.859 82.480,330.472 83.200,330.362 83.200 C 330.252 83.200,329.459 82.480,328.600 81.600 C 327.741 80.720,327.128 80.000,327.238 80.000 C 327.348 80.000,328.141 80.720,329.000 81.600 M138.200 114.800 C 138.336 115.020,139.337 115.200,140.424 115.200 C 141.511 115.200,142.400 115.380,142.400 115.600 C 142.400 115.820,142.929 116.000,143.576 116.000 C 144.223 116.000,144.864 116.180,145.000 116.400 C 145.136 116.620,145.687 116.800,146.224 116.800 C 146.761 116.800,147.200 116.980,147.200 117.200 C 147.200 117.420,147.639 117.600,148.176 117.600 C 148.713 117.600,149.264 117.780,149.400 118.000 C 149.536 118.220,149.997 118.400,150.424 118.400 C 150.851 118.400,151.200 118.580,151.200 118.800 C 151.200 119.020,151.560 119.200,152.000 119.200 C 152.440 119.200,152.800 119.380,152.800 119.600 C 152.800 119.820,153.160 120.000,153.600 120.000 C 154.040 120.000,154.400 120.180,154.400 120.400 C 154.400 120.620,154.760 120.800,155.200 120.800 C 155.640 120.800,156.000 120.980,156.000 121.200 C 156.000 121.420,156.360 121.600,156.800 121.600 C 157.240 121.600,157.600 121.780,157.600 122.000 C 157.600 122.220,157.767 122.400,157.971 122.400 C 158.464 122.400,163.362 125.301,163.533 125.694 C 163.607 125.862,163.972 126.000,164.345 126.000 C 164.718 126.000,165.283 126.360,165.600 126.800 C 166.225 127.667,170.800 128.019,170.800 127.200 C 170.800 126.980,171.329 126.800,171.976 126.800 C 172.623 126.800,173.264 126.620,173.400 126.400 C 173.536 126.180,174.357 126.000,175.224 126.000 C 176.091 126.000,176.800 125.850,176.800 125.667 C 176.800 123.936,218.927 123.894,222.095 125.621 C 222.477 125.830,223.422 126.000,224.195 126.000 C 224.968 126.000,225.600 126.180,225.600 126.400 C 225.600 127.192,228.985 126.854,229.600 126.000 C 229.917 125.560,230.379 125.200,230.627 125.200 C 231.125 125.200,233.684 124.002,234.000 123.622 C 234.110 123.489,235.820 122.577,237.800 121.594 C 239.780 120.611,241.460 119.671,241.533 119.504 C 241.607 119.337,242.012 119.200,242.433 119.200 C 242.855 119.200,243.200 119.020,243.200 118.800 C 243.200 118.580,243.549 118.400,243.976 118.400 C 244.403 118.400,244.864 118.220,245.000 118.000 C 245.136 117.780,245.687 117.600,246.224 117.600 C 246.761 117.600,247.200 117.420,247.200 117.200 C 247.200 116.980,247.549 116.800,247.976 116.800 C 248.403 116.800,248.864 116.620,249.000 116.400 C 249.136 116.180,249.676 116.000,250.200 116.000 C 250.724 116.000,251.264 115.820,251.400 115.600 C 251.536 115.380,252.267 115.200,253.024 115.200 C 253.781 115.200,254.400 115.020,254.400 114.800 C 254.400 114.571,255.610 114.400,257.229 114.400 C 260.137 114.400,261.200 114.874,261.200 116.171 C 261.200 116.517,261.380 116.800,261.600 116.800 C 261.820 116.800,262.000 117.149,262.000 117.576 C 262.000 118.003,262.180 118.464,262.400 118.600 C 262.620 118.736,262.800 119.366,262.800 120.000 C 262.800 120.634,262.980 121.264,263.200 121.400 C 263.420 121.536,263.600 122.627,263.600 123.824 C 263.600 125.021,263.780 126.000,264.000 126.000 C 264.245 126.000,264.400 127.925,264.400 130.976 C 264.400 133.863,264.232 136.057,264.000 136.200 C 263.780 136.336,263.600 137.686,263.600 139.200 C 263.600 140.714,263.420 142.064,263.200 142.200 C 262.453 142.662,262.739 145.379,263.600 146.000 C 264.040 146.317,264.400 146.785,264.400 147.040 C 264.400 147.295,265.120 148.245,266.000 149.152 C 266.880 150.059,267.600 150.981,267.600 151.200 C 267.600 151.420,267.780 151.600,268.000 151.600 C 268.220 151.600,268.400 151.830,268.400 152.112 C 268.400 152.393,268.760 152.883,269.200 153.200 C 269.640 153.517,270.000 154.097,270.000 154.488 C 270.000 154.880,270.180 155.200,270.400 155.200 C 270.620 155.200,270.800 155.470,270.800 155.800 C 270.800 156.130,270.980 156.400,271.200 156.400 C 271.420 156.400,271.600 156.670,271.600 157.000 C 271.600 157.330,271.735 157.601,271.900 157.603 C 272.306 157.607,273.200 159.586,273.200 160.480 C 273.200 160.876,273.380 161.200,273.600 161.200 C 273.820 161.200,274.000 161.560,274.000 162.000 C 274.000 162.440,274.141 162.800,274.314 162.800 C 274.708 162.800,276.059 168.830,276.867 174.200 C 277.678 179.594,277.293 191.065,276.048 198.600 C 275.830 199.920,275.421 202.485,275.140 204.300 C 274.859 206.115,274.487 207.600,274.314 207.600 C 274.141 207.600,274.000 208.140,274.000 208.800 C 274.000 209.460,273.820 210.000,273.600 210.000 C 273.380 210.000,273.200 210.450,273.200 211.000 C 273.200 211.550,273.020 212.000,272.800 212.000 C 272.580 212.000,272.400 212.360,272.400 212.800 C 272.400 213.240,272.220 213.600,272.000 213.600 C 271.780 213.600,271.600 213.960,271.600 214.400 C 271.600 214.840,271.420 215.200,271.200 215.200 C 270.980 215.200,270.800 215.478,270.800 215.817 C 270.800 216.156,270.440 216.820,270.000 217.292 C 269.560 217.764,269.200 218.387,269.200 218.675 C 269.200 218.964,269.050 219.200,268.868 219.200 C 268.685 219.200,268.280 219.692,267.968 220.294 C 267.186 221.802,259.731 229.200,258.994 229.200 C 258.869 229.200,258.380 229.560,257.908 230.000 C 257.436 230.440,256.813 230.800,256.525 230.800 C 256.236 230.800,256.000 230.980,256.000 231.200 C 256.000 231.420,255.640 231.600,255.200 231.600 C 254.760 231.600,254.400 231.780,254.400 232.000 C 254.400 232.220,254.040 232.400,253.600 232.400 C 253.160 232.400,252.800 232.580,252.800 232.800 C 252.800 233.020,252.440 233.200,252.000 233.200 C 251.560 233.200,251.200 233.380,251.200 233.600 C 251.200 233.820,250.851 234.000,250.424 234.000 C 249.997 234.000,249.536 234.180,249.400 234.400 C 249.264 234.620,248.713 234.800,248.176 234.800 C 247.639 234.800,247.200 234.980,247.200 235.200 C 247.200 235.420,246.660 235.600,246.000 235.600 C 245.340 235.600,244.800 235.780,244.800 236.000 C 244.800 236.220,244.260 236.400,243.600 236.400 C 242.940 236.400,242.400 236.580,242.400 236.800 C 242.400 237.020,241.770 237.200,241.000 237.200 C 240.230 237.200,239.600 237.380,239.600 237.600 C 239.600 237.820,238.700 238.000,237.600 238.000 C 236.500 238.000,235.600 238.180,235.600 238.400 C 235.600 238.620,234.700 238.800,233.600 238.800 C 232.500 238.800,231.600 238.980,231.600 239.200 C 231.600 239.426,230.467 239.600,229.000 239.600 C 227.533 239.600,226.400 239.774,226.400 240.000 C 226.400 240.233,225.067 240.400,223.200 240.400 C 220.053 240.400,220.000 240.417,220.000 241.400 C 220.000 242.054,220.224 242.400,220.647 242.400 C 221.490 242.400,226.551 247.589,227.252 249.173 C 227.551 249.848,227.931 250.400,228.098 250.400 C 228.264 250.400,228.400 250.839,228.400 251.376 C 228.400 251.913,228.580 252.464,228.800 252.600 C 229.020 252.736,229.200 253.276,229.200 253.800 C 229.200 254.324,229.380 254.864,229.600 255.000 C 229.820 255.136,230.000 256.036,230.000 257.000 C 230.000 257.964,230.180 258.864,230.400 259.000 C 230.658 259.159,230.800 266.263,230.800 279.000 C 230.800 291.737,230.942 298.841,231.200 299.000 C 231.420 299.136,231.600 299.595,231.600 300.019 C 231.600 301.477,235.972 305.938,238.871 307.437 C 240.770 308.419,241.334 309.063,240.557 309.361 C 239.482 309.774,230.985 309.625,230.546 309.186 C 230.318 308.958,229.316 308.733,228.320 308.686 C 227.061 308.626,226.565 308.447,226.697 308.100 C 226.801 307.825,226.699 307.600,226.471 307.600 C 224.941 307.600,220.800 301.917,220.800 299.816 C 220.800 299.257,220.620 298.800,220.400 298.800 C 220.140 298.800,220.000 292.875,220.000 281.824 C 220.000 270.937,219.857 264.759,219.600 264.600 C 219.380 264.464,219.200 263.733,219.200 262.976 C 219.200 262.219,219.020 261.600,218.800 261.600 C 218.580 261.600,218.400 261.364,218.400 261.075 C 218.400 260.094,216.799 258.800,215.584 258.800 L 214.400 258.800 214.400 281.776 C 214.400 296.663,214.541 304.840,214.800 305.000 C 215.020 305.136,215.200 305.597,215.200 306.024 C 215.200 306.451,215.380 306.800,215.600 306.800 C 215.820 306.800,216.000 307.070,216.000 307.400 C 216.000 307.730,216.180 308.000,216.400 308.000 C 216.620 308.000,216.800 308.288,216.800 308.640 C 216.800 308.991,217.340 309.783,218.000 310.400 C 218.660 311.017,219.200 311.809,219.200 312.160 C 219.200 312.512,219.380 312.800,219.600 312.800 C 219.820 312.800,220.000 313.340,220.000 314.000 C 220.000 315.173,219.956 315.200,218.000 315.200 C 216.900 315.200,216.000 315.020,216.000 314.800 C 216.000 314.580,215.657 314.400,215.238 314.400 C 214.331 314.400,211.200 312.792,211.200 312.326 C 211.200 312.147,210.931 312.000,210.603 312.000 C 208.990 312.000,204.400 306.824,204.400 305.005 C 204.400 304.672,204.220 304.400,204.000 304.400 C 203.780 304.400,203.600 303.680,203.600 302.800 C 203.600 301.920,203.420 301.200,203.200 301.200 C 202.938 301.200,202.800 293.667,202.800 279.400 L 202.800 257.600 200.000 257.600 L 197.200 257.600 197.200 277.400 C 197.200 290.333,197.061 297.200,196.800 297.200 C 196.571 297.200,196.400 298.400,196.400 300.000 C 196.400 301.600,196.229 302.800,196.000 302.800 C 195.780 302.800,195.600 303.233,195.600 303.762 C 195.600 305.967,191.046 311.887,188.801 312.600 C 188.361 312.739,188.000 313.022,188.000 313.227 C 188.000 313.432,187.640 313.600,187.200 313.600 C 186.760 313.600,186.400 313.780,186.400 314.000 C 186.400 314.220,186.051 314.400,185.624 314.400 C 185.197 314.400,184.736 314.580,184.600 314.800 C 184.464 315.020,183.278 315.200,181.964 315.200 C 178.722 315.200,178.562 314.570,181.162 312.037 C 182.283 310.945,183.200 309.770,183.200 309.426 C 183.200 309.082,183.380 308.800,183.600 308.800 C 183.820 308.800,184.000 308.260,184.000 307.600 C 184.000 306.940,184.180 306.400,184.400 306.400 C 184.645 306.400,184.800 304.475,184.800 301.424 C 184.800 298.537,184.968 296.343,185.200 296.200 C 185.457 296.041,185.600 289.263,185.600 277.176 L 185.600 258.400 184.472 258.400 C 183.385 258.400,181.600 259.893,181.600 260.803 C 181.600 261.021,181.420 261.200,181.200 261.200 C 180.980 261.200,180.800 261.560,180.800 262.000 C 180.800 262.440,180.638 262.800,180.440 262.800 C 179.717 262.800,179.502 266.949,179.344 283.900 C 179.243 294.813,179.039 301.200,178.792 301.200 C 178.576 301.200,178.400 301.478,178.400 301.817 C 178.400 302.543,178.045 303.004,175.459 305.629 C 174.392 306.713,173.248 307.600,172.917 307.600 C 172.585 307.600,172.399 307.825,172.503 308.100 C 172.634 308.447,172.145 308.626,170.906 308.684 C 169.924 308.730,168.913 308.935,168.660 309.139 C 167.706 309.908,163.482 310.239,160.500 309.778 C 158.460 309.463,158.453 309.431,160.100 307.959 C 161.917 306.335,162.131 306.172,163.178 305.612 C 164.563 304.871,167.600 301.710,167.600 301.011 C 167.600 300.675,167.780 300.400,168.000 300.400 C 168.220 300.400,168.400 299.896,168.400 299.280 C 168.400 298.664,168.593 297.967,168.830 297.730 C 169.119 297.441,169.184 295.323,169.030 291.250 C 168.903 287.923,168.697 282.500,168.571 279.200 L 168.342 273.200 166.795 273.200 C 165.944 273.200,165.136 273.380,165.000 273.600 C 164.665 274.143,149.600 274.143,149.600 273.600 C 149.600 273.380,148.880 273.200,148.000 273.200 C 147.120 273.200,146.400 273.020,146.400 272.800 C 146.400 272.580,145.860 272.400,145.200 272.400 C 144.540 272.400,144.000 272.220,144.000 272.000 C 144.000 271.780,143.640 271.600,143.200 271.600 C 142.760 271.600,142.400 271.464,142.400 271.298 C 142.400 271.131,141.815 270.737,141.100 270.422 C 139.607 269.764,133.679 263.940,132.832 262.300 C 132.520 261.695,132.115 261.200,131.932 261.200 C 131.750 261.200,131.600 260.840,131.600 260.400 C 131.600 259.960,131.420 259.600,131.200 259.600 C 130.980 259.600,130.800 259.330,130.800 259.000 C 130.800 258.670,130.620 258.400,130.400 258.400 C 130.180 258.400,130.000 258.051,130.000 257.624 C 130.000 257.197,129.820 256.736,129.600 256.600 C 129.380 256.464,129.200 255.913,129.200 255.376 C 129.200 254.839,129.020 254.400,128.800 254.400 C 128.580 254.400,128.400 254.080,128.400 253.688 C 128.400 253.297,128.040 252.717,127.600 252.400 C 127.160 252.083,126.800 251.503,126.800 251.112 C 126.800 250.720,126.650 250.400,126.468 250.400 C 126.285 250.400,125.882 249.905,125.572 249.300 C 124.745 247.683,120.575 243.420,118.980 242.561 C 118.221 242.153,117.600 241.679,117.600 241.509 C 117.600 241.339,117.322 241.200,116.982 241.200 C 116.182 241.200,114.400 239.418,114.400 238.618 C 114.400 238.229,114.762 238.000,115.376 238.000 C 115.913 238.000,116.464 237.820,116.600 237.600 C 116.736 237.380,117.737 237.200,118.824 237.200 C 119.911 237.200,120.800 237.380,120.800 237.600 C 120.800 237.820,121.340 238.000,122.000 238.000 C 122.660 238.000,123.200 238.180,123.200 238.400 C 123.200 238.620,123.494 238.800,123.852 238.800 C 124.211 238.800,125.381 239.430,126.453 240.200 C 128.673 241.795,129.694 242.037,128.562 240.700 L 127.800 239.800 128.691 240.553 C 129.180 240.968,129.486 241.461,129.370 241.649 C 129.254 241.837,129.618 242.486,130.179 243.091 C 130.741 243.697,131.200 244.324,131.200 244.485 C 131.200 244.647,132.010 245.589,133.000 246.579 C 133.990 247.569,134.800 248.581,134.800 248.829 C 134.800 249.077,135.302 249.756,135.915 250.340 C 136.529 250.923,137.468 252.030,138.002 252.800 C 140.151 255.897,144.437 258.800,146.861 258.800 C 147.488 258.800,148.000 258.980,148.000 259.200 C 148.000 259.435,149.373 259.600,151.320 259.600 C 153.326 259.600,154.826 259.786,155.109 260.069 C 155.468 260.428,155.820 260.428,156.608 260.069 C 157.174 259.811,158.979 259.600,160.619 259.600 C 162.340 259.600,163.600 259.431,163.600 259.200 C 163.600 258.980,164.320 258.800,165.200 258.800 C 166.704 258.800,167.381 258.260,166.320 257.907 C 166.025 257.808,166.110 257.643,166.541 257.478 C 166.960 257.317,167.143 257.368,166.997 257.605 C 166.666 258.141,167.735 258.104,168.981 257.536 C 169.772 257.176,170.000 256.777,170.000 255.759 C 170.000 255.038,170.180 254.336,170.400 254.200 C 170.620 254.064,170.800 253.513,170.800 252.976 C 170.800 252.439,170.980 252.000,171.200 252.000 C 171.420 252.000,171.600 251.640,171.600 251.200 C 171.600 250.760,171.780 250.400,172.000 250.400 C 172.220 250.400,172.400 250.122,172.400 249.783 C 172.400 249.444,172.775 248.769,173.234 248.283 C 173.693 247.797,174.350 246.860,174.695 246.200 C 175.435 244.783,177.933 242.400,178.678 242.400 C 179.424 242.400,179.323 241.581,178.500 240.957 C 178.072 240.632,176.675 240.421,174.900 240.413 C 173.242 240.405,172.000 240.229,172.000 240.000 C 172.000 239.780,171.021 239.600,169.824 239.600 C 168.627 239.600,167.536 239.420,167.400 239.200 C 167.264 238.980,166.353 238.800,165.376 238.800 C 164.399 238.800,163.600 238.620,163.600 238.400 C 163.600 238.180,162.880 238.000,162.000 238.000 C 161.120 238.000,160.400 237.820,160.400 237.600 C 160.400 237.380,159.770 237.200,159.000 237.200 C 158.230 237.200,157.600 237.020,157.600 236.800 C 157.600 236.580,157.060 236.400,156.400 236.400 C 155.740 236.400,155.200 236.220,155.200 236.000 C 155.200 235.780,154.761 235.600,154.224 235.600 C 153.687 235.600,153.136 235.420,153.000 235.200 C 152.864 234.980,152.403 234.800,151.976 234.800 C 151.549 234.800,151.200 234.620,151.200 234.400 C 151.200 234.180,150.928 234.000,150.595 234.000 C 149.949 234.000,149.314 233.729,147.400 232.636 C 146.740 232.259,145.885 231.851,145.500 231.729 C 145.115 231.607,144.800 231.348,144.800 231.153 C 144.800 230.959,144.440 230.800,144.000 230.800 C 143.560 230.800,143.200 230.620,143.200 230.400 C 143.200 230.180,142.964 230.000,142.675 230.000 C 142.387 230.000,141.764 229.640,141.292 229.200 C 140.820 228.760,140.328 228.400,140.200 228.400 C 140.072 228.400,139.569 228.020,139.083 227.556 C 138.597 227.092,137.264 226.013,136.121 225.159 C 134.977 224.304,133.717 223.147,133.321 222.587 C 132.924 222.027,131.835 220.737,130.900 219.721 C 129.965 218.704,129.200 217.631,129.200 217.336 C 129.200 217.041,129.020 216.800,128.800 216.800 C 128.580 216.800,128.400 216.530,128.400 216.200 C 128.400 215.870,128.220 215.600,128.000 215.600 C 127.780 215.600,127.600 215.330,127.600 215.000 C 127.600 214.670,127.420 214.400,127.200 214.400 C 126.980 214.400,126.800 214.040,126.800 213.600 C 126.800 213.160,126.620 212.800,126.400 212.800 C 126.180 212.800,126.000 212.440,126.000 212.000 C 126.000 211.560,125.820 211.200,125.600 211.200 C 125.380 211.200,125.200 210.952,125.200 210.650 C 125.200 210.347,124.750 209.082,124.200 207.838 C 123.650 206.595,123.200 205.132,123.200 204.589 C 123.200 204.045,123.020 203.600,122.800 203.600 C 122.580 203.600,122.400 202.981,122.400 202.224 C 122.400 201.467,122.220 200.736,122.000 200.600 C 121.780 200.464,121.600 199.643,121.600 198.776 C 121.600 197.909,121.420 197.200,121.200 197.200 C 120.978 197.200,120.800 196.141,120.800 194.824 C 120.800 193.517,120.620 192.336,120.400 192.200 C 120.150 192.045,120.000 188.070,120.000 181.600 C 120.000 175.130,120.150 171.155,120.400 171.000 C 120.620 170.864,120.800 170.131,120.800 169.371 C 120.800 168.611,120.962 167.677,121.161 167.295 C 121.360 166.913,121.760 165.790,122.050 164.800 C 122.341 163.810,123.169 161.780,123.889 160.289 C 124.610 158.799,125.200 157.404,125.200 157.189 C 125.200 156.975,125.350 156.800,125.532 156.800 C 125.715 156.800,126.120 156.308,126.432 155.707 C 126.745 155.106,127.495 154.089,128.100 153.448 C 128.705 152.806,129.200 152.110,129.200 151.901 C 129.200 151.692,129.695 151.039,130.300 150.450 C 132.186 148.613,133.333 144.800,132.000 144.800 C 131.780 144.800,131.600 143.990,131.600 143.000 C 131.600 142.010,131.420 141.200,131.200 141.200 C 130.967 141.200,130.800 139.875,130.800 138.024 C 130.800 136.277,130.620 134.736,130.400 134.600 C 130.180 134.464,130.000 133.553,130.000 132.576 C 130.000 131.599,130.180 130.800,130.400 130.800 C 130.633 130.800,130.800 129.467,130.800 127.600 C 130.800 125.733,130.967 124.400,131.200 124.400 C 131.420 124.400,131.600 123.691,131.600 122.824 C 131.600 121.957,131.780 121.136,132.000 121.000 C 132.220 120.864,132.400 120.223,132.400 119.576 C 132.400 118.929,132.580 118.400,132.800 118.400 C 133.020 118.400,133.200 118.151,133.200 117.846 C 133.200 117.332,133.756 116.097,134.526 114.900 C 134.908 114.306,137.845 114.226,138.200 114.800 M203.700 123.498 C 201.445 123.570,197.755 123.570,195.500 123.498 C 193.245 123.427,195.090 123.369,199.600 123.369 C 204.110 123.369,205.955 123.427,203.700 123.498 M184.305 124.275 C 183.922 124.375,183.202 124.379,182.705 124.283 C 182.207 124.187,182.520 124.105,183.400 124.101 C 184.280 124.096,184.687 124.175,184.305 124.275 M216.705 124.275 C 216.322 124.375,215.602 124.379,215.105 124.283 C 214.607 124.187,214.920 124.105,215.800 124.101 C 216.680 124.096,217.087 124.175,216.705 124.275 M265.082 131.700 C 264.987 132.195,264.909 131.790,264.909 130.800 C 264.909 129.810,264.987 129.405,265.082 129.900 C 265.178 130.395,265.178 131.205,265.082 131.700 M374.276 176.300 C 374.175 176.685,374.093 176.370,374.093 175.600 C 374.093 174.830,374.175 174.515,374.276 174.900 C 374.376 175.285,374.376 175.915,374.276 176.300 M278.295 184.500 C 278.214 185.655,278.148 184.710,278.148 182.400 C 278.148 180.090,278.214 179.145,278.295 180.300 C 278.376 181.455,278.376 183.345,278.295 184.500 M119.476 190.300 C 119.375 190.685,119.293 190.370,119.293 189.600 C 119.293 188.830,119.375 188.515,119.476 188.900 C 119.576 189.285,119.576 189.915,119.476 190.300 M133.800 224.000 C 135.106 225.320,136.085 226.400,135.975 226.400 C 135.865 226.400,134.706 225.320,133.400 224.000 C 132.094 222.680,131.115 221.600,131.225 221.600 C 131.335 221.600,132.494 222.680,133.800 224.000 M140.800 254.200 C 141.995 255.410,142.883 256.400,142.773 256.400 C 142.663 256.400,141.595 255.410,140.400 254.200 C 139.205 252.990,138.317 252.000,138.427 252.000 C 138.537 252.000,139.605 252.990,140.800 254.200 M219.483 271.695 C 219.387 272.193,219.305 271.880,219.301 271.000 C 219.296 270.120,219.375 269.713,219.475 270.095 C 219.575 270.478,219.579 271.198,219.483 271.695 M219.498 282.881 C 219.424 284.706,219.362 283.320,219.362 279.800 C 219.361 276.280,219.422 274.786,219.497 276.481 C 219.572 278.176,219.572 281.056,219.498 282.881 M197.883 293.695 C 197.787 294.193,197.705 293.880,197.701 293.000 C 197.696 292.120,197.775 291.713,197.875 292.095 C 197.975 292.478,197.979 293.198,197.883 293.695 M206.600 310.000 C 207.459 310.880,208.072 311.600,207.962 311.600 C 207.852 311.600,207.059 310.880,206.200 310.000 C 205.341 309.120,204.728 308.400,204.838 308.400 C 204.948 308.400,205.741 309.120,206.600 310.000 " stroke="none" fill="#ffffff" fill-rule="evenodd"></path><path id="path1" d="M318.200 71.200 C 319.059 72.080,319.852 72.800,319.962 72.800 C 320.072 72.800,319.459 72.080,318.600 71.200 C 317.741 70.320,316.948 69.600,316.838 69.600 C 316.728 69.600,317.341 70.320,318.200 71.200 M328.600 81.600 C 329.459 82.480,330.252 83.200,330.362 83.200 C 330.472 83.200,329.859 82.480,329.000 81.600 C 328.141 80.720,327.348 80.000,327.238 80.000 C 327.128 80.000,327.741 80.720,328.600 81.600 M195.500 123.498 C 197.755 123.570,201.445 123.570,203.700 123.498 C 205.955 123.427,204.110 123.369,199.600 123.369 C 195.090 123.369,193.245 123.427,195.500 123.498 M182.705 124.283 C 183.202 124.379,183.922 124.375,184.305 124.275 C 184.687 124.175,184.280 124.096,183.400 124.101 C 182.520 124.105,182.207 124.187,182.705 124.283 M215.105 124.283 C 215.602 124.379,216.322 124.375,216.705 124.275 C 217.087 124.175,216.680 124.096,215.800 124.101 C 214.920 124.105,214.607 124.187,215.105 124.283 M264.909 130.800 C 264.909 131.790,264.987 132.195,265.082 131.700 C 265.178 131.205,265.178 130.395,265.082 129.900 C 264.987 129.405,264.909 129.810,264.909 130.800 M374.093 175.600 C 374.093 176.370,374.175 176.685,374.276 176.300 C 374.376 175.915,374.376 175.285,374.276 174.900 C 374.175 174.515,374.093 174.830,374.093 175.600 M278.148 182.400 C 278.148 184.710,278.214 185.655,278.295 184.500 C 278.376 183.345,278.376 181.455,278.295 180.300 C 278.214 179.145,278.148 180.090,278.148 182.400 M119.293 189.600 C 119.293 190.370,119.375 190.685,119.476 190.300 C 119.576 189.915,119.576 189.285,119.476 188.900 C 119.375 188.515,119.293 188.830,119.293 189.600 M133.400 224.000 C 134.706 225.320,135.865 226.400,135.975 226.400 C 136.085 226.400,135.106 225.320,133.800 224.000 C 132.494 222.680,131.335 221.600,131.225 221.600 C 131.115 221.600,132.094 222.680,133.400 224.000 M140.400 254.200 C 141.595 255.410,142.663 256.400,142.773 256.400 C 142.883 256.400,141.995 255.410,140.800 254.200 C 139.605 252.990,138.537 252.000,138.427 252.000 C 138.317 252.000,139.205 252.990,140.400 254.200 M219.301 271.000 C 219.305 271.880,219.387 272.193,219.483 271.695 C 219.579 271.198,219.575 270.478,219.475 270.095 C 219.375 269.713,219.296 270.120,219.301 271.000 M219.362 279.800 C 219.362 283.320,219.424 284.706,219.498 282.881 C 219.572 281.056,219.572 278.176,219.497 276.481 C 219.422 274.786,219.361 276.280,219.362 279.800 M197.701 293.000 C 197.705 293.880,197.787 294.193,197.883 293.695 C 197.979 293.198,197.975 292.478,197.875 292.095 C 197.775 291.713,197.696 292.120,197.701 293.000 M206.200 310.000 C 207.059 310.880,207.852 311.600,207.962 311.600 C 208.072 311.600,207.459 310.880,206.600 310.000 C 205.741 309.120,204.948 308.400,204.838 308.400 C 204.728 308.400,205.341 309.120,206.200 310.000 " stroke="none" fill="#fffff" fill-rule="evenodd"></path><path id="path2" d="M318.200 71.200 C 319.059 72.080,319.852 72.800,319.962 72.800 C 320.072 72.800,319.459 72.080,318.600 71.200 C 317.741 70.320,316.948 69.600,316.838 69.600 C 316.728 69.600,317.341 70.320,318.200 71.200 M328.600 81.600 C 329.459 82.480,330.252 83.200,330.362 83.200 C 330.472 83.200,329.859 82.480,329.000 81.600 C 328.141 80.720,327.348 80.000,327.238 80.000 C 327.128 80.000,327.741 80.720,328.600 81.600 M195.500 123.498 C 197.755 123.570,201.445 123.570,203.700 123.498 C 205.955 123.427,204.110 123.369,199.600 123.369 C 195.090 123.369,193.245 123.427,195.500 123.498 M182.705 124.283 C 183.202 124.379,183.922 124.375,184.305 124.275 C 184.687 124.175,184.280 124.096,183.400 124.101 C 182.520 124.105,182.207 124.187,182.705 124.283 M215.105 124.283 C 215.602 124.379,216.322 124.375,216.705 124.275 C 217.087 124.175,216.680 124.096,215.800 124.101 C 214.920 124.105,214.607 124.187,215.105 124.283 M264.909 130.800 C 264.909 131.790,264.987 132.195,265.082 131.700 C 265.178 131.205,265.178 130.395,265.082 129.900 C 264.987 129.405,264.909 129.810,264.909 130.800 M374.093 175.600 C 374.093 176.370,374.175 176.685,374.276 176.300 C 374.376 175.915,374.376 175.285,374.276 174.900 C 374.175 174.515,374.093 174.830,374.093 175.600 M278.148 182.400 C 278.148 184.710,278.214 185.655,278.295 184.500 C 278.376 183.345,278.376 181.455,278.295 180.300 C 278.214 179.145,278.148 180.090,278.148 182.400 M119.293 189.600 C 119.293 190.370,119.375 190.685,119.476 190.300 C 119.576 189.915,119.576 189.285,119.476 188.900 C 119.375 188.515,119.293 188.830,119.293 189.600 M133.400 224.000 C 134.706 225.320,135.865 226.400,135.975 226.400 C 136.085 226.400,135.106 225.320,133.800 224.000 C 132.494 222.680,131.335 221.600,131.225 221.600 C 131.115 221.600,132.094 222.680,133.400 224.000 M140.400 254.200 C 141.595 255.410,142.663 256.400,142.773 256.400 C 142.883 256.400,141.995 255.410,140.800 254.200 C 139.605 252.990,138.537 252.000,138.427 252.000 C 138.317 252.000,139.205 252.990,140.400 254.200 M219.301 271.000 C 219.305 271.880,219.387 272.193,219.483 271.695 C 219.579 271.198,219.575 270.478,219.475 270.095 C 219.375 269.713,219.296 270.120,219.301 271.000 M219.362 279.800 C 219.362 283.320,219.424 284.706,219.498 282.881 C 219.572 281.056,219.572 278.176,219.497 276.481 C 219.422 274.786,219.361 276.280,219.362 279.800 M197.701 293.000 C 197.705 293.880,197.787 294.193,197.883 293.695 C 197.979 293.198,197.975 292.478,197.875 292.095 C 197.775 291.713,197.696 292.120,197.701 293.000 M206.200 310.000 C 207.059 310.880,207.852 311.600,207.962 311.600 C 208.072 311.600,207.459 310.880,206.600 310.000 C 205.741 309.120,204.948 308.400,204.838 308.400 C 204.728 308.400,205.341 309.120,206.200 310.000 " stroke="none" fill="#ffffff" fill-rule="evenodd"></path><path id="path3" d="M318.200 71.200 C 319.059 72.080,319.852 72.800,319.962 72.800 C 320.072 72.800,319.459 72.080,318.600 71.200 C 317.741 70.320,316.948 69.600,316.838 69.600 C 316.728 69.600,317.341 70.320,318.200 71.200 M328.600 81.600 C 329.459 82.480,330.252 83.200,330.362 83.200 C 330.472 83.200,329.859 82.480,329.000 81.600 C 328.141 80.720,327.348 80.000,327.238 80.000 C 327.128 80.000,327.741 80.720,328.600 81.600 M195.500 123.498 C 197.755 123.570,201.445 123.570,203.700 123.498 C 205.955 123.427,204.110 123.369,199.600 123.369 C 195.090 123.369,193.245 123.427,195.500 123.498 M182.705 124.283 C 183.202 124.379,183.922 124.375,184.305 124.275 C 184.687 124.175,184.280 124.096,183.400 124.101 C 182.520 124.105,182.207 124.187,182.705 124.283 M215.105 124.283 C 215.602 124.379,216.322 124.375,216.705 124.275 C 217.087 124.175,216.680 124.096,215.800 124.101 C 214.920 124.105,214.607 124.187,215.105 124.283 M264.909 130.800 C 264.909 131.790,264.987 132.195,265.082 131.700 C 265.178 131.205,265.178 130.395,265.082 129.900 C 264.987 129.405,264.909 129.810,264.909 130.800 M374.093 175.600 C 374.093 176.370,374.175 176.685,374.276 176.300 C 374.376 175.915,374.376 175.285,374.276 174.900 C 374.175 174.515,374.093 174.830,374.093 175.600 M278.148 182.400 C 278.148 184.710,278.214 185.655,278.295 184.500 C 278.376 183.345,278.376 181.455,278.295 180.300 C 278.214 179.145,278.148 180.090,278.148 182.400 M119.293 189.600 C 119.293 190.370,119.375 190.685,119.476 190.300 C 119.576 189.915,119.576 189.285,119.476 188.900 C 119.375 188.515,119.293 188.830,119.293 189.600 M133.400 224.000 C 134.706 225.320,135.865 226.400,135.975 226.400 C 136.085 226.400,135.106 225.320,133.800 224.000 C 132.494 222.680,131.335 221.600,131.225 221.600 C 131.115 221.600,132.094 222.680,133.400 224.000 M140.400 254.200 C 141.595 255.410,142.663 256.400,142.773 256.400 C 142.883 256.400,141.995 255.410,140.800 254.200 C 139.605 252.990,138.537 252.000,138.427 252.000 C 138.317 252.000,139.205 252.990,140.400 254.200 M219.301 271.000 C 219.305 271.880,219.387 272.193,219.483 271.695 C 219.579 271.198,219.575 270.478,219.475 270.095 C 219.375 269.713,219.296 270.120,219.301 271.000 M219.362 279.800 C 219.362 283.320,219.424 284.706,219.498 282.881 C 219.572 281.056,219.572 278.176,219.497 276.481 C 219.422 274.786,219.361 276.280,219.362 279.800 M197.701 293.000 C 197.705 293.880,197.787 294.193,197.883 293.695 C 197.979 293.198,197.975 292.478,197.875 292.095 C 197.775 291.713,197.696 292.120,197.701 293.000 M206.200 310.000 C 207.059 310.880,207.852 311.600,207.962 311.600 C 208.072 311.600,207.459 310.880,206.600 310.000 C 205.741 309.120,204.948 308.400,204.838 308.400 C 204.728 308.400,205.341 309.120,206.200 310.000 " stroke="none" fill="#ffffff" fill-rule="evenodd"></path><path id="path4" d="M318.200 71.200 C 319.059 72.080,319.852 72.800,319.962 72.800 C 320.072 72.800,319.459 72.080,318.600 71.200 C 317.741 70.320,316.948 69.600,316.838 69.600 C 316.728 69.600,317.341 70.320,318.200 71.200 M328.600 81.600 C 329.459 82.480,330.252 83.200,330.362 83.200 C 330.472 83.200,329.859 82.480,329.000 81.600 C 328.141 80.720,327.348 80.000,327.238 80.000 C 327.128 80.000,327.741 80.720,328.600 81.600 M195.500 123.498 C 197.755 123.570,201.445 123.570,203.700 123.498 C 205.955 123.427,204.110 123.369,199.600 123.369 C 195.090 123.369,193.245 123.427,195.500 123.498 M182.705 124.283 C 183.202 124.379,183.922 124.375,184.305 124.275 C 184.687 124.175,184.280 124.096,183.400 124.101 C 182.520 124.105,182.207 124.187,182.705 124.283 M215.105 124.283 C 215.602 124.379,216.322 124.375,216.705 124.275 C 217.087 124.175,216.680 124.096,215.800 124.101 C 214.920 124.105,214.607 124.187,215.105 124.283 M264.909 130.800 C 264.909 131.790,264.987 132.195,265.082 131.700 C 265.178 131.205,265.178 130.395,265.082 129.900 C 264.987 129.405,264.909 129.810,264.909 130.800 M374.093 175.600 C 374.093 176.370,374.175 176.685,374.276 176.300 C 374.376 175.915,374.376 175.285,374.276 174.900 C 374.175 174.515,374.093 174.830,374.093 175.600 M278.148 182.400 C 278.148 184.710,278.214 185.655,278.295 184.500 C 278.376 183.345,278.376 181.455,278.295 180.300 C 278.214 179.145,278.148 180.090,278.148 182.400 M119.293 189.600 C 119.293 190.370,119.375 190.685,119.476 190.300 C 119.576 189.915,119.576 189.285,119.476 188.900 C 119.375 188.515,119.293 188.830,119.293 189.600 M133.400 224.000 C 134.706 225.320,135.865 226.400,135.975 226.400 C 136.085 226.400,135.106 225.320,133.800 224.000 C 132.494 222.680,131.335 221.600,131.225 221.600 C 131.115 221.600,132.094 222.680,133.400 224.000 M140.400 254.200 C 141.595 255.410,142.663 256.400,142.773 256.400 C 142.883 256.400,141.995 255.410,140.800 254.200 C 139.605 252.990,138.537 252.000,138.427 252.000 C 138.317 252.000,139.205 252.990,140.400 254.200 M219.301 271.000 C 219.305 271.880,219.387 272.193,219.483 271.695 C 219.579 271.198,219.575 270.478,219.475 270.095 C 219.375 269.713,219.296 270.120,219.301 271.000 M219.362 279.800 C 219.362 283.320,219.424 284.706,219.498 282.881 C 219.572 281.056,219.572 278.176,219.497 276.481 C 219.422 274.786,219.361 276.280,219.362 279.800 M197.701 293.000 C 197.705 293.880,197.787 294.193,197.883 293.695 C 197.979 293.198,197.975 292.478,197.875 292.095 C 197.775 291.713,197.696 292.120,197.701 293.000 M206.200 310.000 C 207.059 310.880,207.852 311.600,207.962 311.600 C 208.072 311.600,207.459 310.880,206.600 310.000 C 205.741 309.120,204.948 308.400,204.838 308.400 C 204.728 308.400,205.341 309.120,206.200 310.000 " stroke="none" fill="#ffffff" fill-rule="evenodd"></path></g></svg>