<svg id="svg" version="1.1" width="400" height="400" xmlns="http://www.w3.org/2000/svg" xmlns:xlink="http://www.w3.org/1999/xlink" style="display: block;"><g id="svgg"><path id="path0" d="M182.116 23.600 C 181.920 24.350,181.570 24.400,176.553 24.400 C 172.273 24.400,171.200 24.510,171.200 24.951 C 171.200 25.366,170.299 25.545,167.549 25.677 C 164.727 25.812,163.786 26.004,163.405 26.526 C 163.030 27.038,162.289 27.200,160.318 27.200 C 158.232 27.200,157.582 27.357,157.000 28.000 C 156.451 28.607,155.768 28.800,154.171 28.800 C 151.696 28.800,150.800 29.077,150.800 29.843 C 150.800 30.253,150.208 30.400,148.563 30.400 C 146.662 30.400,146.294 30.520,146.116 31.200 C 145.939 31.875,145.570 32.000,143.753 32.000 C 141.867 32.000,141.600 32.099,141.600 32.800 C 141.600 33.505,141.333 33.600,139.363 33.600 C 137.462 33.600,137.094 33.720,136.916 34.400 C 136.752 35.027,136.370 35.200,135.153 35.200 C 133.867 35.200,133.600 35.337,133.600 36.000 C 133.600 36.695,133.333 36.800,131.563 36.800 C 129.862 36.800,129.491 36.932,129.316 37.600 C 129.152 38.227,128.770 38.400,127.553 38.400 C 126.267 38.400,126.000 38.537,126.000 39.200 C 126.000 39.867,125.733 40.000,124.400 40.000 C 123.067 40.000,122.800 40.133,122.800 40.800 C 122.800 41.467,122.533 41.600,121.200 41.600 C 120.089 41.600,119.600 41.773,119.600 42.165 C 119.600 42.512,118.984 42.834,118.000 43.000 C 117.092 43.153,116.400 43.495,116.400 43.791 C 116.400 44.077,115.770 44.429,115.000 44.574 C 114.162 44.731,113.600 45.070,113.600 45.418 C 113.600 45.738,113.246 46.000,112.814 46.000 C 112.382 46.000,111.835 46.360,111.600 46.800 C 111.320 47.324,110.762 47.600,109.986 47.600 C 109.067 47.600,108.800 47.780,108.800 48.400 C 108.800 48.979,108.533 49.200,107.833 49.200 C 106.452 49.200,105.600 49.598,105.600 50.243 C 105.600 50.549,105.240 50.800,104.800 50.800 C 104.267 50.800,104.000 51.067,104.000 51.600 C 104.000 52.252,103.733 52.400,102.563 52.400 C 101.462 52.400,101.076 52.587,100.916 53.200 C 100.800 53.643,100.370 54.000,99.953 54.000 C 99.467 54.000,99.200 54.283,99.200 54.800 C 99.200 55.428,98.933 55.600,97.963 55.600 C 97.062 55.600,96.668 55.817,96.516 56.400 C 96.396 56.860,95.970 57.200,95.516 57.200 C 95.062 57.200,94.636 57.540,94.516 58.000 C 94.401 58.440,94.052 58.800,93.741 58.800 C 93.430 58.800,93.076 59.059,92.954 59.376 C 92.833 59.692,92.208 60.066,91.567 60.207 C 90.925 60.348,90.400 60.633,90.400 60.840 C 90.400 61.048,89.950 61.422,89.400 61.673 C 88.850 61.923,88.400 62.370,88.400 62.664 C 88.400 62.959,88.040 63.200,87.600 63.200 C 87.067 63.200,86.800 63.467,86.800 64.000 C 86.800 64.533,86.533 64.800,86.000 64.800 C 85.467 64.800,85.200 65.067,85.200 65.600 C 85.200 66.133,84.933 66.400,84.400 66.400 C 83.867 66.400,83.600 66.667,83.600 67.200 C 83.600 67.711,83.333 68.000,82.862 68.000 C 82.456 68.000,81.802 68.355,81.409 68.790 C 81.016 69.224,80.358 69.686,79.947 69.817 C 79.536 69.947,79.200 70.291,79.200 70.580 C 79.200 70.870,78.840 71.201,78.400 71.316 C 77.960 71.431,77.600 71.812,77.600 72.163 C 77.600 72.533,77.265 72.800,76.800 72.800 C 76.267 72.800,76.000 73.067,76.000 73.600 C 76.000 74.133,75.733 74.400,75.200 74.400 C 74.667 74.400,74.400 74.667,74.400 75.200 C 74.400 75.733,74.133 76.000,73.600 76.000 C 73.083 76.000,72.800 76.267,72.800 76.753 C 72.800 77.170,72.443 77.600,72.000 77.716 C 71.560 77.831,71.200 78.212,71.200 78.563 C 71.200 78.913,70.942 79.200,70.627 79.200 C 70.312 79.200,69.947 79.536,69.817 79.947 C 69.686 80.358,69.224 81.016,68.790 81.409 C 68.355 81.802,68.000 82.456,68.000 82.862 C 68.000 83.333,67.711 83.600,67.200 83.600 C 66.667 83.600,66.400 83.867,66.400 84.400 C 66.400 84.933,66.133 85.200,65.600 85.200 C 65.067 85.200,64.800 85.467,64.800 86.000 C 64.800 86.533,64.533 86.800,64.000 86.800 C 63.467 86.800,63.200 87.067,63.200 87.600 C 63.200 88.040,62.959 88.400,62.664 88.400 C 62.370 88.400,61.923 88.850,61.673 89.400 C 61.422 89.950,61.048 90.400,60.840 90.400 C 60.633 90.400,60.348 90.925,60.207 91.567 C 60.066 92.208,59.692 92.833,59.376 92.954 C 59.059 93.076,58.800 93.430,58.800 93.741 C 58.800 94.052,58.440 94.401,58.000 94.516 C 57.540 94.636,57.200 95.062,57.200 95.516 C 57.200 95.970,56.860 96.396,56.400 96.516 C 55.817 96.668,55.600 97.062,55.600 97.963 C 55.600 98.933,55.428 99.200,54.800 99.200 C 54.283 99.200,54.000 99.467,54.000 99.953 C 54.000 100.370,53.643 100.800,53.200 100.916 C 52.587 101.076,52.400 101.462,52.400 102.563 C 52.400 103.733,52.252 104.000,51.600 104.000 C 51.067 104.000,50.800 104.267,50.800 104.800 C 50.800 105.240,50.549 105.600,50.243 105.600 C 49.598 105.600,49.200 106.452,49.200 107.833 C 49.200 108.533,48.979 108.800,48.400 108.800 C 47.780 108.800,47.600 109.067,47.600 109.986 C 47.600 110.762,47.324 111.320,46.800 111.600 C 46.360 111.835,46.000 112.382,46.000 112.814 C 46.000 113.246,45.738 113.600,45.418 113.600 C 45.070 113.600,44.731 114.162,44.574 115.000 C 44.429 115.770,44.077 116.400,43.791 116.400 C 43.495 116.400,43.153 117.092,43.000 118.000 C 42.834 118.984,42.512 119.600,42.165 119.600 C 41.773 119.600,41.600 120.089,41.600 121.200 C 41.600 122.533,41.467 122.800,40.800 122.800 C 40.133 122.800,40.000 123.067,40.000 124.400 C 40.000 125.733,39.867 126.000,39.200 126.000 C 38.537 126.000,38.400 126.267,38.400 127.553 C 38.400 128.770,38.227 129.152,37.600 129.316 C 36.932 129.491,36.800 129.862,36.800 131.563 C 36.800 133.333,36.695 133.600,36.000 133.600 C 35.337 133.600,35.200 133.867,35.200 135.153 C 35.200 136.370,35.027 136.752,34.400 136.916 C 33.720 137.094,33.600 137.462,33.600 139.363 C 33.600 141.333,33.505 141.600,32.800 141.600 C 32.099 141.600,32.000 141.867,32.000 143.753 C 32.000 145.570,31.875 145.939,31.200 146.116 C 30.520 146.294,30.400 146.662,30.400 148.563 C 30.400 150.208,30.253 150.800,29.843 150.800 C 29.088 150.800,28.800 151.692,28.800 154.033 C 28.800 155.115,28.649 156.000,28.464 156.000 C 27.792 156.000,27.200 158.095,27.200 160.475 C 27.200 162.299,27.030 163.036,26.526 163.405 C 26.004 163.786,25.812 164.727,25.677 167.549 C 25.545 170.299,25.366 171.200,24.951 171.200 C 24.510 171.200,24.400 172.273,24.400 176.553 C 24.400 181.570,24.350 181.920,23.600 182.116 C 22.341 182.445,22.341 223.555,23.600 223.884 C 24.349 224.080,24.400 224.430,24.400 229.404 C 24.400 233.755,24.508 234.756,25.000 234.945 C 25.437 235.112,25.601 235.804,25.604 237.487 C 25.611 240.788,26.008 242.800,26.652 242.800 C 27.059 242.800,27.200 243.461,27.200 245.367 C 27.200 248.292,27.447 249.200,28.243 249.200 C 28.648 249.200,28.801 249.774,28.805 251.300 C 28.812 253.961,29.143 255.200,29.847 255.200 C 30.252 255.200,30.400 255.799,30.400 257.437 C 30.400 259.338,30.520 259.706,31.200 259.884 C 31.877 260.061,32.000 260.430,32.000 262.284 C 32.000 264.138,32.123 264.507,32.800 264.684 C 33.384 264.837,33.601 265.232,33.605 266.147 C 33.614 268.003,34.022 269.200,34.647 269.200 C 35.024 269.200,35.200 269.700,35.200 270.773 C 35.200 271.995,35.379 272.403,36.000 272.600 C 36.581 272.784,36.800 273.205,36.800 274.139 C 36.800 274.965,37.086 275.629,37.600 276.000 C 38.182 276.420,38.400 277.035,38.400 278.261 C 38.400 279.595,38.567 279.999,39.200 280.200 C 39.801 280.391,40.000 280.805,40.000 281.864 C 40.000 282.938,40.191 283.325,40.800 283.484 C 41.395 283.640,41.600 284.030,41.600 285.004 C 41.600 285.778,41.837 286.405,42.178 286.536 C 42.496 286.658,42.876 287.397,43.022 288.179 C 43.176 288.997,43.525 289.600,43.845 289.600 C 44.150 289.600,44.400 289.917,44.400 290.304 C 44.400 290.691,44.760 291.232,45.200 291.507 C 45.710 291.826,46.000 292.440,46.000 293.203 C 46.000 294.133,46.178 294.400,46.800 294.400 C 47.452 294.400,47.600 294.667,47.600 295.837 C 47.600 296.938,47.787 297.324,48.400 297.484 C 48.840 297.599,49.200 297.989,49.200 298.350 C 49.200 298.712,49.560 299.232,50.000 299.507 C 50.465 299.797,50.800 300.440,50.800 301.041 C 50.800 301.738,51.060 302.143,51.600 302.284 C 52.040 302.399,52.400 302.818,52.400 303.214 C 52.400 304.362,52.840 305.200,53.443 305.200 C 53.749 305.200,54.000 305.560,54.000 306.000 C 54.000 306.452,54.267 306.800,54.613 306.800 C 54.949 306.800,55.342 307.115,55.485 307.500 C 55.628 307.885,56.072 308.491,56.472 308.847 C 56.873 309.203,57.200 309.968,57.200 310.547 C 57.200 311.333,57.403 311.600,58.000 311.600 C 58.533 311.600,58.800 311.867,58.800 312.400 C 58.800 312.844,59.067 313.200,59.400 313.200 C 59.730 313.200,60.000 313.487,60.000 313.837 C 60.000 314.188,60.343 314.565,60.762 314.674 C 61.248 314.801,61.618 315.368,61.781 316.237 C 61.921 316.987,62.213 317.600,62.428 317.600 C 62.644 317.600,62.991 318.050,63.200 318.600 C 63.409 319.150,63.855 319.600,64.190 319.600 C 64.526 319.600,64.800 319.887,64.800 320.237 C 64.800 320.588,65.160 320.969,65.600 321.084 C 66.040 321.199,66.400 321.559,66.400 321.884 C 66.400 322.209,66.760 322.569,67.200 322.684 C 67.640 322.799,68.000 323.130,68.000 323.420 C 68.000 323.709,68.360 324.060,68.800 324.200 C 69.240 324.340,69.600 324.712,69.600 325.027 C 69.600 325.342,69.960 325.600,70.400 325.600 C 70.845 325.600,71.200 325.867,71.200 326.201 C 71.200 326.531,71.900 327.476,72.755 328.301 C 73.610 329.125,74.521 330.214,74.779 330.719 C 75.037 331.225,75.688 331.805,76.224 332.009 C 76.761 332.213,77.200 332.655,77.200 332.990 C 77.200 333.333,77.550 333.600,78.000 333.600 C 78.533 333.600,78.800 333.867,78.800 334.400 C 78.800 334.933,79.067 335.200,79.600 335.200 C 80.133 335.200,80.400 335.467,80.400 336.000 C 80.400 336.533,80.667 336.800,81.200 336.800 C 81.665 336.800,82.000 337.067,82.000 337.437 C 82.000 337.788,82.360 338.169,82.800 338.284 C 83.240 338.399,83.600 338.759,83.600 339.084 C 83.600 339.409,83.960 339.769,84.400 339.884 C 84.840 339.999,85.200 340.342,85.200 340.647 C 85.200 340.951,85.560 341.200,86.000 341.200 C 86.533 341.200,86.800 341.467,86.800 342.000 C 86.800 342.497,87.067 342.800,87.504 342.800 C 87.891 342.800,88.432 343.160,88.707 343.600 C 89.026 344.110,89.640 344.400,90.403 344.400 C 91.333 344.400,91.600 344.578,91.600 345.200 C 91.600 345.640,91.858 346.000,92.173 346.000 C 92.488 346.000,92.860 346.360,93.000 346.800 C 93.140 347.240,93.581 347.600,93.980 347.600 C 94.380 347.600,94.801 347.960,94.916 348.400 C 95.068 348.983,95.462 349.200,96.363 349.200 C 97.333 349.200,97.600 349.372,97.600 350.000 C 97.600 350.517,97.867 350.800,98.353 350.800 C 98.770 350.800,99.200 351.157,99.316 351.600 C 99.457 352.140,99.862 352.400,100.559 352.400 C 101.160 352.400,101.803 352.735,102.093 353.200 C 102.368 353.640,102.909 354.000,103.296 354.000 C 103.683 354.000,104.000 354.251,104.000 354.557 C 104.000 355.202,104.852 355.600,106.233 355.600 C 106.851 355.600,107.200 355.830,107.200 356.237 C 107.200 356.588,107.560 356.969,108.000 357.084 C 108.440 357.199,108.800 357.542,108.800 357.847 C 108.800 358.209,109.268 358.400,110.153 358.400 C 111.170 358.400,111.559 358.599,111.716 359.200 C 111.876 359.813,112.262 360.000,113.363 360.000 C 114.533 360.000,114.800 360.148,114.800 360.800 C 114.800 361.333,115.067 361.600,115.600 361.600 C 116.040 361.600,116.760 361.960,117.200 362.400 C 117.640 362.840,118.450 363.200,119.000 363.200 C 119.597 363.200,120.000 363.429,120.000 363.768 C 120.000 364.081,120.558 364.459,121.241 364.609 C 121.923 364.759,122.823 365.223,123.241 365.641 C 123.694 366.094,124.558 366.400,125.386 366.400 C 126.362 366.400,126.898 366.636,127.200 367.200 C 127.497 367.755,128.038 368.000,128.967 368.000 C 129.970 368.000,130.359 368.201,130.516 368.800 C 130.676 369.413,131.062 369.600,132.163 369.600 C 133.120 369.600,133.600 369.785,133.600 370.153 C 133.600 370.800,134.809 371.187,136.853 371.195 C 137.968 371.199,138.355 371.387,138.516 372.000 C 138.674 372.606,139.062 372.800,140.114 372.800 C 140.877 372.800,141.723 373.066,141.993 373.392 C 142.263 373.717,143.354 374.099,144.418 374.240 C 145.492 374.383,146.446 374.742,146.563 375.048 C 146.715 375.445,147.566 375.600,149.587 375.600 C 152.133 375.600,152.400 375.676,152.400 376.400 C 152.400 377.111,152.667 377.200,154.800 377.200 C 156.585 377.200,157.200 377.343,157.200 377.757 C 157.200 378.564,158.112 378.800,161.229 378.800 C 163.560 378.800,164.072 378.925,164.493 379.600 C 164.936 380.310,165.426 380.400,168.850 380.400 C 172.370 380.400,172.725 380.470,172.916 381.200 C 173.113 381.955,173.462 382.000,179.163 382.000 C 184.056 382.000,185.200 382.106,185.200 382.557 C 185.200 383.542,186.194 383.600,203.000 383.600 C 219.806 383.600,220.800 383.542,220.800 382.557 C 220.800 382.106,221.936 382.000,226.786 382.000 C 232.362 382.000,232.801 381.945,233.200 381.200 C 233.582 380.487,234.038 380.400,237.414 380.400 C 240.933 380.400,241.200 380.344,241.200 379.600 C 241.200 378.869,241.467 378.800,244.304 378.800 C 246.974 378.800,247.477 378.688,247.907 378.000 C 248.325 377.332,248.840 377.200,251.041 377.200 C 253.338 377.200,253.702 377.098,253.884 376.400 C 254.060 375.727,254.430 375.600,256.213 375.600 C 257.418 375.600,258.398 375.407,258.482 375.154 C 258.564 374.908,259.571 374.559,260.721 374.377 C 261.870 374.195,263.091 373.766,263.434 373.423 C 263.777 373.080,264.660 372.800,265.396 372.800 C 267.131 372.800,268.000 372.452,268.000 371.757 C 268.000 371.374,268.499 371.200,269.600 371.200 C 270.667 371.200,271.467 370.933,272.000 370.400 C 272.495 369.905,273.333 369.600,274.200 369.600 C 275.333 369.600,275.600 369.448,275.600 368.800 C 275.600 368.133,275.867 368.000,277.200 368.000 C 278.533 368.000,278.800 367.867,278.800 367.200 C 278.800 366.542,279.067 366.400,280.304 366.400 C 281.374 366.400,281.951 366.170,282.307 365.600 C 282.626 365.090,283.240 364.800,284.003 364.800 C 284.933 364.800,285.200 364.622,285.200 364.000 C 285.200 363.333,285.467 363.200,286.800 363.200 C 288.133 363.200,288.400 363.067,288.400 362.400 C 288.400 361.752,288.667 361.600,289.800 361.600 C 290.933 361.600,291.200 361.448,291.200 360.800 C 291.200 360.133,291.467 360.000,292.800 360.000 C 294.133 360.000,294.400 359.867,294.400 359.200 C 294.400 358.576,294.667 358.400,295.613 358.400 C 296.287 358.400,296.921 358.150,297.041 357.836 C 297.161 357.526,297.695 357.163,298.229 357.028 C 298.763 356.894,299.200 356.538,299.200 356.237 C 299.200 355.928,299.807 355.575,300.589 355.428 C 301.353 355.285,302.118 354.936,302.289 354.654 C 302.460 354.371,302.915 354.024,303.300 353.882 C 303.685 353.741,304.000 353.349,304.000 353.013 C 304.000 352.675,304.345 352.400,304.767 352.400 C 305.959 352.400,306.800 351.969,306.800 351.357 C 306.800 351.051,307.160 350.800,307.600 350.800 C 308.133 350.800,308.400 350.533,308.400 350.000 C 308.400 349.467,308.667 349.200,309.200 349.200 C 309.640 349.200,310.360 348.840,310.800 348.400 C 311.240 347.960,311.960 347.600,312.400 347.600 C 312.933 347.600,313.200 347.333,313.200 346.800 C 313.200 346.267,313.467 346.000,314.000 346.000 C 314.533 346.000,314.800 345.733,314.800 345.200 C 314.800 344.667,315.067 344.400,315.600 344.400 C 316.133 344.400,316.400 344.133,316.400 343.600 C 316.400 342.980,316.667 342.800,317.586 342.800 C 318.362 342.800,318.920 342.524,319.200 342.000 C 319.435 341.560,319.796 341.200,320.001 341.200 C 320.206 341.200,321.003 340.570,321.773 339.800 C 322.543 339.030,323.359 338.400,323.587 338.400 C 323.814 338.400,324.000 338.040,324.000 337.600 C 324.000 337.067,324.267 336.800,324.800 336.800 C 325.333 336.800,325.600 336.533,325.600 336.000 C 325.600 335.467,325.867 335.200,326.400 335.200 C 326.933 335.200,327.200 334.933,327.200 334.400 C 327.200 333.867,327.467 333.600,328.000 333.600 C 328.533 333.600,328.800 333.333,328.800 332.800 C 328.800 332.267,329.067 332.000,329.600 332.000 C 330.133 332.000,330.400 331.733,330.400 331.200 C 330.400 330.667,330.667 330.400,331.200 330.400 C 331.733 330.400,332.000 330.133,332.000 329.600 C 332.000 329.067,332.267 328.800,332.800 328.800 C 333.333 328.800,333.600 328.533,333.600 328.000 C 333.600 327.467,333.867 327.200,334.400 327.200 C 334.933 327.200,335.200 326.933,335.200 326.400 C 335.200 325.867,335.467 325.600,336.000 325.600 C 336.533 325.600,336.800 325.333,336.800 324.800 C 336.800 324.267,337.067 324.000,337.600 324.000 C 338.040 324.000,338.400 323.814,338.400 323.587 C 338.400 323.359,339.030 322.543,339.800 321.773 C 340.570 321.003,341.200 320.206,341.200 320.001 C 341.200 319.796,341.560 319.435,342.000 319.200 C 342.524 318.920,342.800 318.362,342.800 317.586 C 342.800 316.667,342.980 316.400,343.600 316.400 C 344.133 316.400,344.400 316.133,344.400 315.600 C 344.400 315.067,344.667 314.800,345.200 314.800 C 345.733 314.800,346.000 314.533,346.000 314.000 C 346.000 313.467,346.267 313.200,346.800 313.200 C 347.333 313.200,347.600 312.933,347.600 312.400 C 347.600 311.960,347.960 311.240,348.400 310.800 C 348.840 310.360,349.200 309.640,349.200 309.200 C 349.200 308.667,349.467 308.400,350.000 308.400 C 350.533 308.400,350.800 308.133,350.800 307.600 C 350.800 307.160,351.051 306.800,351.357 306.800 C 351.969 306.800,352.400 305.959,352.400 304.767 C 352.400 304.332,352.676 304.000,353.037 304.000 C 353.388 304.000,353.766 303.652,353.877 303.228 C 353.988 302.803,354.321 302.362,354.617 302.249 C 354.914 302.135,355.276 301.403,355.422 300.621 C 355.574 299.814,355.926 299.200,356.237 299.200 C 356.538 299.200,356.894 298.763,357.028 298.229 C 357.163 297.695,357.526 297.161,357.836 297.041 C 358.150 296.921,358.400 296.287,358.400 295.613 C 358.400 294.667,358.576 294.400,359.200 294.400 C 359.867 294.400,360.000 294.133,360.000 292.800 C 360.000 291.467,360.133 291.200,360.800 291.200 C 361.448 291.200,361.600 290.933,361.600 289.800 C 361.600 288.667,361.752 288.400,362.400 288.400 C 363.067 288.400,363.200 288.133,363.200 286.800 C 363.200 285.467,363.333 285.200,364.000 285.200 C 364.622 285.200,364.800 284.933,364.800 284.003 C 364.800 283.240,365.090 282.626,365.600 282.307 C 366.170 281.951,366.400 281.374,366.400 280.304 C 366.400 279.067,366.542 278.800,367.200 278.800 C 367.863 278.800,368.000 278.533,368.000 277.247 C 368.000 276.030,368.173 275.648,368.800 275.484 C 369.383 275.332,369.600 274.938,369.600 274.037 C 369.600 273.333,369.945 272.455,370.400 272.000 C 370.933 271.467,371.200 270.667,371.200 269.600 C 371.200 268.499,371.374 268.000,371.757 268.000 C 372.452 268.000,372.800 267.131,372.800 265.396 C 372.800 264.660,373.080 263.777,373.423 263.434 C 373.766 263.091,374.195 261.870,374.377 260.721 C 374.559 259.571,374.908 258.564,375.154 258.482 C 375.407 258.398,375.600 257.418,375.600 256.213 C 375.600 254.430,375.727 254.060,376.400 253.884 C 377.098 253.702,377.200 253.338,377.200 251.041 C 377.200 248.840,377.332 248.325,378.000 247.907 C 378.688 247.477,378.800 246.974,378.800 244.304 C 378.800 241.467,378.869 241.200,379.600 241.200 C 380.344 241.200,380.400 240.933,380.400 237.414 C 380.400 234.038,380.487 233.582,381.200 233.200 C 381.945 232.801,382.000 232.362,382.000 226.786 C 382.000 221.936,382.106 220.800,382.557 220.800 C 383.542 220.800,383.600 219.806,383.600 203.000 C 383.600 186.194,383.542 185.200,382.557 185.200 C 382.106 185.200,382.000 184.056,382.000 179.163 C 382.000 173.462,381.955 173.113,381.200 172.916 C 380.470 172.725,380.400 172.370,380.400 168.850 C 380.400 165.426,380.310 164.936,379.600 164.493 C 378.925 164.072,378.800 163.560,378.800 161.229 C 378.800 158.112,378.564 157.200,377.757 157.200 C 377.343 157.200,377.200 156.585,377.200 154.800 C 377.200 152.667,377.111 152.400,376.400 152.400 C 375.676 152.400,375.600 152.133,375.600 149.587 C 375.600 147.566,375.445 146.715,375.048 146.563 C 374.742 146.446,374.383 145.492,374.240 144.418 C 374.099 143.354,373.717 142.263,373.392 141.993 C 373.066 141.723,372.800 140.877,372.800 140.114 C 372.800 139.062,372.606 138.674,372.000 138.516 C 371.387 138.355,371.199 137.968,371.195 136.853 C 371.187 134.809,370.800 133.600,370.153 133.600 C 369.785 133.600,369.600 133.120,369.600 132.163 C 369.600 131.062,369.413 130.676,368.800 130.516 C 368.201 130.359,368.000 129.970,368.000 128.967 C 368.000 128.038,367.755 127.497,367.200 127.200 C 366.636 126.898,366.400 126.362,366.400 125.386 C 366.400 124.558,366.094 123.694,365.641 123.241 C 365.223 122.823,364.759 121.923,364.609 121.241 C 364.459 120.558,364.081 120.000,363.768 120.000 C 363.445 120.000,363.200 119.610,363.200 119.096 C 363.200 118.599,362.840 117.968,362.400 117.693 C 361.890 117.374,361.600 116.760,361.600 115.997 C 361.600 115.067,361.422 114.800,360.800 114.800 C 360.148 114.800,360.000 114.533,360.000 113.363 C 360.000 112.262,359.813 111.876,359.200 111.716 C 358.599 111.559,358.400 111.170,358.400 110.153 C 358.400 109.268,358.209 108.800,357.847 108.800 C 357.542 108.800,357.199 108.440,357.084 108.000 C 356.969 107.560,356.588 107.200,356.237 107.200 C 355.830 107.200,355.600 106.851,355.600 106.233 C 355.600 104.852,355.202 104.000,354.557 104.000 C 354.251 104.000,354.000 103.683,354.000 103.296 C 354.000 102.909,353.640 102.368,353.200 102.093 C 352.735 101.803,352.400 101.160,352.400 100.559 C 352.400 99.862,352.140 99.457,351.600 99.316 C 351.157 99.200,350.800 98.770,350.800 98.353 C 350.800 97.867,350.517 97.600,350.000 97.600 C 349.372 97.600,349.200 97.333,349.200 96.363 C 349.200 95.462,348.983 95.068,348.400 94.916 C 347.960 94.801,347.600 94.380,347.600 93.980 C 347.600 93.581,347.240 93.140,346.800 93.000 C 346.360 92.860,346.000 92.488,346.000 92.173 C 346.000 91.858,345.640 91.600,345.200 91.600 C 344.578 91.600,344.400 91.333,344.400 90.403 C 344.400 89.640,344.110 89.026,343.600 88.707 C 343.160 88.432,342.800 87.891,342.800 87.504 C 342.800 87.067,342.497 86.800,342.000 86.800 C 341.467 86.800,341.200 86.533,341.200 86.000 C 341.200 85.560,340.951 85.200,340.647 85.200 C 340.342 85.200,339.999 84.840,339.884 84.400 C 339.769 83.960,339.409 83.600,339.084 83.600 C 338.759 83.600,338.399 83.240,338.284 82.800 C 338.169 82.360,337.788 82.000,337.437 82.000 C 337.067 82.000,336.800 81.665,336.800 81.200 C 336.800 80.667,336.533 80.400,336.000 80.400 C 335.467 80.400,335.200 80.133,335.200 79.600 C 335.200 79.067,334.933 78.800,334.400 78.800 C 333.867 78.800,333.600 78.533,333.600 78.000 C 333.600 77.550,333.333 77.200,332.990 77.200 C 332.655 77.200,332.213 76.761,332.009 76.224 C 331.805 75.688,331.225 75.037,330.719 74.779 C 330.214 74.521,329.125 73.610,328.301 72.755 C 327.476 71.900,326.531 71.200,326.201 71.200 C 325.867 71.200,325.600 70.845,325.600 70.400 C 325.600 69.960,325.342 69.600,325.027 69.600 C 324.712 69.600,324.340 69.240,324.200 68.800 C 324.060 68.360,323.688 68.000,323.373 68.000 C 323.058 68.000,322.800 67.713,322.800 67.363 C 322.800 67.012,322.440 66.631,322.000 66.516 C 321.560 66.401,321.200 66.041,321.200 65.716 C 321.200 65.391,320.840 65.031,320.400 64.916 C 319.960 64.801,319.600 64.453,319.600 64.143 C 319.600 63.834,319.150 63.409,318.600 63.200 C 318.050 62.991,317.600 62.644,317.600 62.428 C 317.600 62.213,316.970 61.918,316.200 61.774 C 315.348 61.614,314.800 61.279,314.800 60.918 C 314.800 60.592,314.440 60.231,314.000 60.116 C 313.560 60.001,313.200 59.658,313.200 59.353 C 313.200 59.049,312.840 58.800,312.400 58.800 C 311.867 58.800,311.600 58.533,311.600 58.000 C 311.600 57.403,311.333 57.200,310.547 57.200 C 309.968 57.200,309.203 56.873,308.847 56.472 C 308.491 56.072,307.885 55.628,307.500 55.485 C 307.115 55.342,306.800 54.949,306.800 54.613 C 306.800 54.267,306.452 54.000,306.000 54.000 C 305.560 54.000,305.200 53.749,305.200 53.443 C 305.200 52.840,304.362 52.400,303.214 52.400 C 302.818 52.400,302.399 52.040,302.284 51.600 C 302.143 51.060,301.738 50.800,301.041 50.800 C 300.440 50.800,299.797 50.465,299.507 50.000 C 299.232 49.560,298.712 49.200,298.350 49.200 C 297.989 49.200,297.599 48.840,297.484 48.400 C 297.324 47.787,296.938 47.600,295.837 47.600 C 294.667 47.600,294.400 47.452,294.400 46.800 C 294.400 46.178,294.133 46.000,293.203 46.000 C 292.440 46.000,291.826 45.710,291.507 45.200 C 291.232 44.760,290.691 44.400,290.304 44.400 C 289.917 44.400,289.600 44.150,289.600 43.845 C 289.600 43.525,288.997 43.176,288.179 43.022 C 287.397 42.876,286.658 42.496,286.536 42.178 C 286.405 41.837,285.778 41.600,285.004 41.600 C 284.030 41.600,283.640 41.395,283.484 40.800 C 283.325 40.191,282.938 40.000,281.864 40.000 C 280.805 40.000,280.391 39.801,280.200 39.200 C 279.999 38.567,279.595 38.400,278.261 38.400 C 277.035 38.400,276.420 38.182,276.000 37.600 C 275.629 37.086,274.965 36.800,274.139 36.800 C 273.205 36.800,272.784 36.581,272.600 36.000 C 272.403 35.379,271.995 35.200,270.773 35.200 C 269.700 35.200,269.200 35.024,269.200 34.647 C 269.200 34.022,268.003 33.614,266.147 33.605 C 265.232 33.601,264.837 33.384,264.684 32.800 C 264.507 32.123,264.138 32.000,262.284 32.000 C 260.430 32.000,260.061 31.877,259.884 31.200 C 259.706 30.520,259.338 30.400,257.437 30.400 C 255.799 30.400,255.200 30.252,255.200 29.847 C 255.200 29.143,253.961 28.812,251.300 28.805 C 249.774 28.801,249.200 28.648,249.200 28.243 C 249.200 27.447,248.292 27.200,245.367 27.200 C 243.461 27.200,242.800 27.059,242.800 26.652 C 242.800 26.008,240.788 25.611,237.487 25.604 C 235.804 25.601,235.112 25.437,234.945 25.000 C 234.756 24.508,233.755 24.400,229.404 24.400 C 224.430 24.400,224.080 24.349,223.884 23.600 C 223.678 22.813,223.338 22.800,203.000 22.800 C 182.662 22.800,182.322 22.813,182.116 23.600 M199.000 23.855 C 196.203 24.149,192.088 24.177,192.260 23.900 C 192.363 23.735,194.192 23.629,196.324 23.664 C 198.456 23.699,199.660 23.785,199.000 23.855 M213.740 23.900 C 213.842 24.065,212.638 24.151,211.063 24.091 C 205.918 23.894,205.324 23.736,209.476 23.667 C 211.718 23.630,213.637 23.735,213.740 23.900 M178.800 25.355 C 178.800 25.440,178.270 25.587,177.621 25.682 C 176.973 25.777,176.533 25.708,176.645 25.528 C 176.843 25.207,178.800 25.050,178.800 25.355 M229.600 25.531 C 229.600 25.713,229.060 25.782,228.400 25.685 C 227.740 25.588,227.200 25.440,227.200 25.355 C 227.200 25.270,227.740 25.200,228.400 25.200 C 229.060 25.200,229.600 25.349,229.600 25.531 M169.920 26.811 C 168.886 26.985,167.806 27.269,167.520 27.441 C 167.129 27.676,167.136 27.586,167.549 27.077 C 167.934 26.602,168.651 26.414,169.949 26.447 L 171.800 26.494 169.920 26.811 M236.948 26.716 C 237.056 26.890,236.527 26.961,235.772 26.873 C 235.017 26.785,234.400 26.642,234.400 26.556 C 234.400 26.255,236.755 26.403,236.948 26.716 M163.600 28.155 C 163.600 28.240,163.070 28.387,162.421 28.482 C 161.773 28.577,161.333 28.508,161.445 28.328 C 161.643 28.007,163.600 27.850,163.600 28.155 M244.996 28.394 C 245.148 28.640,244.745 28.694,243.920 28.537 C 242.151 28.200,241.999 28.000,243.510 28.000 C 244.193 28.000,244.862 28.177,244.996 28.394 M251.200 30.000 C 251.995 30.514,250.996 30.514,249.800 30.000 L 249.000 29.656 249.800 29.634 C 250.240 29.622,250.870 29.787,251.200 30.000 M270.216 36.427 C 270.640 37.113,270.261 37.180,269.423 36.567 C 268.774 36.093,268.754 36.000,269.300 36.000 C 269.659 36.000,270.071 36.192,270.216 36.427 M123.600 42.284 C 123.270 42.405,122.685 42.779,122.300 43.114 C 121.430 43.872,121.373 43.484,122.229 42.629 C 122.574 42.283,123.159 42.014,123.529 42.032 C 124.077 42.057,124.090 42.104,123.600 42.284 M120.767 43.721 C 119.923 44.334,118.400 45.181,118.400 45.038 C 118.400 44.598,119.716 43.600,120.295 43.600 C 120.646 43.600,120.858 43.654,120.767 43.721 M109.001 50.398 C 108.866 50.617,108.360 51.003,107.878 51.256 C 107.006 51.713,107.005 51.710,107.762 50.858 C 108.525 49.998,109.464 49.650,109.001 50.398 M92.998 61.602 C 92.598 62.044,92.185 62.318,92.079 62.212 C 91.810 61.943,92.808 60.800,93.311 60.800 C 93.538 60.800,93.397 61.161,92.998 61.602 M315.644 63.300 L 316.116 64.200 315.158 63.404 C 314.631 62.967,314.125 62.562,314.033 62.504 C 313.942 62.447,314.160 62.400,314.519 62.400 C 314.878 62.400,315.384 62.805,315.644 63.300 M84.000 68.918 C 84.000 68.982,83.244 69.747,82.321 70.618 C 81.397 71.488,80.803 71.930,81.001 71.600 C 81.819 70.236,84.000 68.285,84.000 68.918 M330.179 76.253 C 331.638 77.712,332.779 79.023,332.716 79.167 C 332.652 79.311,331.362 78.117,329.849 76.514 C 326.412 72.872,326.627 72.701,330.179 76.253 M70.559 82.392 C 69.729 83.267,68.966 83.900,68.864 83.797 C 68.675 83.608,71.484 80.800,71.862 80.800 C 71.975 80.800,71.389 81.516,70.559 82.392 M61.798 92.802 C 61.398 93.244,60.985 93.518,60.879 93.412 C 60.610 93.143,61.608 92.000,62.111 92.000 C 62.338 92.000,62.197 92.361,61.798 92.802 M51.212 107.978 C 50.763 108.816,50.000 109.432,50.000 108.955 C 50.000 108.647,51.217 107.200,51.476 107.200 C 51.560 107.200,51.441 107.550,51.212 107.978 M132.200 107.600 C 132.064 107.820,131.378 107.979,130.676 107.953 L 129.400 107.905 130.600 107.600 C 132.340 107.157,132.474 107.157,132.200 107.600 M145.167 107.857 C 145.258 107.936,144.774 108.000,144.090 108.000 C 143.407 108.000,142.738 107.823,142.604 107.606 C 142.383 107.249,144.724 107.478,145.167 107.857 M144.516 109.200 C 144.675 109.806,145.062 110.000,146.116 110.000 C 147.170 110.000,147.557 110.194,147.716 110.800 C 147.876 111.413,148.262 111.600,149.363 111.600 C 150.533 111.600,150.800 111.748,150.800 112.400 C 150.800 112.933,151.067 113.200,151.600 113.200 C 152.133 113.200,152.400 113.467,152.400 114.000 C 152.400 114.533,152.667 114.800,153.200 114.800 C 153.697 114.800,154.000 115.067,154.000 115.504 C 154.000 115.891,154.360 116.432,154.800 116.707 C 155.310 117.026,155.600 117.640,155.600 118.403 C 155.600 119.333,155.778 119.600,156.400 119.600 C 157.103 119.600,157.200 119.867,157.200 121.800 C 157.200 123.489,157.339 124.000,157.800 124.000 C 158.291 124.000,158.400 124.690,158.400 127.813 C 158.400 130.832,158.275 131.673,157.800 131.855 C 157.410 132.005,157.200 132.626,157.200 133.629 C 157.200 134.762,156.988 135.285,156.400 135.600 C 155.876 135.880,155.600 136.438,155.600 137.214 C 155.600 138.133,155.420 138.400,154.800 138.400 C 154.267 138.400,154.000 138.667,154.000 139.200 C 154.000 139.665,153.733 140.000,153.363 140.000 C 153.012 140.000,152.631 140.360,152.516 140.800 C 152.400 141.243,151.970 141.600,151.553 141.600 C 151.139 141.600,150.800 141.858,150.800 142.173 C 150.800 142.488,150.440 142.860,150.000 143.000 C 149.560 143.140,149.200 143.512,149.200 143.827 C 149.200 144.218,148.744 144.400,147.763 144.400 C 146.690 144.400,146.275 144.592,146.128 145.156 C 145.965 145.776,145.461 145.941,143.317 146.078 C 141.463 146.196,140.559 146.441,140.208 146.922 C 139.547 147.826,133.600 147.934,133.600 147.043 C 133.600 146.308,132.716 146.000,130.610 146.000 C 129.475 146.000,128.810 145.802,128.664 145.422 C 128.542 145.104,127.803 144.724,127.021 144.578 C 126.239 144.431,125.600 144.081,125.600 143.800 C 125.600 143.519,124.970 143.171,124.200 143.026 C 123.362 142.869,122.800 142.530,122.800 142.182 C 122.800 141.862,122.440 141.600,122.000 141.600 C 121.467 141.600,121.200 141.333,121.200 140.800 C 121.200 140.267,120.933 140.000,120.400 140.000 C 119.748 140.000,119.600 139.733,119.600 138.563 C 119.600 137.462,119.413 137.076,118.800 136.916 C 118.194 136.757,118.000 136.370,118.000 135.316 C 118.000 134.262,117.806 133.875,117.200 133.716 C 116.445 133.519,116.400 133.170,116.400 127.567 C 116.400 122.038,116.455 121.599,117.200 121.200 C 117.764 120.898,118.000 120.362,118.000 119.386 C 118.000 118.267,118.154 118.000,118.800 118.000 C 119.333 118.000,119.600 117.733,119.600 117.200 C 119.600 116.760,119.858 116.400,120.173 116.400 C 120.488 116.400,120.860 116.040,121.000 115.600 C 121.140 115.160,121.491 114.800,121.780 114.800 C 122.070 114.800,122.401 114.440,122.516 114.000 C 122.631 113.560,123.012 113.200,123.363 113.200 C 123.733 113.200,124.000 112.865,124.000 112.400 C 124.000 111.778,124.267 111.600,125.197 111.600 C 125.960 111.600,126.574 111.310,126.893 110.800 C 127.249 110.230,127.826 110.000,128.896 110.000 C 130.133 110.000,130.400 109.858,130.400 109.200 C 130.400 108.431,130.667 108.400,137.353 108.400 C 143.970 108.400,144.317 108.439,144.516 109.200 M357.589 111.387 C 357.857 111.709,358.014 112.142,357.938 112.350 C 357.862 112.557,357.477 112.293,357.081 111.763 C 356.315 110.736,356.769 110.399,357.589 111.387 M44.530 119.500 C 44.152 120.105,43.788 120.675,43.721 120.767 C 43.654 120.858,43.600 120.646,43.600 120.295 C 43.600 119.716,44.598 118.400,45.038 118.400 C 45.137 118.400,44.909 118.895,44.530 119.500 M43.114 122.300 C 42.779 122.685,42.405 123.270,42.284 123.600 C 42.104 124.090,42.057 124.077,42.032 123.529 C 42.014 123.159,42.283 122.574,42.629 122.229 C 43.484 121.373,43.872 121.430,43.114 122.300 M159.563 130.063 C 159.380 131.986,159.321 131.438,159.320 127.800 C 159.318 124.461,159.392 123.689,159.561 125.263 C 159.694 126.508,159.695 128.668,159.563 130.063 M371.938 142.194 C 371.843 142.668,371.645 142.470,371.304 141.559 C 370.851 140.351,370.863 140.291,371.442 140.871 C 371.791 141.220,372.015 141.815,371.938 142.194 M123.200 144.200 C 123.478 144.535,123.521 144.800,123.298 144.800 C 123.078 144.800,122.674 144.530,122.400 144.200 C 122.122 143.865,122.079 143.600,122.302 143.600 C 122.522 143.600,122.926 143.870,123.200 144.200 M373.538 146.994 C 373.443 147.468,373.245 147.270,372.904 146.359 C 372.451 145.151,372.463 145.091,373.042 145.671 C 373.391 146.020,373.615 146.615,373.538 146.994 M129.400 147.200 C 129.692 147.673,129.301 147.673,128.200 147.200 C 127.429 146.869,127.431 146.855,128.276 146.828 C 128.758 146.813,129.264 146.980,129.400 147.200 M137.905 148.675 C 137.522 148.775,136.802 148.779,136.305 148.683 C 135.807 148.587,136.120 148.505,137.000 148.501 C 137.880 148.496,138.287 148.575,137.905 148.675 M28.454 162.500 C 28.324 163.312,28.187 163.528,28.089 163.077 C 27.940 162.389,28.212 161.200,28.518 161.200 C 28.597 161.200,28.568 161.785,28.454 162.500 M248.200 163.600 C 248.064 163.820,247.468 163.979,246.876 163.953 L 245.800 163.905 247.000 163.600 C 247.660 163.432,248.256 163.273,248.324 163.247 C 248.392 163.221,248.336 163.380,248.200 163.600 M268.307 165.600 C 268.698 166.226,269.240 166.400,270.803 166.400 C 272.267 166.400,273.014 166.614,273.600 167.200 C 274.085 167.685,274.933 168.000,275.753 168.000 C 276.770 168.000,277.159 168.199,277.316 168.800 C 277.468 169.380,277.862 169.600,278.748 169.600 C 279.562 169.600,280.115 169.868,280.400 170.400 C 280.635 170.840,281.092 171.200,281.414 171.200 C 281.736 171.200,282.000 171.470,282.000 171.800 C 282.000 172.130,282.263 172.400,282.584 172.400 C 282.906 172.400,283.491 172.745,283.884 173.168 C 284.278 173.590,285.095 174.059,285.700 174.211 C 286.305 174.363,286.800 174.737,286.800 175.043 C 286.800 175.350,287.160 175.600,287.600 175.600 C 288.133 175.600,288.400 175.867,288.400 176.400 C 288.400 176.933,288.667 177.200,289.200 177.200 C 289.822 177.200,290.000 177.467,290.000 178.397 C 290.000 179.160,290.290 179.774,290.800 180.093 C 291.240 180.368,291.600 180.909,291.600 181.296 C 291.600 181.683,291.870 182.000,292.200 182.000 C 292.530 182.000,292.800 182.264,292.800 182.586 C 292.800 182.908,293.160 183.365,293.600 183.600 C 294.132 183.885,294.400 184.438,294.400 185.252 C 294.400 186.138,294.620 186.532,295.200 186.684 C 295.799 186.841,296.000 187.230,296.000 188.233 C 296.000 189.162,296.245 189.703,296.800 190.000 C 297.420 190.332,297.600 190.838,297.600 192.252 C 297.600 193.738,297.748 194.113,298.400 194.284 C 299.086 194.463,299.200 194.830,299.200 196.847 C 299.200 198.667,299.381 199.381,300.000 200.000 C 300.705 200.705,300.800 201.333,300.800 205.304 C 300.800 209.374,300.877 209.856,301.600 210.307 C 302.391 210.801,302.400 211.240,302.400 248.003 L 302.400 285.200 283.600 285.200 L 264.800 285.200 264.800 250.033 C 264.800 214.617,264.771 213.600,263.757 213.600 C 263.327 213.600,263.200 212.869,263.200 210.400 C 263.200 207.467,263.133 207.200,262.400 207.200 C 261.695 207.200,261.600 206.933,261.600 204.963 C 261.600 203.062,261.480 202.694,260.800 202.516 C 260.357 202.400,260.000 201.970,260.000 201.553 C 260.000 201.083,259.718 200.800,259.250 200.800 C 258.739 200.800,258.425 200.423,258.263 199.617 C 258.108 198.839,257.612 198.220,256.813 197.807 C 256.146 197.462,255.600 196.998,255.600 196.777 C 255.600 196.556,255.299 196.259,254.931 196.118 C 254.562 195.977,253.932 195.532,253.531 195.131 C 253.040 194.640,252.210 194.400,251.000 194.400 C 249.734 194.400,249.200 194.236,249.200 193.847 C 249.200 193.023,247.890 192.811,242.800 192.810 C 237.322 192.809,235.200 193.100,235.200 193.852 C 235.200 194.207,234.727 194.400,233.854 194.400 C 233.114 194.400,232.050 194.760,231.491 195.200 C 230.931 195.640,230.170 196.000,229.799 196.000 C 229.429 196.000,229.031 196.360,228.916 196.800 C 228.801 197.240,228.532 197.600,228.318 197.600 C 227.710 197.600,224.400 201.162,224.400 201.815 C 224.400 202.137,224.040 202.400,223.600 202.400 C 223.083 202.400,222.800 202.667,222.800 203.153 C 222.800 203.570,222.443 204.000,222.000 204.116 C 221.394 204.275,221.200 204.662,221.200 205.716 C 221.200 206.770,221.006 207.157,220.400 207.316 C 219.660 207.509,219.600 207.862,219.600 212.018 C 219.600 215.836,219.495 216.589,218.900 217.024 C 218.244 217.503,218.193 219.680,218.093 251.368 L 217.987 285.200 199.993 285.200 L 182.000 285.200 182.000 225.800 L 182.000 166.400 200.000 166.400 L 218.000 166.400 218.006 174.300 C 218.009 178.645,218.167 182.445,218.357 182.744 C 219.002 183.762,222.409 183.850,222.670 182.855 C 222.793 182.385,223.120 182.000,223.397 182.000 C 223.673 182.000,224.004 181.482,224.130 180.848 C 224.257 180.215,224.640 179.418,224.980 179.077 C 225.321 178.736,225.600 178.174,225.600 177.829 C 225.600 177.467,225.939 177.200,226.400 177.200 C 226.933 177.200,227.200 176.933,227.200 176.400 C 227.200 175.867,227.467 175.600,228.000 175.600 C 228.440 175.600,228.800 175.342,228.800 175.027 C 228.800 174.712,229.160 174.340,229.600 174.200 C 230.040 174.060,230.400 173.688,230.400 173.373 C 230.400 173.058,230.760 172.800,231.200 172.800 C 231.640 172.800,232.000 172.549,232.000 172.243 C 232.000 171.625,232.843 171.200,234.070 171.200 C 234.525 171.200,234.962 170.869,235.074 170.438 C 235.201 169.952,235.768 169.582,236.637 169.419 C 237.446 169.268,238.000 168.927,238.000 168.582 C 238.000 168.181,238.446 168.000,239.437 168.000 C 240.538 168.000,240.924 167.813,241.084 167.200 C 241.261 166.523,241.630 166.400,243.484 166.400 C 245.338 166.400,245.707 166.277,245.884 165.600 C 246.087 164.825,246.430 164.800,256.950 164.800 C 267.374 164.800,267.827 164.832,268.307 165.600 M117.100 256.500 C 117.042 273.055,116.995 259.510,116.995 226.400 C 116.995 193.290,117.042 179.745,117.100 196.300 C 117.158 212.855,117.158 239.945,117.100 256.500 M155.600 225.800 L 155.600 285.200 136.800 285.200 L 118.000 285.200 118.000 225.800 L 118.000 166.400 136.800 166.400 L 155.600 166.400 155.600 225.800 M27.388 167.620 C 27.245 167.851,26.985 168.886,26.811 169.920 L 26.494 171.800 26.447 169.980 C 26.421 168.979,26.616 167.944,26.880 167.680 C 27.472 167.088,27.736 167.057,27.388 167.620 M379.600 170.490 C 379.600 172.001,379.400 171.849,379.063 170.080 C 378.906 169.255,378.960 168.852,379.206 169.004 C 379.423 169.138,379.600 169.807,379.600 170.490 M287.480 173.453 C 287.159 173.774,286.177 173.175,285.655 172.339 C 285.137 171.510,285.151 171.511,286.386 172.390 C 287.079 172.884,287.571 173.362,287.480 173.453 M25.654 177.700 C 25.524 178.512,25.387 178.728,25.289 178.277 C 25.140 177.589,25.412 176.400,25.718 176.400 C 25.797 176.400,25.768 176.985,25.654 177.700 M381.119 181.451 C 380.987 182.509,380.959 182.481,380.768 181.100 C 380.649 180.240,380.710 179.750,380.912 179.952 C 381.105 180.145,381.198 180.819,381.119 181.451 M24.003 196.099 L 23.807 200.200 23.687 196.632 C 23.581 193.498,23.711 192.002,24.087 191.999 C 24.149 191.999,24.112 193.844,24.003 196.099 M256.794 199.794 C 257.537 200.561,258.052 201.281,257.939 201.395 C 257.825 201.508,257.086 200.881,256.295 200.001 C 254.531 198.035,254.929 197.870,256.794 199.794 M382.800 203.224 C 382.800 203.871,382.620 204.400,382.400 204.400 C 382.180 204.400,382.000 203.759,382.000 202.976 C 382.000 202.129,382.162 201.653,382.400 201.800 C 382.620 201.936,382.800 202.577,382.800 203.224 M24.091 211.063 C 24.151 212.638,24.065 213.842,23.900 213.740 C 23.735 213.637,23.630 211.718,23.667 209.476 C 23.736 205.324,23.894 205.918,24.091 211.063 M380.912 226.048 C 380.710 226.250,380.649 225.760,380.768 224.900 C 380.959 223.519,380.987 223.491,381.119 224.549 C 381.198 225.181,381.105 225.855,380.912 226.048 M25.685 228.400 C 25.782 229.060,25.713 229.600,25.531 229.600 C 25.349 229.600,25.200 229.060,25.200 228.400 C 25.200 227.740,25.270 227.200,25.355 227.200 C 25.440 227.200,25.588 227.740,25.685 228.400 M26.873 235.772 C 26.961 236.527,26.890 237.056,26.716 236.948 C 26.403 236.755,26.255 234.400,26.556 234.400 C 26.642 234.400,26.785 235.017,26.873 235.772 M28.537 243.920 C 28.694 244.745,28.640 245.148,28.394 244.996 C 28.177 244.862,28.000 244.193,28.000 243.510 C 28.000 241.999,28.200 242.151,28.537 243.920 M30.366 251.200 C 30.385 251.733,30.345 251.733,30.000 251.200 C 29.787 250.870,29.622 250.240,29.634 249.800 L 29.656 249.000 30.000 249.800 C 30.189 250.240,30.354 250.870,30.366 251.200 M373.444 260.229 C 372.969 261.466,372.546 260.713,372.960 259.366 C 373.311 258.223,373.427 258.108,373.532 258.795 C 373.604 259.270,373.565 259.915,373.444 260.229 M36.994 270.339 C 36.692 270.642,36.000 269.918,36.000 269.300 C 36.000 268.754,36.093 268.774,36.567 269.423 C 36.879 269.850,37.071 270.262,36.994 270.339 M367.994 273.342 L 367.093 274.200 367.842 272.885 C 368.253 272.162,368.659 271.776,368.742 272.027 C 368.826 272.278,368.489 272.870,367.994 273.342 M354.578 299.312 C 354.446 299.656,354.081 300.037,353.768 300.157 C 353.316 300.330,353.333 300.168,353.853 299.375 C 354.551 298.309,354.977 298.272,354.578 299.312 M63.404 315.158 L 64.200 316.116 63.300 315.644 C 62.805 315.384,62.400 314.878,62.400 314.519 C 62.400 314.160,62.447 313.942,62.504 314.033 C 62.562 314.125,62.967 314.631,63.404 315.158 M340.605 317.913 L 339.050 319.400 340.425 317.769 C 341.181 316.872,341.881 316.203,341.980 316.283 C 342.079 316.362,341.460 317.096,340.605 317.913 M79.153 332.716 C 78.886 332.841,73.600 327.678,73.600 327.292 C 73.600 327.164,74.905 328.306,76.500 329.829 C 78.095 331.353,79.289 332.652,79.153 332.716 M318.000 340.600 C 317.254 341.370,316.501 342.000,316.327 342.000 C 316.012 342.000,318.842 339.231,319.178 339.211 C 319.277 339.205,318.746 339.830,318.000 340.600 M300.400 353.371 C 300.400 353.744,299.115 354.799,298.671 354.791 C 298.412 354.786,298.650 354.430,299.200 354.000 C 300.259 353.172,300.400 353.098,300.400 353.371 M112.350 357.938 C 111.896 358.104,110.800 357.251,110.800 356.732 C 110.800 356.529,111.233 356.686,111.763 357.081 C 112.293 357.477,112.557 357.862,112.350 357.938 M273.400 368.000 C 273.002 368.440,272.389 368.799,272.038 368.797 C 271.641 368.796,271.853 368.495,272.600 368.000 C 274.119 366.994,274.310 366.994,273.400 368.000 M142.194 371.938 C 141.815 372.015,141.220 371.791,140.871 371.442 C 140.291 370.863,140.351 370.851,141.559 371.304 C 142.470 371.645,142.668 371.843,142.194 371.938 M146.994 373.538 C 146.615 373.615,146.020 373.391,145.671 373.042 C 145.091 372.463,145.151 372.451,146.359 372.904 C 147.270 373.245,147.468 373.443,146.994 373.538 M260.616 373.173 C 260.471 373.408,259.778 373.590,259.076 373.577 L 257.800 373.555 259.200 373.054 C 260.735 372.505,261.015 372.529,260.616 373.173 M171.567 379.457 C 171.658 379.536,171.174 379.600,170.490 379.600 C 169.807 379.600,169.138 379.423,169.004 379.206 C 168.783 378.849,171.124 379.078,171.567 379.457 M181.451 381.119 C 180.819 381.198,180.145 381.105,179.952 380.912 C 179.750 380.710,180.240 380.649,181.100 380.768 C 182.481 380.959,182.509 380.987,181.451 381.119 M226.200 380.800 C 226.064 381.020,225.378 381.176,224.676 381.147 L 223.400 381.095 224.800 380.800 C 225.570 380.638,226.256 380.482,226.324 380.453 C 226.392 380.424,226.336 380.580,226.200 380.800 M204.400 382.400 C 204.400 382.620,203.871 382.800,203.224 382.800 C 202.577 382.800,201.936 382.620,201.800 382.400 C 201.653 382.162,202.129 382.000,202.976 382.000 C 203.759 382.000,204.400 382.180,204.400 382.400 " stroke="none" fill="#ffffff" fill-rule="evenodd"></path><path id="path1" d="M192.260 23.900 C 192.158 24.065,193.362 24.151,194.937 24.091 C 199.810 23.904,200.374 23.731,196.324 23.664 C 194.192 23.629,192.363 23.735,192.260 23.900 M206.800 23.858 C 210.148 24.153,213.911 24.176,213.740 23.900 C 213.637 23.735,211.718 23.630,209.476 23.667 C 207.234 23.704,206.030 23.790,206.800 23.858 M176.645 25.528 C 176.533 25.708,176.973 25.777,177.621 25.682 C 178.270 25.587,178.800 25.440,178.800 25.355 C 178.800 25.050,176.843 25.207,176.645 25.528 M227.200 25.355 C 227.200 25.440,227.740 25.588,228.400 25.685 C 229.060 25.782,229.600 25.713,229.600 25.531 C 229.600 25.349,229.060 25.200,228.400 25.200 C 227.740 25.200,227.200 25.270,227.200 25.355 M167.549 27.077 C 167.136 27.586,167.129 27.676,167.520 27.441 C 167.806 27.269,168.886 26.985,169.920 26.811 L 171.800 26.494 169.949 26.447 C 168.651 26.414,167.934 26.602,167.549 27.077 M234.400 26.556 C 234.400 26.642,235.017 26.785,235.772 26.873 C 236.527 26.961,237.056 26.890,236.948 26.716 C 236.755 26.403,234.400 26.255,234.400 26.556 M161.445 28.328 C 161.333 28.508,161.773 28.577,162.421 28.482 C 163.070 28.387,163.600 28.240,163.600 28.155 C 163.600 27.850,161.643 28.007,161.445 28.328 M242.433 28.143 C 242.876 28.522,245.217 28.751,244.996 28.394 C 244.862 28.177,244.193 28.000,243.510 28.000 C 242.826 28.000,242.342 28.064,242.433 28.143 M249.800 30.000 C 250.996 30.514,251.995 30.514,251.200 30.000 C 250.870 29.787,250.240 29.622,249.800 29.634 L 249.000 29.656 249.800 30.000 M269.423 36.567 C 270.261 37.180,270.640 37.113,270.216 36.427 C 270.071 36.192,269.659 36.000,269.300 36.000 C 268.754 36.000,268.774 36.093,269.423 36.567 M122.229 42.629 C 121.373 43.484,121.430 43.872,122.300 43.114 C 122.685 42.779,123.270 42.405,123.600 42.284 C 124.090 42.104,124.077 42.057,123.529 42.032 C 123.159 42.014,122.574 42.283,122.229 42.629 M119.029 44.229 C 117.877 45.380,118.890 45.084,120.767 43.721 C 120.858 43.654,120.646 43.600,120.295 43.600 C 119.944 43.600,119.374 43.883,119.029 44.229 M107.762 50.858 C 107.005 51.710,107.006 51.713,107.878 51.256 C 108.850 50.746,109.449 50.000,108.886 50.000 C 108.687 50.000,108.181 50.386,107.762 50.858 M92.392 61.410 C 91.619 62.341,92.171 62.517,92.998 61.602 C 93.397 61.161,93.538 60.800,93.311 60.800 C 93.084 60.800,92.670 61.074,92.392 61.410 M314.033 62.504 C 314.125 62.562,314.631 62.967,315.158 63.404 L 316.116 64.200 315.644 63.300 C 315.384 62.805,314.878 62.400,314.519 62.400 C 314.160 62.400,313.942 62.447,314.033 62.504 M82.380 69.919 C 80.611 71.795,80.570 72.267,82.321 70.618 C 83.244 69.747,84.000 68.982,84.000 68.918 C 84.000 68.529,83.262 68.985,82.380 69.919 M329.849 76.514 C 331.362 78.117,332.652 79.311,332.716 79.167 C 332.835 78.897,327.693 73.600,327.312 73.600 C 327.195 73.600,328.336 74.911,329.849 76.514 M70.167 82.205 C 69.348 82.978,68.761 83.694,68.864 83.797 C 68.966 83.900,69.729 83.267,70.559 82.392 C 72.424 80.423,72.180 80.307,70.167 82.205 M61.192 92.610 C 60.419 93.541,60.971 93.717,61.798 92.802 C 62.197 92.361,62.338 92.000,62.111 92.000 C 61.884 92.000,61.470 92.274,61.192 92.610 M50.662 107.931 C 49.933 108.737,49.772 109.388,50.398 109.001 C 50.815 108.743,51.739 107.200,51.476 107.200 C 51.392 107.200,51.026 107.529,50.662 107.931 M130.600 107.600 L 129.400 107.905 130.676 107.953 C 131.378 107.979,132.064 107.820,132.200 107.600 C 132.474 107.157,132.340 107.157,130.600 107.600 M142.604 107.606 C 142.738 107.823,143.407 108.000,144.090 108.000 C 145.601 108.000,145.449 107.800,143.680 107.463 C 142.855 107.306,142.452 107.360,142.604 107.606 M357.081 111.763 C 357.477 112.293,357.862 112.557,357.938 112.350 C 358.104 111.896,357.251 110.800,356.732 110.800 C 356.529 110.800,356.686 111.233,357.081 111.763 M44.229 119.029 C 43.883 119.374,43.600 119.944,43.600 120.295 C 43.600 120.646,43.654 120.858,43.721 120.767 C 45.084 118.890,45.380 117.877,44.229 119.029 M42.629 122.229 C 42.283 122.574,42.014 123.159,42.032 123.529 C 42.057 124.077,42.104 124.090,42.284 123.600 C 42.405 123.270,42.779 122.685,43.114 122.300 C 43.872 121.430,43.484 121.373,42.629 122.229 M159.320 127.800 C 159.321 131.438,159.380 131.986,159.563 130.063 C 159.695 128.668,159.694 126.508,159.561 125.263 C 159.392 123.689,159.318 124.461,159.320 127.800 M371.304 141.559 C 371.645 142.470,371.843 142.668,371.938 142.194 C 372.015 141.815,371.791 141.220,371.442 140.871 C 370.863 140.291,370.851 140.351,371.304 141.559 M122.400 144.200 C 122.674 144.530,123.078 144.800,123.298 144.800 C 123.521 144.800,123.478 144.535,123.200 144.200 C 122.926 143.870,122.522 143.600,122.302 143.600 C 122.079 143.600,122.122 143.865,122.400 144.200 M372.904 146.359 C 373.245 147.270,373.443 147.468,373.538 146.994 C 373.615 146.615,373.391 146.020,373.042 145.671 C 372.463 145.091,372.451 145.151,372.904 146.359 M128.200 147.200 C 129.301 147.673,129.692 147.673,129.400 147.200 C 129.264 146.980,128.758 146.813,128.276 146.828 C 127.431 146.855,127.429 146.869,128.200 147.200 M136.305 148.683 C 136.802 148.779,137.522 148.775,137.905 148.675 C 138.287 148.575,137.880 148.496,137.000 148.501 C 136.120 148.505,135.807 148.587,136.305 148.683 M28.154 161.777 C 28.032 162.094,28.003 162.679,28.089 163.077 C 28.187 163.528,28.324 163.312,28.454 162.500 C 28.671 161.138,28.530 160.796,28.154 161.777 M247.000 163.600 L 245.800 163.905 246.876 163.953 C 247.468 163.979,248.064 163.820,248.200 163.600 C 248.336 163.380,248.392 163.221,248.324 163.247 C 248.256 163.273,247.660 163.432,247.000 163.600 M116.995 226.400 C 116.995 259.510,117.042 273.055,117.100 256.500 C 117.158 239.945,117.158 212.855,117.100 196.300 C 117.042 179.745,116.995 193.290,116.995 226.400 M26.880 167.680 C 26.616 167.944,26.421 168.979,26.447 169.980 L 26.494 171.800 26.811 169.920 C 26.985 168.886,27.245 167.851,27.388 167.620 C 27.736 167.057,27.472 167.088,26.880 167.680 M379.063 170.080 C 379.400 171.849,379.600 172.001,379.600 170.490 C 379.600 169.807,379.423 169.138,379.206 169.004 C 378.960 168.852,378.906 169.255,379.063 170.080 M285.655 172.339 C 285.945 172.804,286.437 173.282,286.749 173.402 C 287.830 173.817,287.639 173.282,286.386 172.390 C 285.151 171.511,285.137 171.510,285.655 172.339 M25.354 176.977 C 25.232 177.294,25.203 177.879,25.289 178.277 C 25.387 178.728,25.524 178.512,25.654 177.700 C 25.871 176.338,25.730 175.996,25.354 176.977 M380.768 181.100 C 380.959 182.481,380.987 182.509,381.119 181.451 C 381.198 180.819,381.105 180.145,380.912 179.952 C 380.710 179.750,380.649 180.240,380.768 181.100 M23.771 192.532 C 23.659 192.824,23.621 194.669,23.687 196.632 L 23.807 200.200 24.003 196.099 C 24.198 192.032,24.164 191.507,23.771 192.532 M256.295 200.001 C 257.086 200.881,257.825 201.508,257.939 201.395 C 258.172 201.161,255.602 198.400,255.151 198.400 C 254.990 198.400,255.505 199.120,256.295 200.001 M382.000 202.976 C 382.000 203.759,382.180 204.400,382.400 204.400 C 382.620 204.400,382.800 203.871,382.800 203.224 C 382.800 202.577,382.620 201.936,382.400 201.800 C 382.162 201.653,382.000 202.129,382.000 202.976 M23.667 209.476 C 23.630 211.718,23.735 213.637,23.900 213.740 C 24.065 213.842,24.151 212.638,24.091 211.063 C 23.894 205.918,23.736 205.324,23.667 209.476 M380.768 224.900 C 380.649 225.760,380.710 226.250,380.912 226.048 C 381.105 225.855,381.198 225.181,381.119 224.549 C 380.987 223.491,380.959 223.519,380.768 224.900 M25.200 228.400 C 25.200 229.060,25.349 229.600,25.531 229.600 C 25.713 229.600,25.782 229.060,25.685 228.400 C 25.588 227.740,25.440 227.200,25.355 227.200 C 25.270 227.200,25.200 227.740,25.200 228.400 M26.400 235.576 C 26.400 236.223,26.542 236.841,26.716 236.948 C 26.890 237.056,26.961 236.527,26.873 235.772 C 26.676 234.091,26.400 233.977,26.400 235.576 M28.000 243.510 C 28.000 244.193,28.177 244.862,28.394 244.996 C 28.640 245.148,28.694 244.745,28.537 243.920 C 28.200 242.151,28.000 241.999,28.000 243.510 M29.634 249.800 C 29.622 250.240,29.787 250.870,30.000 251.200 C 30.514 251.995,30.514 250.996,30.000 249.800 L 29.656 249.000 29.634 249.800 M372.960 259.366 C 372.718 260.155,372.678 260.800,372.872 260.800 C 373.366 260.800,373.688 259.820,373.532 258.795 C 373.427 258.108,373.311 258.223,372.960 259.366 M36.000 269.300 C 36.000 269.659,36.192 270.071,36.427 270.216 C 37.113 270.640,37.180 270.261,36.567 269.423 C 36.093 268.774,36.000 268.754,36.000 269.300 M367.842 272.885 L 367.093 274.200 367.994 273.342 C 368.489 272.870,368.826 272.278,368.742 272.027 C 368.659 271.776,368.253 272.162,367.842 272.885 M353.853 299.375 C 353.333 300.168,353.316 300.330,353.768 300.157 C 354.081 300.037,354.446 299.656,354.578 299.312 C 354.977 298.272,354.551 298.309,353.853 299.375 M62.400 314.519 C 62.400 314.878,62.805 315.384,63.300 315.644 L 64.200 316.116 63.404 315.158 C 62.967 314.631,62.562 314.125,62.504 314.033 C 62.447 313.942,62.400 314.160,62.400 314.519 M340.425 317.769 L 339.050 319.400 340.605 317.913 C 341.460 317.096,342.079 316.362,341.980 316.283 C 341.881 316.203,341.181 316.872,340.425 317.769 M73.600 327.292 C 73.600 327.678,78.886 332.841,79.153 332.716 C 79.289 332.652,78.095 331.353,76.500 329.829 C 74.905 328.306,73.600 327.164,73.600 327.292 M317.506 340.611 C 316.684 341.375,316.154 342.000,316.327 342.000 C 316.501 342.000,317.254 341.370,318.000 340.600 C 319.741 338.803,319.443 338.810,317.506 340.611 M299.200 354.000 C 298.650 354.430,298.412 354.786,298.671 354.791 C 299.115 354.799,300.400 353.744,300.400 353.371 C 300.400 353.098,300.259 353.172,299.200 354.000 M110.800 356.732 C 110.800 357.251,111.896 358.104,112.350 357.938 C 112.557 357.862,112.293 357.477,111.763 357.081 C 111.233 356.686,110.800 356.529,110.800 356.732 M272.600 368.000 C 271.853 368.495,271.641 368.796,272.038 368.797 C 272.389 368.799,273.002 368.440,273.400 368.000 C 274.310 366.994,274.119 366.994,272.600 368.000 M140.871 371.442 C 141.220 371.791,141.815 372.015,142.194 371.938 C 142.668 371.843,142.470 371.645,141.559 371.304 C 140.351 370.851,140.291 370.863,140.871 371.442 M145.671 373.042 C 146.020 373.391,146.615 373.615,146.994 373.538 C 147.468 373.443,147.270 373.245,146.359 372.904 C 145.151 372.451,145.091 372.463,145.671 373.042 M259.200 373.054 L 257.800 373.555 259.076 373.577 C 259.778 373.590,260.471 373.408,260.616 373.173 C 261.015 372.529,260.735 372.505,259.200 373.054 M169.004 379.206 C 169.138 379.423,169.807 379.600,170.490 379.600 C 172.001 379.600,171.849 379.400,170.080 379.063 C 169.255 378.906,168.852 378.960,169.004 379.206 M179.952 380.912 C 180.145 381.105,180.819 381.198,181.451 381.119 C 182.509 380.987,182.481 380.959,181.100 380.768 C 180.240 380.649,179.750 380.710,179.952 380.912 M224.800 380.800 L 223.400 381.095 224.676 381.147 C 225.378 381.176,226.064 381.020,226.200 380.800 C 226.336 380.580,226.392 380.424,226.324 380.453 C 226.256 380.482,225.570 380.638,224.800 380.800 M201.800 382.400 C 201.936 382.620,202.577 382.800,203.224 382.800 C 203.871 382.800,204.400 382.620,204.400 382.400 C 204.400 382.180,203.759 382.000,202.976 382.000 C 202.129 382.000,201.653 382.162,201.800 382.400 " stroke="none" fill="#ffffff" fill-rule="evenodd"></path><path id="path2" d="M192.260 23.900 C 192.158 24.065,193.362 24.151,194.937 24.091 C 199.810 23.904,200.374 23.731,196.324 23.664 C 194.192 23.629,192.363 23.735,192.260 23.900 M206.800 23.858 C 210.148 24.153,213.911 24.176,213.740 23.900 C 213.637 23.735,211.718 23.630,209.476 23.667 C 207.234 23.704,206.030 23.790,206.800 23.858 M176.645 25.528 C 176.533 25.708,176.973 25.777,177.621 25.682 C 178.270 25.587,178.800 25.440,178.800 25.355 C 178.800 25.050,176.843 25.207,176.645 25.528 M227.200 25.355 C 227.200 25.440,227.740 25.588,228.400 25.685 C 229.060 25.782,229.600 25.713,229.600 25.531 C 229.600 25.349,229.060 25.200,228.400 25.200 C 227.740 25.200,227.200 25.270,227.200 25.355 M167.549 27.077 C 167.136 27.586,167.129 27.676,167.520 27.441 C 167.806 27.269,168.886 26.985,169.920 26.811 L 171.800 26.494 169.949 26.447 C 168.651 26.414,167.934 26.602,167.549 27.077 M234.400 26.556 C 234.400 26.642,235.017 26.785,235.772 26.873 C 236.527 26.961,237.056 26.890,236.948 26.716 C 236.755 26.403,234.400 26.255,234.400 26.556 M161.445 28.328 C 161.333 28.508,161.773 28.577,162.421 28.482 C 163.070 28.387,163.600 28.240,163.600 28.155 C 163.600 27.850,161.643 28.007,161.445 28.328 M242.433 28.143 C 242.876 28.522,245.217 28.751,244.996 28.394 C 244.862 28.177,244.193 28.000,243.510 28.000 C 242.826 28.000,242.342 28.064,242.433 28.143 M249.800 30.000 C 250.996 30.514,251.995 30.514,251.200 30.000 C 250.870 29.787,250.240 29.622,249.800 29.634 L 249.000 29.656 249.800 30.000 M269.423 36.567 C 270.261 37.180,270.640 37.113,270.216 36.427 C 270.071 36.192,269.659 36.000,269.300 36.000 C 268.754 36.000,268.774 36.093,269.423 36.567 M122.229 42.629 C 121.373 43.484,121.430 43.872,122.300 43.114 C 122.685 42.779,123.270 42.405,123.600 42.284 C 124.090 42.104,124.077 42.057,123.529 42.032 C 123.159 42.014,122.574 42.283,122.229 42.629 M119.029 44.229 C 117.877 45.380,118.890 45.084,120.767 43.721 C 120.858 43.654,120.646 43.600,120.295 43.600 C 119.944 43.600,119.374 43.883,119.029 44.229 M107.762 50.858 C 107.005 51.710,107.006 51.713,107.878 51.256 C 108.850 50.746,109.449 50.000,108.886 50.000 C 108.687 50.000,108.181 50.386,107.762 50.858 M92.392 61.410 C 91.619 62.341,92.171 62.517,92.998 61.602 C 93.397 61.161,93.538 60.800,93.311 60.800 C 93.084 60.800,92.670 61.074,92.392 61.410 M314.033 62.504 C 314.125 62.562,314.631 62.967,315.158 63.404 L 316.116 64.200 315.644 63.300 C 315.384 62.805,314.878 62.400,314.519 62.400 C 314.160 62.400,313.942 62.447,314.033 62.504 M82.380 69.919 C 80.611 71.795,80.570 72.267,82.321 70.618 C 83.244 69.747,84.000 68.982,84.000 68.918 C 84.000 68.529,83.262 68.985,82.380 69.919 M329.849 76.514 C 331.362 78.117,332.652 79.311,332.716 79.167 C 332.835 78.897,327.693 73.600,327.312 73.600 C 327.195 73.600,328.336 74.911,329.849 76.514 M70.167 82.205 C 69.348 82.978,68.761 83.694,68.864 83.797 C 68.966 83.900,69.729 83.267,70.559 82.392 C 72.424 80.423,72.180 80.307,70.167 82.205 M61.192 92.610 C 60.419 93.541,60.971 93.717,61.798 92.802 C 62.197 92.361,62.338 92.000,62.111 92.000 C 61.884 92.000,61.470 92.274,61.192 92.610 M50.662 107.931 C 49.933 108.737,49.772 109.388,50.398 109.001 C 50.815 108.743,51.739 107.200,51.476 107.200 C 51.392 107.200,51.026 107.529,50.662 107.931 M130.600 107.600 L 129.400 107.905 130.676 107.953 C 131.378 107.979,132.064 107.820,132.200 107.600 C 132.474 107.157,132.340 107.157,130.600 107.600 M142.604 107.606 C 142.738 107.823,143.407 108.000,144.090 108.000 C 145.601 108.000,145.449 107.800,143.680 107.463 C 142.855 107.306,142.452 107.360,142.604 107.606 M357.081 111.763 C 357.477 112.293,357.862 112.557,357.938 112.350 C 358.104 111.896,357.251 110.800,356.732 110.800 C 356.529 110.800,356.686 111.233,357.081 111.763 M44.229 119.029 C 43.883 119.374,43.600 119.944,43.600 120.295 C 43.600 120.646,43.654 120.858,43.721 120.767 C 45.084 118.890,45.380 117.877,44.229 119.029 M42.629 122.229 C 42.283 122.574,42.014 123.159,42.032 123.529 C 42.057 124.077,42.104 124.090,42.284 123.600 C 42.405 123.270,42.779 122.685,43.114 122.300 C 43.872 121.430,43.484 121.373,42.629 122.229 M159.320 127.800 C 159.321 131.438,159.380 131.986,159.563 130.063 C 159.695 128.668,159.694 126.508,159.561 125.263 C 159.392 123.689,159.318 124.461,159.320 127.800 M371.304 141.559 C 371.645 142.470,371.843 142.668,371.938 142.194 C 372.015 141.815,371.791 141.220,371.442 140.871 C 370.863 140.291,370.851 140.351,371.304 141.559 M122.400 144.200 C 122.674 144.530,123.078 144.800,123.298 144.800 C 123.521 144.800,123.478 144.535,123.200 144.200 C 122.926 143.870,122.522 143.600,122.302 143.600 C 122.079 143.600,122.122 143.865,122.400 144.200 M372.904 146.359 C 373.245 147.270,373.443 147.468,373.538 146.994 C 373.615 146.615,373.391 146.020,373.042 145.671 C 372.463 145.091,372.451 145.151,372.904 146.359 M128.200 147.200 C 129.301 147.673,129.692 147.673,129.400 147.200 C 129.264 146.980,128.758 146.813,128.276 146.828 C 127.431 146.855,127.429 146.869,128.200 147.200 M136.305 148.683 C 136.802 148.779,137.522 148.775,137.905 148.675 C 138.287 148.575,137.880 148.496,137.000 148.501 C 136.120 148.505,135.807 148.587,136.305 148.683 M28.154 161.777 C 28.032 162.094,28.003 162.679,28.089 163.077 C 28.187 163.528,28.324 163.312,28.454 162.500 C 28.671 161.138,28.530 160.796,28.154 161.777 M247.000 163.600 L 245.800 163.905 246.876 163.953 C 247.468 163.979,248.064 163.820,248.200 163.600 C 248.336 163.380,248.392 163.221,248.324 163.247 C 248.256 163.273,247.660 163.432,247.000 163.600 M116.995 226.400 C 116.995 259.510,117.042 273.055,117.100 256.500 C 117.158 239.945,117.158 212.855,117.100 196.300 C 117.042 179.745,116.995 193.290,116.995 226.400 M26.880 167.680 C 26.616 167.944,26.421 168.979,26.447 169.980 L 26.494 171.800 26.811 169.920 C 26.985 168.886,27.245 167.851,27.388 167.620 C 27.736 167.057,27.472 167.088,26.880 167.680 M379.063 170.080 C 379.400 171.849,379.600 172.001,379.600 170.490 C 379.600 169.807,379.423 169.138,379.206 169.004 C 378.960 168.852,378.906 169.255,379.063 170.080 M285.655 172.339 C 285.945 172.804,286.437 173.282,286.749 173.402 C 287.830 173.817,287.639 173.282,286.386 172.390 C 285.151 171.511,285.137 171.510,285.655 172.339 M25.354 176.977 C 25.232 177.294,25.203 177.879,25.289 178.277 C 25.387 178.728,25.524 178.512,25.654 177.700 C 25.871 176.338,25.730 175.996,25.354 176.977 M380.768 181.100 C 380.959 182.481,380.987 182.509,381.119 181.451 C 381.198 180.819,381.105 180.145,380.912 179.952 C 380.710 179.750,380.649 180.240,380.768 181.100 M23.771 192.532 C 23.659 192.824,23.621 194.669,23.687 196.632 L 23.807 200.200 24.003 196.099 C 24.198 192.032,24.164 191.507,23.771 192.532 M256.295 200.001 C 257.086 200.881,257.825 201.508,257.939 201.395 C 258.172 201.161,255.602 198.400,255.151 198.400 C 254.990 198.400,255.505 199.120,256.295 200.001 M382.000 202.976 C 382.000 203.759,382.180 204.400,382.400 204.400 C 382.620 204.400,382.800 203.871,382.800 203.224 C 382.800 202.577,382.620 201.936,382.400 201.800 C 382.162 201.653,382.000 202.129,382.000 202.976 M23.667 209.476 C 23.630 211.718,23.735 213.637,23.900 213.740 C 24.065 213.842,24.151 212.638,24.091 211.063 C 23.894 205.918,23.736 205.324,23.667 209.476 M380.768 224.900 C 380.649 225.760,380.710 226.250,380.912 226.048 C 381.105 225.855,381.198 225.181,381.119 224.549 C 380.987 223.491,380.959 223.519,380.768 224.900 M25.200 228.400 C 25.200 229.060,25.349 229.600,25.531 229.600 C 25.713 229.600,25.782 229.060,25.685 228.400 C 25.588 227.740,25.440 227.200,25.355 227.200 C 25.270 227.200,25.200 227.740,25.200 228.400 M26.400 235.576 C 26.400 236.223,26.542 236.841,26.716 236.948 C 26.890 237.056,26.961 236.527,26.873 235.772 C 26.676 234.091,26.400 233.977,26.400 235.576 M28.000 243.510 C 28.000 244.193,28.177 244.862,28.394 244.996 C 28.640 245.148,28.694 244.745,28.537 243.920 C 28.200 242.151,28.000 241.999,28.000 243.510 M29.634 249.800 C 29.622 250.240,29.787 250.870,30.000 251.200 C 30.514 251.995,30.514 250.996,30.000 249.800 L 29.656 249.000 29.634 249.800 M372.960 259.366 C 372.718 260.155,372.678 260.800,372.872 260.800 C 373.366 260.800,373.688 259.820,373.532 258.795 C 373.427 258.108,373.311 258.223,372.960 259.366 M36.000 269.300 C 36.000 269.659,36.192 270.071,36.427 270.216 C 37.113 270.640,37.180 270.261,36.567 269.423 C 36.093 268.774,36.000 268.754,36.000 269.300 M367.842 272.885 L 367.093 274.200 367.994 273.342 C 368.489 272.870,368.826 272.278,368.742 272.027 C 368.659 271.776,368.253 272.162,367.842 272.885 M353.853 299.375 C 353.333 300.168,353.316 300.330,353.768 300.157 C 354.081 300.037,354.446 299.656,354.578 299.312 C 354.977 298.272,354.551 298.309,353.853 299.375 M62.400 314.519 C 62.400 314.878,62.805 315.384,63.300 315.644 L 64.200 316.116 63.404 315.158 C 62.967 314.631,62.562 314.125,62.504 314.033 C 62.447 313.942,62.400 314.160,62.400 314.519 M340.425 317.769 L 339.050 319.400 340.605 317.913 C 341.460 317.096,342.079 316.362,341.980 316.283 C 341.881 316.203,341.181 316.872,340.425 317.769 M73.600 327.292 C 73.600 327.678,78.886 332.841,79.153 332.716 C 79.289 332.652,78.095 331.353,76.500 329.829 C 74.905 328.306,73.600 327.164,73.600 327.292 M317.506 340.611 C 316.684 341.375,316.154 342.000,316.327 342.000 C 316.501 342.000,317.254 341.370,318.000 340.600 C 319.741 338.803,319.443 338.810,317.506 340.611 M299.200 354.000 C 298.650 354.430,298.412 354.786,298.671 354.791 C 299.115 354.799,300.400 353.744,300.400 353.371 C 300.400 353.098,300.259 353.172,299.200 354.000 M110.800 356.732 C 110.800 357.251,111.896 358.104,112.350 357.938 C 112.557 357.862,112.293 357.477,111.763 357.081 C 111.233 356.686,110.800 356.529,110.800 356.732 M272.600 368.000 C 271.853 368.495,271.641 368.796,272.038 368.797 C 272.389 368.799,273.002 368.440,273.400 368.000 C 274.310 366.994,274.119 366.994,272.600 368.000 M140.871 371.442 C 141.220 371.791,141.815 372.015,142.194 371.938 C 142.668 371.843,142.470 371.645,141.559 371.304 C 140.351 370.851,140.291 370.863,140.871 371.442 M145.671 373.042 C 146.020 373.391,146.615 373.615,146.994 373.538 C 147.468 373.443,147.270 373.245,146.359 372.904 C 145.151 372.451,145.091 372.463,145.671 373.042 M259.200 373.054 L 257.800 373.555 259.076 373.577 C 259.778 373.590,260.471 373.408,260.616 373.173 C 261.015 372.529,260.735 372.505,259.200 373.054 M169.004 379.206 C 169.138 379.423,169.807 379.600,170.490 379.600 C 172.001 379.600,171.849 379.400,170.080 379.063 C 169.255 378.906,168.852 378.960,169.004 379.206 M179.952 380.912 C 180.145 381.105,180.819 381.198,181.451 381.119 C 182.509 380.987,182.481 380.959,181.100 380.768 C 180.240 380.649,179.750 380.710,179.952 380.912 M224.800 380.800 L 223.400 381.095 224.676 381.147 C 225.378 381.176,226.064 381.020,226.200 380.800 C 226.336 380.580,226.392 380.424,226.324 380.453 C 226.256 380.482,225.570 380.638,224.800 380.800 M201.800 382.400 C 201.936 382.620,202.577 382.800,203.224 382.800 C 203.871 382.800,204.400 382.620,204.400 382.400 C 204.400 382.180,203.759 382.000,202.976 382.000 C 202.129 382.000,201.653 382.162,201.800 382.400 " stroke="none" fill="#ffffff" fill-rule="evenodd"></path><path id="path3" d="M192.260 23.900 C 192.158 24.065,193.362 24.151,194.937 24.091 C 199.810 23.904,200.374 23.731,196.324 23.664 C 194.192 23.629,192.363 23.735,192.260 23.900 M206.800 23.858 C 210.148 24.153,213.911 24.176,213.740 23.900 C 213.637 23.735,211.718 23.630,209.476 23.667 C 207.234 23.704,206.030 23.790,206.800 23.858 M176.645 25.528 C 176.533 25.708,176.973 25.777,177.621 25.682 C 178.270 25.587,178.800 25.440,178.800 25.355 C 178.800 25.050,176.843 25.207,176.645 25.528 M227.200 25.355 C 227.200 25.440,227.740 25.588,228.400 25.685 C 229.060 25.782,229.600 25.713,229.600 25.531 C 229.600 25.349,229.060 25.200,228.400 25.200 C 227.740 25.200,227.200 25.270,227.200 25.355 M167.549 27.077 C 167.136 27.586,167.129 27.676,167.520 27.441 C 167.806 27.269,168.886 26.985,169.920 26.811 L 171.800 26.494 169.949 26.447 C 168.651 26.414,167.934 26.602,167.549 27.077 M234.400 26.556 C 234.400 26.642,235.017 26.785,235.772 26.873 C 236.527 26.961,237.056 26.890,236.948 26.716 C 236.755 26.403,234.400 26.255,234.400 26.556 M161.445 28.328 C 161.333 28.508,161.773 28.577,162.421 28.482 C 163.070 28.387,163.600 28.240,163.600 28.155 C 163.600 27.850,161.643 28.007,161.445 28.328 M242.433 28.143 C 242.876 28.522,245.217 28.751,244.996 28.394 C 244.862 28.177,244.193 28.000,243.510 28.000 C 242.826 28.000,242.342 28.064,242.433 28.143 M249.800 30.000 C 250.996 30.514,251.995 30.514,251.200 30.000 C 250.870 29.787,250.240 29.622,249.800 29.634 L 249.000 29.656 249.800 30.000 M269.423 36.567 C 270.261 37.180,270.640 37.113,270.216 36.427 C 270.071 36.192,269.659 36.000,269.300 36.000 C 268.754 36.000,268.774 36.093,269.423 36.567 M122.229 42.629 C 121.373 43.484,121.430 43.872,122.300 43.114 C 122.685 42.779,123.270 42.405,123.600 42.284 C 124.090 42.104,124.077 42.057,123.529 42.032 C 123.159 42.014,122.574 42.283,122.229 42.629 M119.029 44.229 C 117.877 45.380,118.890 45.084,120.767 43.721 C 120.858 43.654,120.646 43.600,120.295 43.600 C 119.944 43.600,119.374 43.883,119.029 44.229 M107.762 50.858 C 107.005 51.710,107.006 51.713,107.878 51.256 C 108.850 50.746,109.449 50.000,108.886 50.000 C 108.687 50.000,108.181 50.386,107.762 50.858 M92.392 61.410 C 91.619 62.341,92.171 62.517,92.998 61.602 C 93.397 61.161,93.538 60.800,93.311 60.800 C 93.084 60.800,92.670 61.074,92.392 61.410 M314.033 62.504 C 314.125 62.562,314.631 62.967,315.158 63.404 L 316.116 64.200 315.644 63.300 C 315.384 62.805,314.878 62.400,314.519 62.400 C 314.160 62.400,313.942 62.447,314.033 62.504 M82.380 69.919 C 80.611 71.795,80.570 72.267,82.321 70.618 C 83.244 69.747,84.000 68.982,84.000 68.918 C 84.000 68.529,83.262 68.985,82.380 69.919 M329.849 76.514 C 331.362 78.117,332.652 79.311,332.716 79.167 C 332.835 78.897,327.693 73.600,327.312 73.600 C 327.195 73.600,328.336 74.911,329.849 76.514 M70.167 82.205 C 69.348 82.978,68.761 83.694,68.864 83.797 C 68.966 83.900,69.729 83.267,70.559 82.392 C 72.424 80.423,72.180 80.307,70.167 82.205 M61.192 92.610 C 60.419 93.541,60.971 93.717,61.798 92.802 C 62.197 92.361,62.338 92.000,62.111 92.000 C 61.884 92.000,61.470 92.274,61.192 92.610 M50.662 107.931 C 49.933 108.737,49.772 109.388,50.398 109.001 C 50.815 108.743,51.739 107.200,51.476 107.200 C 51.392 107.200,51.026 107.529,50.662 107.931 M130.600 107.600 L 129.400 107.905 130.676 107.953 C 131.378 107.979,132.064 107.820,132.200 107.600 C 132.474 107.157,132.340 107.157,130.600 107.600 M142.604 107.606 C 142.738 107.823,143.407 108.000,144.090 108.000 C 145.601 108.000,145.449 107.800,143.680 107.463 C 142.855 107.306,142.452 107.360,142.604 107.606 M357.081 111.763 C 357.477 112.293,357.862 112.557,357.938 112.350 C 358.104 111.896,357.251 110.800,356.732 110.800 C 356.529 110.800,356.686 111.233,357.081 111.763 M44.229 119.029 C 43.883 119.374,43.600 119.944,43.600 120.295 C 43.600 120.646,43.654 120.858,43.721 120.767 C 45.084 118.890,45.380 117.877,44.229 119.029 M42.629 122.229 C 42.283 122.574,42.014 123.159,42.032 123.529 C 42.057 124.077,42.104 124.090,42.284 123.600 C 42.405 123.270,42.779 122.685,43.114 122.300 C 43.872 121.430,43.484 121.373,42.629 122.229 M159.320 127.800 C 159.321 131.438,159.380 131.986,159.563 130.063 C 159.695 128.668,159.694 126.508,159.561 125.263 C 159.392 123.689,159.318 124.461,159.320 127.800 M371.304 141.559 C 371.645 142.470,371.843 142.668,371.938 142.194 C 372.015 141.815,371.791 141.220,371.442 140.871 C 370.863 140.291,370.851 140.351,371.304 141.559 M122.400 144.200 C 122.674 144.530,123.078 144.800,123.298 144.800 C 123.521 144.800,123.478 144.535,123.200 144.200 C 122.926 143.870,122.522 143.600,122.302 143.600 C 122.079 143.600,122.122 143.865,122.400 144.200 M372.904 146.359 C 373.245 147.270,373.443 147.468,373.538 146.994 C 373.615 146.615,373.391 146.020,373.042 145.671 C 372.463 145.091,372.451 145.151,372.904 146.359 M128.200 147.200 C 129.301 147.673,129.692 147.673,129.400 147.200 C 129.264 146.980,128.758 146.813,128.276 146.828 C 127.431 146.855,127.429 146.869,128.200 147.200 M136.305 148.683 C 136.802 148.779,137.522 148.775,137.905 148.675 C 138.287 148.575,137.880 148.496,137.000 148.501 C 136.120 148.505,135.807 148.587,136.305 148.683 M28.154 161.777 C 28.032 162.094,28.003 162.679,28.089 163.077 C 28.187 163.528,28.324 163.312,28.454 162.500 C 28.671 161.138,28.530 160.796,28.154 161.777 M247.000 163.600 L 245.800 163.905 246.876 163.953 C 247.468 163.979,248.064 163.820,248.200 163.600 C 248.336 163.380,248.392 163.221,248.324 163.247 C 248.256 163.273,247.660 163.432,247.000 163.600 M116.995 226.400 C 116.995 259.510,117.042 273.055,117.100 256.500 C 117.158 239.945,117.158 212.855,117.100 196.300 C 117.042 179.745,116.995 193.290,116.995 226.400 M26.880 167.680 C 26.616 167.944,26.421 168.979,26.447 169.980 L 26.494 171.800 26.811 169.920 C 26.985 168.886,27.245 167.851,27.388 167.620 C 27.736 167.057,27.472 167.088,26.880 167.680 M379.063 170.080 C 379.400 171.849,379.600 172.001,379.600 170.490 C 379.600 169.807,379.423 169.138,379.206 169.004 C 378.960 168.852,378.906 169.255,379.063 170.080 M285.655 172.339 C 285.945 172.804,286.437 173.282,286.749 173.402 C 287.830 173.817,287.639 173.282,286.386 172.390 C 285.151 171.511,285.137 171.510,285.655 172.339 M25.354 176.977 C 25.232 177.294,25.203 177.879,25.289 178.277 C 25.387 178.728,25.524 178.512,25.654 177.700 C 25.871 176.338,25.730 175.996,25.354 176.977 M380.768 181.100 C 380.959 182.481,380.987 182.509,381.119 181.451 C 381.198 180.819,381.105 180.145,380.912 179.952 C 380.710 179.750,380.649 180.240,380.768 181.100 M23.771 192.532 C 23.659 192.824,23.621 194.669,23.687 196.632 L 23.807 200.200 24.003 196.099 C 24.198 192.032,24.164 191.507,23.771 192.532 M256.295 200.001 C 257.086 200.881,257.825 201.508,257.939 201.395 C 258.172 201.161,255.602 198.400,255.151 198.400 C 254.990 198.400,255.505 199.120,256.295 200.001 M382.000 202.976 C 382.000 203.759,382.180 204.400,382.400 204.400 C 382.620 204.400,382.800 203.871,382.800 203.224 C 382.800 202.577,382.620 201.936,382.400 201.800 C 382.162 201.653,382.000 202.129,382.000 202.976 M23.667 209.476 C 23.630 211.718,23.735 213.637,23.900 213.740 C 24.065 213.842,24.151 212.638,24.091 211.063 C 23.894 205.918,23.736 205.324,23.667 209.476 M380.768 224.900 C 380.649 225.760,380.710 226.250,380.912 226.048 C 381.105 225.855,381.198 225.181,381.119 224.549 C 380.987 223.491,380.959 223.519,380.768 224.900 M25.200 228.400 C 25.200 229.060,25.349 229.600,25.531 229.600 C 25.713 229.600,25.782 229.060,25.685 228.400 C 25.588 227.740,25.440 227.200,25.355 227.200 C 25.270 227.200,25.200 227.740,25.200 228.400 M26.400 235.576 C 26.400 236.223,26.542 236.841,26.716 236.948 C 26.890 237.056,26.961 236.527,26.873 235.772 C 26.676 234.091,26.400 233.977,26.400 235.576 M28.000 243.510 C 28.000 244.193,28.177 244.862,28.394 244.996 C 28.640 245.148,28.694 244.745,28.537 243.920 C 28.200 242.151,28.000 241.999,28.000 243.510 M29.634 249.800 C 29.622 250.240,29.787 250.870,30.000 251.200 C 30.514 251.995,30.514 250.996,30.000 249.800 L 29.656 249.000 29.634 249.800 M372.960 259.366 C 372.718 260.155,372.678 260.800,372.872 260.800 C 373.366 260.800,373.688 259.820,373.532 258.795 C 373.427 258.108,373.311 258.223,372.960 259.366 M36.000 269.300 C 36.000 269.659,36.192 270.071,36.427 270.216 C 37.113 270.640,37.180 270.261,36.567 269.423 C 36.093 268.774,36.000 268.754,36.000 269.300 M367.842 272.885 L 367.093 274.200 367.994 273.342 C 368.489 272.870,368.826 272.278,368.742 272.027 C 368.659 271.776,368.253 272.162,367.842 272.885 M353.853 299.375 C 353.333 300.168,353.316 300.330,353.768 300.157 C 354.081 300.037,354.446 299.656,354.578 299.312 C 354.977 298.272,354.551 298.309,353.853 299.375 M62.400 314.519 C 62.400 314.878,62.805 315.384,63.300 315.644 L 64.200 316.116 63.404 315.158 C 62.967 314.631,62.562 314.125,62.504 314.033 C 62.447 313.942,62.400 314.160,62.400 314.519 M340.425 317.769 L 339.050 319.400 340.605 317.913 C 341.460 317.096,342.079 316.362,341.980 316.283 C 341.881 316.203,341.181 316.872,340.425 317.769 M73.600 327.292 C 73.600 327.678,78.886 332.841,79.153 332.716 C 79.289 332.652,78.095 331.353,76.500 329.829 C 74.905 328.306,73.600 327.164,73.600 327.292 M317.506 340.611 C 316.684 341.375,316.154 342.000,316.327 342.000 C 316.501 342.000,317.254 341.370,318.000 340.600 C 319.741 338.803,319.443 338.810,317.506 340.611 M299.200 354.000 C 298.650 354.430,298.412 354.786,298.671 354.791 C 299.115 354.799,300.400 353.744,300.400 353.371 C 300.400 353.098,300.259 353.172,299.200 354.000 M110.800 356.732 C 110.800 357.251,111.896 358.104,112.350 357.938 C 112.557 357.862,112.293 357.477,111.763 357.081 C 111.233 356.686,110.800 356.529,110.800 356.732 M272.600 368.000 C 271.853 368.495,271.641 368.796,272.038 368.797 C 272.389 368.799,273.002 368.440,273.400 368.000 C 274.310 366.994,274.119 366.994,272.600 368.000 M140.871 371.442 C 141.220 371.791,141.815 372.015,142.194 371.938 C 142.668 371.843,142.470 371.645,141.559 371.304 C 140.351 370.851,140.291 370.863,140.871 371.442 M145.671 373.042 C 146.020 373.391,146.615 373.615,146.994 373.538 C 147.468 373.443,147.270 373.245,146.359 372.904 C 145.151 372.451,145.091 372.463,145.671 373.042 M259.200 373.054 L 257.800 373.555 259.076 373.577 C 259.778 373.590,260.471 373.408,260.616 373.173 C 261.015 372.529,260.735 372.505,259.200 373.054 M169.004 379.206 C 169.138 379.423,169.807 379.600,170.490 379.600 C 172.001 379.600,171.849 379.400,170.080 379.063 C 169.255 378.906,168.852 378.960,169.004 379.206 M179.952 380.912 C 180.145 381.105,180.819 381.198,181.451 381.119 C 182.509 380.987,182.481 380.959,181.100 380.768 C 180.240 380.649,179.750 380.710,179.952 380.912 M224.800 380.800 L 223.400 381.095 224.676 381.147 C 225.378 381.176,226.064 381.020,226.200 380.800 C 226.336 380.580,226.392 380.424,226.324 380.453 C 226.256 380.482,225.570 380.638,224.800 380.800 M201.800 382.400 C 201.936 382.620,202.577 382.800,203.224 382.800 C 203.871 382.800,204.400 382.620,204.400 382.400 C 204.400 382.180,203.759 382.000,202.976 382.000 C 202.129 382.000,201.653 382.162,201.800 382.400 " stroke="none" fill="#ffffff" fill-rule="evenodd"></path><path id="path4" d="M192.260 23.900 C 192.158 24.065,193.362 24.151,194.937 24.091 C 199.810 23.904,200.374 23.731,196.324 23.664 C 194.192 23.629,192.363 23.735,192.260 23.900 M206.800 23.858 C 210.148 24.153,213.911 24.176,213.740 23.900 C 213.637 23.735,211.718 23.630,209.476 23.667 C 207.234 23.704,206.030 23.790,206.800 23.858 M176.645 25.528 C 176.533 25.708,176.973 25.777,177.621 25.682 C 178.270 25.587,178.800 25.440,178.800 25.355 C 178.800 25.050,176.843 25.207,176.645 25.528 M227.200 25.355 C 227.200 25.440,227.740 25.588,228.400 25.685 C 229.060 25.782,229.600 25.713,229.600 25.531 C 229.600 25.349,229.060 25.200,228.400 25.200 C 227.740 25.200,227.200 25.270,227.200 25.355 M167.549 27.077 C 167.136 27.586,167.129 27.676,167.520 27.441 C 167.806 27.269,168.886 26.985,169.920 26.811 L 171.800 26.494 169.949 26.447 C 168.651 26.414,167.934 26.602,167.549 27.077 M234.400 26.556 C 234.400 26.642,235.017 26.785,235.772 26.873 C 236.527 26.961,237.056 26.890,236.948 26.716 C 236.755 26.403,234.400 26.255,234.400 26.556 M161.445 28.328 C 161.333 28.508,161.773 28.577,162.421 28.482 C 163.070 28.387,163.600 28.240,163.600 28.155 C 163.600 27.850,161.643 28.007,161.445 28.328 M242.433 28.143 C 242.876 28.522,245.217 28.751,244.996 28.394 C 244.862 28.177,244.193 28.000,243.510 28.000 C 242.826 28.000,242.342 28.064,242.433 28.143 M249.800 30.000 C 250.996 30.514,251.995 30.514,251.200 30.000 C 250.870 29.787,250.240 29.622,249.800 29.634 L 249.000 29.656 249.800 30.000 M269.423 36.567 C 270.261 37.180,270.640 37.113,270.216 36.427 C 270.071 36.192,269.659 36.000,269.300 36.000 C 268.754 36.000,268.774 36.093,269.423 36.567 M122.229 42.629 C 121.373 43.484,121.430 43.872,122.300 43.114 C 122.685 42.779,123.270 42.405,123.600 42.284 C 124.090 42.104,124.077 42.057,123.529 42.032 C 123.159 42.014,122.574 42.283,122.229 42.629 M119.029 44.229 C 117.877 45.380,118.890 45.084,120.767 43.721 C 120.858 43.654,120.646 43.600,120.295 43.600 C 119.944 43.600,119.374 43.883,119.029 44.229 M107.762 50.858 C 107.005 51.710,107.006 51.713,107.878 51.256 C 108.850 50.746,109.449 50.000,108.886 50.000 C 108.687 50.000,108.181 50.386,107.762 50.858 M92.392 61.410 C 91.619 62.341,92.171 62.517,92.998 61.602 C 93.397 61.161,93.538 60.800,93.311 60.800 C 93.084 60.800,92.670 61.074,92.392 61.410 M314.033 62.504 C 314.125 62.562,314.631 62.967,315.158 63.404 L 316.116 64.200 315.644 63.300 C 315.384 62.805,314.878 62.400,314.519 62.400 C 314.160 62.400,313.942 62.447,314.033 62.504 M82.380 69.919 C 80.611 71.795,80.570 72.267,82.321 70.618 C 83.244 69.747,84.000 68.982,84.000 68.918 C 84.000 68.529,83.262 68.985,82.380 69.919 M329.849 76.514 C 331.362 78.117,332.652 79.311,332.716 79.167 C 332.835 78.897,327.693 73.600,327.312 73.600 C 327.195 73.600,328.336 74.911,329.849 76.514 M70.167 82.205 C 69.348 82.978,68.761 83.694,68.864 83.797 C 68.966 83.900,69.729 83.267,70.559 82.392 C 72.424 80.423,72.180 80.307,70.167 82.205 M61.192 92.610 C 60.419 93.541,60.971 93.717,61.798 92.802 C 62.197 92.361,62.338 92.000,62.111 92.000 C 61.884 92.000,61.470 92.274,61.192 92.610 M50.662 107.931 C 49.933 108.737,49.772 109.388,50.398 109.001 C 50.815 108.743,51.739 107.200,51.476 107.200 C 51.392 107.200,51.026 107.529,50.662 107.931 M130.600 107.600 L 129.400 107.905 130.676 107.953 C 131.378 107.979,132.064 107.820,132.200 107.600 C 132.474 107.157,132.340 107.157,130.600 107.600 M142.604 107.606 C 142.738 107.823,143.407 108.000,144.090 108.000 C 145.601 108.000,145.449 107.800,143.680 107.463 C 142.855 107.306,142.452 107.360,142.604 107.606 M357.081 111.763 C 357.477 112.293,357.862 112.557,357.938 112.350 C 358.104 111.896,357.251 110.800,356.732 110.800 C 356.529 110.800,356.686 111.233,357.081 111.763 M44.229 119.029 C 43.883 119.374,43.600 119.944,43.600 120.295 C 43.600 120.646,43.654 120.858,43.721 120.767 C 45.084 118.890,45.380 117.877,44.229 119.029 M42.629 122.229 C 42.283 122.574,42.014 123.159,42.032 123.529 C 42.057 124.077,42.104 124.090,42.284 123.600 C 42.405 123.270,42.779 122.685,43.114 122.300 C 43.872 121.430,43.484 121.373,42.629 122.229 M159.320 127.800 C 159.321 131.438,159.380 131.986,159.563 130.063 C 159.695 128.668,159.694 126.508,159.561 125.263 C 159.392 123.689,159.318 124.461,159.320 127.800 M371.304 141.559 C 371.645 142.470,371.843 142.668,371.938 142.194 C 372.015 141.815,371.791 141.220,371.442 140.871 C 370.863 140.291,370.851 140.351,371.304 141.559 M122.400 144.200 C 122.674 144.530,123.078 144.800,123.298 144.800 C 123.521 144.800,123.478 144.535,123.200 144.200 C 122.926 143.870,122.522 143.600,122.302 143.600 C 122.079 143.600,122.122 143.865,122.400 144.200 M372.904 146.359 C 373.245 147.270,373.443 147.468,373.538 146.994 C 373.615 146.615,373.391 146.020,373.042 145.671 C 372.463 145.091,372.451 145.151,372.904 146.359 M128.200 147.200 C 129.301 147.673,129.692 147.673,129.400 147.200 C 129.264 146.980,128.758 146.813,128.276 146.828 C 127.431 146.855,127.429 146.869,128.200 147.200 M136.305 148.683 C 136.802 148.779,137.522 148.775,137.905 148.675 C 138.287 148.575,137.880 148.496,137.000 148.501 C 136.120 148.505,135.807 148.587,136.305 148.683 M28.154 161.777 C 28.032 162.094,28.003 162.679,28.089 163.077 C 28.187 163.528,28.324 163.312,28.454 162.500 C 28.671 161.138,28.530 160.796,28.154 161.777 M247.000 163.600 L 245.800 163.905 246.876 163.953 C 247.468 163.979,248.064 163.820,248.200 163.600 C 248.336 163.380,248.392 163.221,248.324 163.247 C 248.256 163.273,247.660 163.432,247.000 163.600 M116.995 226.400 C 116.995 259.510,117.042 273.055,117.100 256.500 C 117.158 239.945,117.158 212.855,117.100 196.300 C 117.042 179.745,116.995 193.290,116.995 226.400 M26.880 167.680 C 26.616 167.944,26.421 168.979,26.447 169.980 L 26.494 171.800 26.811 169.920 C 26.985 168.886,27.245 167.851,27.388 167.620 C 27.736 167.057,27.472 167.088,26.880 167.680 M379.063 170.080 C 379.400 171.849,379.600 172.001,379.600 170.490 C 379.600 169.807,379.423 169.138,379.206 169.004 C 378.960 168.852,378.906 169.255,379.063 170.080 M285.655 172.339 C 285.945 172.804,286.437 173.282,286.749 173.402 C 287.830 173.817,287.639 173.282,286.386 172.390 C 285.151 171.511,285.137 171.510,285.655 172.339 M25.354 176.977 C 25.232 177.294,25.203 177.879,25.289 178.277 C 25.387 178.728,25.524 178.512,25.654 177.700 C 25.871 176.338,25.730 175.996,25.354 176.977 M380.768 181.100 C 380.959 182.481,380.987 182.509,381.119 181.451 C 381.198 180.819,381.105 180.145,380.912 179.952 C 380.710 179.750,380.649 180.240,380.768 181.100 M23.771 192.532 C 23.659 192.824,23.621 194.669,23.687 196.632 L 23.807 200.200 24.003 196.099 C 24.198 192.032,24.164 191.507,23.771 192.532 M256.295 200.001 C 257.086 200.881,257.825 201.508,257.939 201.395 C 258.172 201.161,255.602 198.400,255.151 198.400 C 254.990 198.400,255.505 199.120,256.295 200.001 M382.000 202.976 C 382.000 203.759,382.180 204.400,382.400 204.400 C 382.620 204.400,382.800 203.871,382.800 203.224 C 382.800 202.577,382.620 201.936,382.400 201.800 C 382.162 201.653,382.000 202.129,382.000 202.976 M23.667 209.476 C 23.630 211.718,23.735 213.637,23.900 213.740 C 24.065 213.842,24.151 212.638,24.091 211.063 C 23.894 205.918,23.736 205.324,23.667 209.476 M380.768 224.900 C 380.649 225.760,380.710 226.250,380.912 226.048 C 381.105 225.855,381.198 225.181,381.119 224.549 C 380.987 223.491,380.959 223.519,380.768 224.900 M25.200 228.400 C 25.200 229.060,25.349 229.600,25.531 229.600 C 25.713 229.600,25.782 229.060,25.685 228.400 C 25.588 227.740,25.440 227.200,25.355 227.200 C 25.270 227.200,25.200 227.740,25.200 228.400 M26.400 235.576 C 26.400 236.223,26.542 236.841,26.716 236.948 C 26.890 237.056,26.961 236.527,26.873 235.772 C 26.676 234.091,26.400 233.977,26.400 235.576 M28.000 243.510 C 28.000 244.193,28.177 244.862,28.394 244.996 C 28.640 245.148,28.694 244.745,28.537 243.920 C 28.200 242.151,28.000 241.999,28.000 243.510 M29.634 249.800 C 29.622 250.240,29.787 250.870,30.000 251.200 C 30.514 251.995,30.514 250.996,30.000 249.800 L 29.656 249.000 29.634 249.800 M372.960 259.366 C 372.718 260.155,372.678 260.800,372.872 260.800 C 373.366 260.800,373.688 259.820,373.532 258.795 C 373.427 258.108,373.311 258.223,372.960 259.366 M36.000 269.300 C 36.000 269.659,36.192 270.071,36.427 270.216 C 37.113 270.640,37.180 270.261,36.567 269.423 C 36.093 268.774,36.000 268.754,36.000 269.300 M367.842 272.885 L 367.093 274.200 367.994 273.342 C 368.489 272.870,368.826 272.278,368.742 272.027 C 368.659 271.776,368.253 272.162,367.842 272.885 M353.853 299.375 C 353.333 300.168,353.316 300.330,353.768 300.157 C 354.081 300.037,354.446 299.656,354.578 299.312 C 354.977 298.272,354.551 298.309,353.853 299.375 M62.400 314.519 C 62.400 314.878,62.805 315.384,63.300 315.644 L 64.200 316.116 63.404 315.158 C 62.967 314.631,62.562 314.125,62.504 314.033 C 62.447 313.942,62.400 314.160,62.400 314.519 M340.425 317.769 L 339.050 319.400 340.605 317.913 C 341.460 317.096,342.079 316.362,341.980 316.283 C 341.881 316.203,341.181 316.872,340.425 317.769 M73.600 327.292 C 73.600 327.678,78.886 332.841,79.153 332.716 C 79.289 332.652,78.095 331.353,76.500 329.829 C 74.905 328.306,73.600 327.164,73.600 327.292 M317.506 340.611 C 316.684 341.375,316.154 342.000,316.327 342.000 C 316.501 342.000,317.254 341.370,318.000 340.600 C 319.741 338.803,319.443 338.810,317.506 340.611 M299.200 354.000 C 298.650 354.430,298.412 354.786,298.671 354.791 C 299.115 354.799,300.400 353.744,300.400 353.371 C 300.400 353.098,300.259 353.172,299.200 354.000 M110.800 356.732 C 110.800 357.251,111.896 358.104,112.350 357.938 C 112.557 357.862,112.293 357.477,111.763 357.081 C 111.233 356.686,110.800 356.529,110.800 356.732 M272.600 368.000 C 271.853 368.495,271.641 368.796,272.038 368.797 C 272.389 368.799,273.002 368.440,273.400 368.000 C 274.310 366.994,274.119 366.994,272.600 368.000 M140.871 371.442 C 141.220 371.791,141.815 372.015,142.194 371.938 C 142.668 371.843,142.470 371.645,141.559 371.304 C 140.351 370.851,140.291 370.863,140.871 371.442 M145.671 373.042 C 146.020 373.391,146.615 373.615,146.994 373.538 C 147.468 373.443,147.270 373.245,146.359 372.904 C 145.151 372.451,145.091 372.463,145.671 373.042 M259.200 373.054 L 257.800 373.555 259.076 373.577 C 259.778 373.590,260.471 373.408,260.616 373.173 C 261.015 372.529,260.735 372.505,259.200 373.054 M169.004 379.206 C 169.138 379.423,169.807 379.600,170.490 379.600 C 172.001 379.600,171.849 379.400,170.080 379.063 C 169.255 378.906,168.852 378.960,169.004 379.206 M179.952 380.912 C 180.145 381.105,180.819 381.198,181.451 381.119 C 182.509 380.987,182.481 380.959,181.100 380.768 C 180.240 380.649,179.750 380.710,179.952 380.912 M224.800 380.800 L 223.400 381.095 224.676 381.147 C 225.378 381.176,226.064 381.020,226.200 380.800 C 226.336 380.580,226.392 380.424,226.324 380.453 C 226.256 380.482,225.570 380.638,224.800 380.800 M201.800 382.400 C 201.936 382.620,202.577 382.800,203.224 382.800 C 203.871 382.800,204.400 382.620,204.400 382.400 C 204.400 382.180,203.759 382.000,202.976 382.000 C 202.129 382.000,201.653 382.162,201.800 382.400 " stroke="none" fill="#ffffff" fill-rule="evenodd"></path></g></svg>