<?xml version="1.0" standalone="no"?>
<!DOCTYPE svg PUBLIC "-//W3C//DTD SVG 20010904//EN"
 "http://www.w3.org/TR/2001/REC-SVG-20010904/DTD/svg10.dtd">
<svg version="1.0" xmlns="http://www.w3.org/2000/svg"
 width="293.000000pt" height="248.000000pt" viewBox="0 0 293.000000 248.000000"
 preserveAspectRatio="xMidYMid meet">
<metadata>
Created by potrace 1.15, written by Peter Selinger 2001-2017
</metadata>
<g transform="translate(0.000000,248.000000) scale(0.100000,-0.100000)"
fill="#000000" stroke="none">
<path d="M1195 2366 c-106 -34 -189 -94 -259 -185 -45 -59 -64 -71 -146 -92
-94 -24 -175 -83 -227 -165 -30 -47 -48 -57 -136 -74 -146 -29 -281 -134 -345
-269 -33 -69 -37 -86 -40 -177 -8 -192 60 -327 212 -426 88 -57 171 -80 296
-83 58 -1 110 -3 116 -4 6 0 46 -28 90 -61 151 -116 275 -160 446 -160 126 0
192 16 319 76 109 52 109 52 210 -7 77 -45 129 -58 219 -59 120 0 210 36 333
135 44 36 80 56 105 60 127 20 163 29 218 55 86 42 159 117 203 209 35 73 36
80 36 186 0 104 -2 113 -32 170 -60 114 -160 203 -273 240 -56 18 -87 52 -140
145 -43 76 -147 176 -222 212 -89 44 -160 58 -286 58 -62 0 -122 5 -133 11
-11 5 -48 39 -83 73 -43 44 -88 76 -142 102 -75 37 -82 39 -188 41 -71 2 -125
-2 -151 -11z"/>
<path d="M241 786 c-89 -129 -120 -258 -72 -297 28 -23 98 -26 126 -5 28 20
33 149 11 248 -24 105 -28 109 -65 54z"/>
<path d="M2391 726 c-89 -129 -120 -258 -72 -297 28 -23 98 -26 126 -5 28 20
33 149 11 248 -24 105 -28 109 -65 54z"/>
<path d="M602 602 c-52 -85 -72 -141 -72 -202 0 -57 20 -79 78 -87 53 -7 86
24 96 88 10 67 -29 269 -51 269 -5 0 -27 -31 -51 -68z"/>
<path d="M1781 606 c-89 -129 -120 -258 -72 -297 28 -23 98 -26 126 -5 28 20
33 149 11 248 -24 105 -28 109 -65 54z"/>
<path d="M1115 460 c-98 -151 -139 -273 -115 -344 15 -45 52 -66 120 -66 90 0
119 60 107 219 -6 78 -43 239 -57 255 -5 5 -30 -24 -55 -64z"/>
<path d="M2641 486 c-89 -129 -120 -258 -72 -297 28 -23 98 -26 126 -5 28 20
33 149 11 248 -24 105 -28 109 -65 54z"/>
<path d="M1501 431 c-61 -85 -77 -169 -39 -195 55 -39 98 -7 98 72 0 57 -19
152 -31 152 -4 0 -17 -13 -28 -29z"/>
<path d="M421 366 c-89 -129 -120 -258 -72 -297 28 -23 98 -26 126 -5 28 20
33 149 11 248 -24 105 -28 109 -65 54z"/>
<path d="M1951 366 c-89 -129 -120 -258 -72 -297 28 -23 98 -26 126 -5 28 20
33 149 11 248 -24 105 -28 109 -65 54z"/>
</g>
</svg>
