<?xml version="1.0" standalone="no"?>
<!DOCTYPE svg PUBLIC "-//W3C//DTD SVG 20010904//EN"
 "http://www.w3.org/TR/2001/REC-SVG-20010904/DTD/svg10.dtd">
<svg version="1.0" xmlns="http://www.w3.org/2000/svg"
 width="297.000000pt" height="274.000000pt" viewBox="0 0 297.000000 274.000000"
 preserveAspectRatio="xMidYMid meet">
<metadata>
Created by potrace 1.15, written by Peter Selinger 2001-2017
</metadata>
<g transform="translate(0.000000,274.000000) scale(0.100000,-0.100000)"
fill="#FFB12B" stroke="none">
<path d="M1215 2676 c-106 -34 -189 -94 -259 -185 -45 -59 -64 -71 -146 -92
-94 -24 -175 -83 -227 -165 -30 -47 -48 -57 -136 -74 -146 -29 -281 -134 -345
-269 -33 -69 -37 -86 -40 -177 -8 -192 60 -327 212 -426 88 -57 171 -80 296
-83 58 -1 110 -3 116 -4 6 0 46 -28 90 -61 151 -116 275 -160 446 -160 126 0
192 16 319 76 109 52 109 52 210 -7 77 -45 129 -58 219 -59 120 0 210 36 333
135 44 36 80 56 105 60 127 20 163 29 218 55 86 42 159 117 203 209 35 73 36
80 36 186 0 104 -2 113 -32 170 -60 114 -160 203 -273 240 -56 18 -87 52 -140
145 -43 76 -147 176 -222 212 -89 44 -160 58 -286 58 -62 0 -122 5 -133 11
-11 5 -48 39 -83 73 -43 44 -88 76 -142 102 -75 37 -82 39 -188 41 -71 2 -125
-2 -151 -11z"/>
<path d="M348 1083 l-27 -27 39 -43 c33 -35 40 -50 40 -83 0 -22 -3 -40 -6
-40 -4 0 -24 10 -45 22 -37 20 -59 60 -59 106 0 13 -20 14 -60 3 -22 -6 -25
-13 -25 -51 0 -41 -2 -44 -34 -52 -32 -9 -33 -11 -28 -49 3 -23 7 -43 10 -45
3 -3 29 1 59 9 50 13 57 13 91 -5 20 -10 37 -22 37 -26 0 -5 -20 -18 -45 -30
-41 -20 -47 -20 -92 -7 -26 8 -49 13 -51 11 -1 -2 -4 -23 -5 -46 -2 -41 0 -44
31 -52 32 -9 33 -10 27 -52 -6 -39 -5 -44 17 -49 53 -15 63 -9 78 44 13 43 22
55 58 76 l42 25 0 -44 c0 -37 -5 -49 -35 -78 -19 -19 -35 -39 -35 -45 0 -6 13
-24 30 -40 l30 -29 31 30 31 29 23 -27 c30 -35 35 -35 70 2 l28 29 -41 45
c-35 38 -42 52 -42 87 l0 40 42 -23 c35 -19 43 -31 56 -73 7 -27 15 -51 17
-53 2 -2 22 2 45 8 41 11 41 12 38 52 -3 39 -1 42 30 50 35 9 40 26 22 73 -8
22 -15 26 -33 21 -64 -18 -93 -17 -126 4 l-34 21 33 21 c31 18 39 19 92 8 32
-7 60 -11 63 -9 2 3 7 23 11 46 6 42 6 42 -30 49 l-37 6 6 43 7 42 -43 11
c-24 6 -44 10 -45 9 -1 -1 -7 -22 -15 -47 -10 -31 -24 -51 -48 -67 -46 -31
-51 -29 -51 14 0 30 8 45 42 80 l42 43 -29 30 c-35 36 -45 37 -75 5 l-24 -25
-26 25 c-33 31 -39 31 -72 -2z"/>
<path d="M2187 872 c-23 -25 -21 -34 8 -62 15 -14 25 -35 25 -52 0 -28 0 -28
-29 -13 -18 9 -34 28 -41 50 -12 38 -13 38 -48 29 -19 -5 -23 -12 -20 -37 2
-26 -1 -32 -22 -37 -20 -5 -25 -12 -23 -34 3 -38 6 -40 51 -29 30 8 45 7 67
-4 l27 -15 -30 -18 c-25 -16 -37 -17 -67 -9 -43 12 -41 13 -49 -27 -6 -29 -5
-32 23 -37 28 -6 29 -8 21 -37 -8 -27 -6 -31 16 -36 33 -8 54 2 54 26 0 22 41
70 60 70 20 0 10 -49 -16 -80 l-27 -31 24 -25 23 -24 20 20 20 20 23 -22 c22
-21 23 -21 43 -3 26 24 25 37 -5 65 -22 20 -36 80 -20 80 21 0 54 -36 59 -65
7 -36 14 -39 54 -29 19 5 22 12 20 38 -2 26 1 32 20 34 22 3 28 24 16 57 -5
13 -15 15 -50 9 -31 -4 -49 -2 -65 9 l-22 16 26 12 c19 8 37 9 67 1 38 -9 40
-9 46 14 9 33 -2 54 -26 54 -19 0 -21 4 -15 29 7 31 4 35 -36 45 -24 5 -27 3
-33 -29 -5 -25 -15 -39 -36 -50 -30 -15 -30 -15 -30 12 0 17 12 39 30 58 l30
31 -25 24 -25 23 -23 -21 -24 -22 -18 20 c-22 25 -28 25 -48 2z"/>
<path d="M1365 720 l-29 -30 37 -38 c31 -31 37 -45 37 -80 0 -23 -4 -42 -9
-42 -4 0 -23 10 -42 23 -25 16 -38 36 -48 70 -15 48 -15 48 -50 42 -49 -9 -54
-17 -43 -59 11 -40 11 -41 -37 -51 -32 -7 -33 -9 -28 -43 9 -51 18 -56 74 -39
45 14 52 13 86 -4 20 -11 37 -23 37 -27 0 -4 -18 -17 -39 -29 -36 -21 -44 -22
-90 -11 -28 6 -53 9 -56 6 -3 -3 -6 -22 -8 -43 -2 -37 0 -39 36 -48 30 -7 37
-13 32 -26 -19 -48 -17 -68 7 -74 56 -15 66 -10 82 46 13 44 22 55 56 74 l40
21 0 -44 c0 -38 -6 -51 -35 -81 -19 -20 -35 -39 -35 -43 0 -10 55 -60 67 -60
6 0 20 12 31 28 l21 27 30 -29 31 -30 30 29 c17 16 30 34 30 40 0 7 -16 26
-35 44 -30 27 -35 38 -35 76 l0 45 38 -23 c29 -19 40 -35 52 -76 16 -55 17
-56 73 -40 28 8 37 14 33 27 -2 9 -7 27 -11 39 -5 19 0 24 35 34 29 9 39 17
36 28 -3 9 -8 29 -12 44 -5 23 -11 28 -28 23 -63 -18 -101 -17 -136 5 l-34 21
38 20 c33 17 45 18 82 9 64 -16 70 -14 82 26 14 45 11 49 -33 57 -34 7 -34 7
-29 50 l6 43 -41 10 c-46 12 -45 13 -60 -45 -9 -31 -21 -48 -44 -62 -18 -11
-35 -20 -39 -20 -5 0 -8 19 -8 43 0 36 6 49 35 77 19 19 35 39 35 46 0 7 -14
22 -31 35 l-30 21 -30 -28 -29 -28 -28 27 c-15 15 -30 27 -33 27 -3 0 -18 -14
-34 -30z"/>
<path d="M768 406 c-23 -17 -23 -29 2 -51 20 -18 28 -55 12 -55 -13 0 -39 32
-46 56 -5 16 -12 20 -32 16 -21 -4 -25 -9 -21 -28 3 -17 -1 -25 -14 -29 -12
-4 -19 -16 -19 -32 0 -24 2 -25 38 -20 44 8 76 -7 52 -23 -8 -6 -31 -9 -50 -8
-31 3 -35 0 -38 -24 -2 -19 2 -27 15 -30 11 -2 18 -12 18 -28 0 -35 46 -36 55
-1 3 13 15 30 28 39 20 13 22 13 22 -7 0 -11 -9 -30 -20 -41 -24 -24 -25 -33
-4 -51 13 -10 19 -10 36 0 16 10 22 10 28 0 5 -6 15 -9 24 -6 27 11 30 36 6
62 -12 13 -20 30 -18 39 3 15 5 15 26 1 12 -9 22 -25 22 -35 0 -24 15 -33 41
-25 16 5 20 13 16 31 -3 18 0 24 14 24 24 0 28 10 18 38 -7 18 -14 22 -30 17
-11 -4 -32 -4 -47 0 -25 6 -26 8 -9 20 13 9 27 11 48 5 26 -8 31 -6 39 16 13
34 13 34 -9 34 -14 0 -21 8 -23 28 -4 40 -44 44 -59 5 -10 -26 -25 -43 -41
-43 -16 0 -7 30 17 58 24 29 24 29 5 47 -19 17 -21 17 -38 2 -16 -14 -20 -15
-33 -2 -11 11 -17 12 -31 1z"/>
</g>
</svg>
