<?xml version="1.0" standalone="no"?>
<!DOCTYPE svg PUBLIC "-//W3C//DTD SVG 20010904//EN"
 "http://www.w3.org/TR/2001/REC-SVG-20010904/DTD/svg10.dtd">
<svg version="1.0" xmlns="http://www.w3.org/2000/svg"
 width="297.000000pt" height="267.000000pt" viewBox="0 0 297.000000 267.000000"
 preserveAspectRatio="xMidYMid meet">
<metadata>
Created by potrace 1.15, written by Peter Selinger 2001-2017
</metadata>
<g transform="translate(0.000000,267.000000) scale(0.100000,-0.100000)"
fill="#000000" stroke="none">
<path d="M1245 2606 c-106 -34 -189 -94 -259 -185 -45 -59 -64 -71 -146 -92
-94 -24 -175 -83 -227 -165 -30 -47 -48 -57 -136 -74 -146 -29 -281 -134 -345
-269 -33 -69 -37 -86 -40 -177 -8 -192 60 -327 212 -426 90 -58 170 -80 303
-82 110 -2 113 -3 155 -34 109 -82 169 -119 239 -147 l76 -31 -44 -115 c-23
-62 -43 -120 -43 -126 0 -9 43 -13 165 -15 l165 -3 -167 -278 c-91 -152 -163
-280 -160 -283 6 -7 857 676 857 688 0 4 -115 9 -255 10 l-255 3 82 74 c97 86
225 156 267 146 14 -3 56 -24 92 -45 77 -45 128 -59 219 -60 120 0 210 36 333
135 44 36 80 56 105 60 127 20 163 29 218 55 86 42 159 117 203 209 35 73 36
80 36 186 0 104 -2 113 -32 170 -60 114 -160 203 -273 240 -56 18 -87 52 -140
145 -43 76 -147 176 -222 212 -89 44 -160 58 -286 58 -62 0 -122 5 -133 11
-11 5 -48 39 -83 73 -43 44 -88 76 -142 102 -75 37 -82 39 -188 41 -71 2 -125
-2 -151 -11z"/>
<path d="M217 841 c-87 -110 -127 -194 -127 -264 0 -49 3 -58 31 -81 23 -20
42 -26 78 -26 54 0 70 13 97 75 27 65 22 375 -7 375 -5 0 -37 -36 -72 -79z"/>
<path d="M1976 639 c-174 -219 -179 -379 -12 -379 44 0 79 40 96 111 14 59 8
306 -8 335 -8 14 -20 4 -76 -67z"/>
<path d="M739 603 c-127 -155 -190 -272 -197 -364 -7 -99 42 -149 145 -149 76
0 110 41 133 158 18 89 2 422 -19 422 -4 0 -32 -30 -62 -67z"/>
<path d="M2355 528 c-57 -75 -85 -132 -85 -173 0 -36 7 -48 37 -64 40 -21 72
-14 93 22 17 27 20 50 20 142 0 61 -4 116 -9 123 -6 10 -21 -4 -56 -50z"/>
</g>
</svg>
