<?xml version="1.0" standalone="no"?>
<!DOCTYPE svg PUBLIC "-//W3C//DTD SVG 20010904//EN"
 "http://www.w3.org/TR/2001/REC-SVG-20010904/DTD/svg10.dtd">
<svg version="1.0" xmlns="http://www.w3.org/2000/svg"
 width="300.000000pt" height="291.000000pt" viewBox="0 0 300.000000 291.000000"
 preserveAspectRatio="xMidYMid meet">
<metadata>
Created by potrace 1.15, written by Peter Selinger 2001-2017
</metadata>
<g transform="translate(0.000000,291.000000) scale(0.100000,-0.100000)"
fill="#FFD869" stroke="none">
<path d="M1431 2875 l-31 -36 0 -206 c0 -188 2 -208 20 -238 42 -68 140 -73
197 -11 l33 36 0 210 0 209 -31 36 c-29 33 -34 35 -94 35 -60 0 -65 -2 -94
-35z"/>
<path d="M758 2740 c-93 -50 -99 -103 -27 -227 29 -48 65 -110 81 -138 51 -89
82 -128 121 -148 33 -17 44 -18 76 -9 20 7 50 25 66 42 25 26 30 39 29 78 -1
41 -15 69 -101 212 -100 164 -124 191 -183 204 -15 3 -40 -2 -62 -14z"/>
<path d="M2145 2715 c-29 -15 -66 -70 -182 -268 -58 -98 -65 -117 -59 -151 13
-65 110 -117 174 -95 36 12 108 114 188 264 15 28 35 61 45 74 27 33 25 101
-3 136 -40 51 -108 67 -163 40z"/>
<path d="M265 2252 c-70 -24 -100 -89 -79 -169 8 -29 125 -103 334 -210 79
-40 94 -41 148 -6 51 33 70 84 52 137 -14 43 -26 53 -140 116 -52 29 -124 70
-160 91 -67 39 -120 53 -155 41z"/>
<path d="M1334 2246 c-85 -16 -215 -71 -301 -127 -79 -52 -191 -171 -244 -259
-143 -242 -142 -551 4 -792 99 -165 255 -287 452 -354 106 -36 116 -37 250
-38 132 -1 146 1 240 32 55 18 114 40 132 50 98 52 146 87 208 149 65 64 83
87 149 191 13 20 39 82 57 137 30 91 33 112 33 225 1 79 -4 141 -13 170 -7 25
-20 68 -28 95 -37 124 -165 293 -288 380 -72 52 -188 107 -272 130 -80 22
-289 28 -379 11z"/>
<path d="M2555 2198 c-60 -33 -137 -76 -170 -94 -89 -48 -110 -75 -109 -135 1
-57 22 -86 83 -114 37 -16 40 -16 87 4 27 12 117 61 201 108 161 91 173 104
173 174 0 47 -22 84 -61 105 -51 26 -88 17 -204 -48z"/>
<path d="M76 1580 c-16 -5 -39 -19 -52 -31 -20 -19 -24 -32 -24 -85 0 -57 3
-64 30 -88 40 -33 83 -38 297 -34 205 3 225 10 252 83 13 32 13 43 0 78 -27
77 -43 82 -272 84 -111 1 -215 -2 -231 -7z"/>
<path d="M2483 1575 c-60 -26 -87 -98 -58 -159 30 -63 56 -70 261 -74 195 -4
247 3 289 42 21 20 25 32 25 83 0 65 -17 91 -73 112 -44 17 -404 14 -444 -4z"/>
<path d="M505 1049 c-283 -149 -325 -182 -325 -255 0 -40 5 -51 39 -85 55 -55
86 -53 209 15 281 155 288 160 298 212 13 70 -37 139 -109 150 -24 4 -51 -5
-112 -37z"/>
<path d="M2355 1080 c-11 -4 -33 -22 -50 -40 -25 -26 -30 -39 -30 -82 0 -45 4
-53 35 -80 19 -16 64 -45 100 -64 36 -19 106 -58 155 -86 111 -62 152 -70 199
-37 42 29 56 56 56 113 0 57 -18 74 -167 158 -238 133 -250 138 -298 118z"/>
<path d="M1963 706 c-76 -34 -90 -116 -36 -204 17 -26 49 -81 73 -122 80 -140
103 -169 144 -185 81 -33 176 26 176 108 0 33 -157 309 -210 369 -41 46 -93
58 -147 34z"/>
<path d="M940 682 c-25 -14 -53 -49 -102 -128 -98 -158 -148 -252 -147 -277 1
-40 34 -81 82 -105 l48 -23 44 20 c49 22 68 48 211 291 59 102 59 161 -4 207
-44 32 -90 37 -132 15z"/>
<path d="M1463 554 c-56 -28 -63 -58 -63 -283 l0 -200 31 -36 c29 -33 34 -35
94 -35 60 0 65 2 94 35 l31 36 0 209 0 210 -33 36 c-40 44 -102 55 -154 28z"/>
</g>
</svg>
